<svg width="55" height="49" viewBox="0 0 55 49" fill="none" xmlns="http://www.w3.org/2000/svg">
<path opacity="0.02439" d="M49.4301 42.1076L54.5421 12.9016C54.6208 12.4522 54.6208 12.0029 54.6208 11.6285C54.6208 11.4787 54.6208 11.4038 54.6208 11.254C54.6208 10.9545 54.5421 10.655 54.4635 10.3554C54.4635 10.2056 54.3849 10.0559 54.3849 9.98097C54.3062 9.60653 54.1489 9.30698 53.9916 9.00743C53.913 8.78277 53.7557 8.63299 53.5984 8.40833C53.4411 8.18367 53.4411 8.18367 53.3624 8.10879C52.1041 6.38638 49.9807 5.41284 47.7786 5.41284L25.5218 5.63751L18.2864 48.6977L41.8015 48.473C43.689 48.473 45.4192 47.799 46.8348 46.6757C48.2505 45.4026 49.1942 43.83 49.4301 42.1076Z" fill="#FAFBFD"/>
<path opacity="0.04878" d="M49.3514 42.0327L54.4634 12.9016C54.5421 12.4522 54.5421 12.0029 54.5421 11.6285C54.5421 11.4787 54.5421 11.4038 54.5421 11.254C54.5421 10.9545 54.4634 10.655 54.3848 10.3554C54.3848 10.2056 54.3061 10.0559 54.3061 9.98097C54.2275 9.68142 54.0702 9.30698 53.9129 9.00743C53.8342 8.78277 53.677 8.63299 53.5197 8.40833C53.3624 8.18367 53.3624 8.18367 53.2837 8.10879C52.0254 6.38638 49.9806 5.41284 47.7785 5.41284L25.6004 5.63751L18.4436 48.5479L41.8014 48.3232C45.4978 48.1735 48.7223 45.5524 49.3514 42.0327Z" fill="#F5F7FB"/>
<path opacity="0.073171" d="M49.1951 41.883L54.3071 12.8267C54.3857 12.3774 54.3857 11.9281 54.3857 11.5536C54.3857 11.4039 54.3857 11.329 54.3857 11.1792C54.3857 10.8797 54.3071 10.5801 54.2284 10.2806C54.2284 10.1308 54.1498 10.0559 54.1498 9.90613C54.0711 9.60658 53.9138 9.23214 53.7565 8.93259C53.6779 8.70793 53.5206 8.55816 53.3633 8.3335C53.2847 8.25861 53.206 8.10883 53.1274 8.03395C51.869 6.31154 49.8243 5.33801 47.6222 5.33801L25.5227 5.56267L18.366 48.3233L41.6451 48.0986C45.4201 48.0986 48.6446 45.4776 49.1951 41.883Z" fill="#F0F3FA"/>
<path opacity="0.097561" d="M49.1165 41.808L54.1498 12.8267C54.2284 12.3773 54.2285 12.0029 54.2285 11.5536C54.2285 11.4038 54.2285 11.3289 54.2285 11.1791C54.2285 10.8796 54.1498 10.58 54.0712 10.2805C54.0712 10.1307 53.9925 10.0558 53.9925 9.90606C53.9139 9.60651 53.7566 9.23207 53.5993 8.93252C53.5207 8.70786 53.3634 8.55809 53.2061 8.33343C53.1274 8.25854 53.0487 8.10876 52.9701 8.03387C51.7118 6.38636 49.667 5.33793 47.4649 5.41282L25.5227 5.63749L18.366 48.3232L41.4878 48.0986C43.2967 48.0986 45.1055 47.4246 46.4425 46.3012C47.1503 45.777 47.7009 45.1031 48.0941 44.3542C48.6446 43.5304 48.9592 42.7067 49.1165 41.808Z" fill="#EBEFF8"/>
<path opacity="0.122" d="M48.9582 41.7332L53.9916 12.7518C54.0702 12.3025 54.0702 11.9281 54.0702 11.4788C54.0702 11.329 54.0702 11.2541 54.0702 11.1043C54.0702 10.8048 53.9915 10.5052 53.9129 10.2057C53.9129 10.0559 53.8343 9.98102 53.8343 9.83125C53.7556 9.5317 53.5983 9.15726 53.441 8.85771C53.3624 8.63305 53.2051 8.48327 53.0478 8.25861L52.8119 7.95907C51.5535 6.31155 49.5087 5.33801 47.3853 5.33801L25.5217 5.56267L18.4436 48.0986L41.4868 47.8739C44.2395 47.8739 46.7561 46.4511 48.0931 44.2045C48.565 43.3807 48.8796 42.557 48.9582 41.7332Z" fill="#E6EBF6"/>
<path opacity="0.1463" d="M48.8796 41.6583L53.9129 12.7518C53.9916 12.3025 53.9916 11.9281 53.9916 11.4788C53.9916 11.329 53.9916 11.2541 53.9916 11.1043C53.9916 10.8048 53.9129 10.5052 53.8343 10.2057C53.8343 10.0559 53.7556 9.98102 53.7556 9.83125C53.677 9.5317 53.5197 9.15726 53.3624 8.85771C53.2837 8.63305 53.1264 8.48327 52.9691 8.25861C52.8905 8.18372 52.8119 8.03395 52.7332 7.95907C51.4749 6.31155 49.4301 5.33801 47.3067 5.33801L25.5217 5.56267L18.4436 47.9488L41.3296 47.7242C43.1384 47.7242 44.8686 47.0502 46.2842 45.9269C47.6999 44.8785 48.565 43.3058 48.8796 41.6583Z" fill="#E1E6F4"/>
<path opacity="0.1707" d="M48.7223 41.5086L53.7556 12.677C53.8343 12.2277 53.8343 11.8533 53.8343 11.4039C53.8343 11.2542 53.8343 11.1793 53.8343 11.0295C53.8343 10.7299 53.7556 10.4304 53.677 10.1309C53.677 9.98108 53.5984 9.90619 53.5984 9.75642C53.5197 9.45687 53.3624 9.08243 53.2051 8.78288C53.1265 8.55822 52.9692 8.40844 52.8119 8.18378L52.5759 7.88424C51.3176 6.23672 49.3515 5.26318 47.1494 5.26318L25.5217 5.48785L18.4436 47.7991L41.2509 47.5745C44.0035 47.5745 46.4415 46.1516 47.8572 43.905C48.329 43.231 48.565 42.4072 48.7223 41.5086Z" fill="#DCE2F2"/>
<path opacity="0.1951" d="M48.6436 41.4337L53.5983 12.677C53.677 12.2277 53.6769 11.8533 53.6769 11.4039C53.6769 11.2542 53.6769 11.1793 53.6769 11.0295C53.6769 10.7299 53.5983 10.4304 53.5196 10.1309C53.5196 9.98108 53.441 9.90619 53.441 9.75642C53.3624 9.45687 53.2051 9.08243 53.0478 8.78288C52.9691 8.55822 52.8118 8.40844 52.6546 8.18378L52.4186 7.88424C51.1603 6.23672 49.1941 5.26318 47.0707 5.26318L25.5217 5.41296L18.5222 47.5745L41.2509 47.3498C43.0598 47.3498 44.79 46.7507 46.127 45.6274C46.7561 45.1032 47.3853 44.4292 47.7785 43.6803C48.1717 43.0812 48.4863 42.2575 48.6436 41.4337Z" fill="#D7DEF0"/>
<path opacity="0.2195" d="M48.4863 41.3588L53.441 12.6021C53.5197 12.1527 53.5197 11.7783 53.5197 11.329C53.5197 11.1792 53.5197 11.1043 53.5197 10.9546C53.5197 10.655 53.441 10.3555 53.3624 10.1308C53.3624 9.98102 53.2837 9.90613 53.2837 9.75636C53.2051 9.45681 53.0478 9.08237 52.8905 8.78282C52.8119 8.55816 52.6546 8.40838 52.4973 8.18372L52.2613 7.88417C51.003 6.23666 49.0369 5.26313 46.9134 5.33801L25.5217 5.48779L18.5222 47.4995L41.0936 47.2749C42.9025 47.2749 44.6327 46.6757 45.9697 45.5524C46.5988 45.0282 47.228 44.3542 47.6212 43.6803C48.0931 43.0063 48.3291 42.1825 48.4863 41.3588Z" fill="#D2DAEF"/>
<path opacity="0.2439" d="M48.4077 41.2839L53.3624 12.6021C53.4411 12.2276 53.4411 11.7783 53.4411 11.329C53.4411 11.1792 53.4411 11.1043 53.4411 10.9546C53.4411 10.655 53.3624 10.3555 53.2838 10.1308C53.2838 9.98102 53.2052 9.90613 53.2052 9.75636C53.1265 9.45681 52.9692 9.08237 52.8119 8.78282C52.7333 8.55816 52.576 8.40838 52.4187 8.18372C52.3401 8.10883 52.2614 7.95906 52.1827 7.88417C50.9244 6.23666 48.9583 5.26313 46.8348 5.33801L25.5218 5.48779L18.601 47.4246L41.015 47.2C43.689 47.2 46.127 45.7771 47.464 43.6054C47.9359 42.9314 48.2505 42.1076 48.4077 41.2839Z" fill="#CDD6ED"/>
<path opacity="0.2683" d="M48.2504 41.134L53.2051 12.5271C53.2838 12.1527 53.2838 11.7034 53.2838 11.3289C53.2838 11.1792 53.2838 11.1043 53.2838 10.9545C53.2838 10.655 53.2051 10.3554 53.1265 10.1307C53.1265 9.98096 53.0478 9.90607 53.0478 9.7563C52.9692 9.45675 52.8119 9.15721 52.6546 8.85766C52.576 8.63299 52.4187 8.48322 52.2614 8.25856L52.0254 7.95901C50.7671 6.31149 48.801 5.41284 46.7562 5.41284L25.5218 5.56261L18.601 47.3497L40.9364 47.125C43.6103 47.125 46.0483 45.7021 47.3853 43.5304C47.7785 42.7815 48.0931 41.9578 48.2504 41.134Z" fill="#C9D2EB"/>
<path opacity="0.2927" d="M48.1719 41.0591L53.1265 12.5271C53.2052 12.1527 53.2052 11.7034 53.2052 11.3289C53.2052 11.1792 53.2052 11.1043 53.2052 10.9545C53.2052 10.655 53.1265 10.3554 53.0479 10.1307C53.0479 9.98096 52.9692 9.90608 52.9692 9.7563C52.8906 9.45675 52.7333 9.15721 52.576 8.85766C52.4973 8.633 52.3401 8.48322 52.1828 8.25856C52.1041 8.18367 52.0255 8.0339 51.9468 7.95901C50.7672 6.31149 48.801 5.41284 46.6776 5.41284L25.6005 5.56261L18.6797 47.1999L40.9364 46.9752C42.6666 46.9752 44.3969 46.3761 45.7339 45.2528C46.9922 44.2044 47.9359 42.7066 48.1719 41.0591Z" fill="#C4CEE9"/>
<path opacity="0.3171" d="M48.0146 40.9843L52.9692 12.5271C53.0479 12.1527 53.0479 11.7034 53.0479 11.3289C53.0479 11.1792 53.0479 11.1043 53.0479 10.9545C53.0479 10.655 52.9693 10.3554 52.8906 10.1307C52.8906 9.98096 52.812 9.90608 52.812 9.7563C52.7333 9.45675 52.576 9.15721 52.4188 8.85766C52.3401 8.633 52.1828 8.48322 52.0255 8.25856L51.7896 7.95901C50.6099 6.38638 48.6437 5.41284 46.5989 5.41284L25.6005 5.56261L18.6797 47.125L40.7792 46.9003C43.4531 46.9003 45.8125 45.5524 47.1495 43.3057C47.6214 42.5569 47.9359 41.808 48.0146 40.9843Z" fill="#BFCAE7"/>
<path opacity="0.3415" d="M47.9359 40.8346L52.812 12.3775C52.8906 12.003 52.8906 11.5537 52.8906 11.1793C52.8906 11.0295 52.8906 10.9546 52.8906 10.8048C52.8906 10.5053 52.812 10.2057 52.7333 9.98108C52.7333 9.8313 52.6547 9.75642 52.6547 9.60664C52.576 9.30709 52.4188 9.00755 52.2615 8.708C52.1828 8.48334 52.0255 8.33356 51.8682 8.1089L51.6323 7.80934C50.4526 6.23671 48.4864 5.26318 46.4417 5.26318L25.6005 5.41296L18.7583 46.8256L40.7792 46.6009C42.5094 46.6009 44.1609 46.0018 45.4979 44.8785C46.1271 44.3543 46.6776 43.7552 47.0708 43.0063C47.5427 42.4821 47.7787 41.6584 47.9359 40.8346Z" fill="#BAC6E5"/>
<path opacity="0.3659" d="M47.7787 40.7597L52.6547 12.3775C52.7334 12.003 52.7333 11.5537 52.7333 11.1793C52.7333 11.0295 52.7333 10.9546 52.7333 10.8048C52.7333 10.5053 52.6547 10.2806 52.576 9.98108C52.576 9.83131 52.4974 9.75642 52.4974 9.60664C52.4188 9.30709 52.2615 9.00755 52.1042 8.708C52.0255 8.48334 51.8682 8.33356 51.711 8.1089C51.6323 8.03401 51.5537 7.88423 51.475 7.80934C50.2953 6.23671 48.3292 5.26318 46.2844 5.26318L25.5219 5.41296L18.6797 46.6758L40.5432 46.4511C43.1385 46.4511 45.5766 45.1032 46.8349 42.9314C47.3854 42.4072 47.6214 41.5835 47.7787 40.7597Z" fill="#B5C2E4"/>
<path opacity="0.3902" d="M47.6999 40.6848L52.5759 12.3774C52.6546 12.003 52.6546 11.5536 52.6546 11.1792C52.6546 11.0294 52.6546 10.9545 52.6546 10.8048C52.6546 10.5052 52.5759 10.2806 52.4973 9.98102C52.4973 9.83124 52.4187 9.75636 52.4187 9.60658C52.34 9.30703 52.1827 9.00749 52.0254 8.70794C51.9468 8.48328 51.7895 8.3335 51.7108 8.10884L51.4749 7.80928C50.2952 6.23665 48.3291 5.33801 46.3629 5.33801L25.6791 5.48778L18.9155 46.6757L40.7004 46.526C43.2957 46.526 45.7338 45.178 46.9921 43.0063C47.3067 42.3323 47.5426 41.5085 47.6999 40.6848Z" fill="#B0BDE2"/>
<path opacity="0.4146" d="M47.5426 40.61L52.4187 12.3026C52.4973 11.9281 52.4973 11.4788 52.4973 11.1044C52.4973 10.9546 52.4973 10.8797 52.4973 10.73C52.4973 10.4304 52.4187 10.2057 52.34 9.90619C52.34 9.75641 52.2614 9.68153 52.2614 9.53175C52.1827 9.2322 52.0255 8.93266 51.8682 8.63311C51.7895 8.40845 51.6322 8.25867 51.4749 8.03401C51.3963 7.95912 51.3176 7.80935 51.239 7.73446C50.0593 6.16183 48.1718 5.26318 46.127 5.26318L25.6004 5.41296L18.8369 46.4511L40.4645 46.2265C43.0598 46.2265 45.4192 44.8785 46.6775 42.7068C47.1494 42.1826 47.464 41.4337 47.5426 40.61Z" fill="#ABB9E0"/>
<path opacity="0.439" d="M47.464 40.4602L52.2614 12.2277C52.34 11.8533 52.34 11.4039 52.34 11.0295C52.34 10.8797 52.34 10.8048 52.34 10.6551C52.34 10.3555 52.2614 10.1309 52.1827 9.83131C52.1827 9.68153 52.1041 9.60665 52.1041 9.45687C52.0255 9.15732 51.8682 8.85776 51.7109 8.55822C51.6322 8.33355 51.4749 8.18378 51.3963 8.03401C51.3176 7.95912 51.239 7.80935 51.1603 7.73446C49.9807 6.16183 48.0932 5.26318 46.0484 5.26318L25.6004 5.41296L18.8369 46.3014L40.3859 46.0767C42.1161 46.0767 43.689 45.4776 45.026 44.4292C45.6551 43.905 46.2057 43.3059 46.5989 42.6319C47.0708 42.1077 47.3067 41.2839 47.464 40.4602Z" fill="#A6B5DE"/>
<path opacity="0.4634" d="M47.3067 40.3853L52.1041 12.2277C52.1827 11.8533 52.1827 11.4039 52.1827 11.0295C52.1827 10.8797 52.1827 10.8048 52.1827 10.6551C52.1827 10.3555 52.1041 10.1309 52.0254 9.83131C52.0254 9.68153 51.9468 9.60665 51.9468 9.45687C51.8681 9.15732 51.7108 8.85776 51.5535 8.55822C51.4749 8.33355 51.3176 8.18378 51.239 8.03401C51.1603 7.88423 51.0816 7.80935 51.003 7.73446C49.8233 6.16183 47.9358 5.26318 45.9697 5.26318L25.6004 5.41296L18.9155 46.2265L40.3858 46.0767C42.9811 46.0767 45.2619 44.7287 46.5202 42.6319C46.9135 41.9579 47.228 41.209 47.3067 40.3853Z" fill="#A1B1DC"/>
<path opacity="0.4878" d="M47.228 40.3104L52.0254 12.2277C52.1041 11.8533 52.1041 11.4039 52.1041 11.0295C52.1041 10.8797 52.1041 10.8048 52.1041 10.6551C52.1041 10.3555 52.0254 10.1309 51.9468 9.83131C51.9468 9.68153 51.8681 9.60665 51.8681 9.45687C51.7108 9.15732 51.6322 8.85776 51.3962 8.55822C51.3176 8.33355 51.1603 8.18378 51.0817 8.03401L50.8458 7.73446C49.6661 6.16183 47.7785 5.26318 45.8124 5.26318L25.6004 5.41296L18.9155 46.0767L40.2285 45.9269C41.8801 45.9269 43.5317 45.3278 44.79 44.2794C45.4192 43.7552 45.9697 43.1561 46.3629 42.4821C46.7562 41.883 47.0707 41.1341 47.228 40.3104Z" fill="#9CADDA"/>
<path opacity="0.5122" d="M47.0707 40.2354L51.8681 12.2276C51.9468 11.8531 51.9468 11.4038 51.9468 11.0294C51.9468 10.9545 51.9468 10.8047 51.9468 10.6549C51.9468 10.3554 51.8681 10.1307 51.7895 9.83119C51.7895 9.68141 51.7108 9.60652 51.7108 9.45675C51.6322 9.1572 51.4749 8.85764 51.3176 8.55809C51.239 8.40832 51.0817 8.18366 51.003 8.03389C50.9244 7.88411 50.8457 7.80923 50.7671 7.73434C49.5874 6.16171 47.6999 5.26307 45.7338 5.33796L25.6004 5.48773L18.9155 46.0766L40.1499 45.8519C43.6103 45.8519 46.5989 43.4555 47.0707 40.2354Z" fill="#97A9D9"/>
<path opacity="0.5366" d="M46.9921 40.0857L51.7108 12.0779C51.7894 11.7034 51.7894 11.329 51.7894 10.8797C51.7894 10.8048 51.7894 10.655 51.7894 10.5052C51.7894 10.2057 51.7108 9.98101 51.6322 9.68147C51.6322 9.60658 51.5535 9.4568 51.5535 9.30703C51.4749 9.00748 51.3176 8.70793 51.1603 8.40839C51.0816 8.18372 50.9244 8.03395 50.8457 7.88418C50.7671 7.80929 50.6884 7.65952 50.6097 7.58463C49.4301 6.08689 47.6212 5.18823 45.6551 5.18823L25.6004 5.33802L18.9941 45.7771L40.0712 45.6273C41.7228 45.6273 43.3743 45.0282 44.6327 43.9798C45.891 43.1561 46.6775 41.7332 46.9921 40.0857Z" fill="#92A5D7"/>
<path opacity="0.561" d="M46.8347 40.0108L51.5535 12.0779C51.6321 11.7034 51.6321 11.329 51.6321 10.8797C51.6321 10.8048 51.6321 10.655 51.6321 10.5052C51.6321 10.2057 51.5535 9.98102 51.4748 9.68147C51.4748 9.60658 51.3962 9.4568 51.3962 9.30703C51.3175 9.00748 51.1602 8.70793 51.0029 8.40839C50.9243 8.25861 50.767 8.03395 50.6884 7.88418C50.6097 7.7344 50.5311 7.65952 50.4525 7.58463C49.2728 6.08689 47.4639 5.18823 45.4977 5.18823L25.6004 5.33802L18.9941 45.6273L39.9926 45.4776C41.6441 45.4776 43.217 44.8785 44.4754 43.9049C45.1045 43.3807 45.655 42.7816 46.0483 42.1077C46.4415 41.5834 46.7561 40.8346 46.8347 40.0108Z" fill="#8DA1D5"/>
<path opacity="0.5854" d="M46.7561 39.9359L51.4748 12.0779C51.5535 11.7034 51.5535 11.329 51.5535 10.8797C51.5535 10.8048 51.5535 10.655 51.5535 10.5052C51.5535 10.2057 51.4748 9.98101 51.3962 9.68147C51.3962 9.60658 51.3175 9.4568 51.3175 9.30703C51.2389 9.00748 51.0816 8.70793 50.9243 8.40839C50.8457 8.25861 50.6884 8.03395 50.6097 7.88418L50.4525 7.58463C49.2728 6.08689 47.4639 5.18823 45.4977 5.18823L25.679 5.33802L19.0728 45.7022L39.9139 45.5524C41.5655 45.5524 43.1384 44.9534 44.3967 43.9798C45.6551 42.8565 46.5202 41.5085 46.7561 39.9359Z" fill="#889DD3"/>
<path opacity="0.6098" d="M46.5989 39.861L51.3177 12.0779C51.3963 11.7034 51.3963 11.329 51.3963 10.9546C51.3963 10.8797 51.3963 10.7299 51.3963 10.5801C51.3963 10.3555 51.3177 10.0559 51.239 9.83125C51.239 9.68147 51.1604 9.60659 51.1604 9.45681C51.0817 9.15726 50.9244 8.8577 50.7671 8.55815C50.6885 8.40838 50.5312 8.18372 50.4526 8.03395C50.3739 7.95906 50.2953 7.88418 50.2166 7.7344C49.1156 6.23666 47.2281 5.33801 45.3406 5.33801L25.6791 5.48778L19.1515 45.5524L39.914 45.4027C41.5656 45.4027 43.1385 44.8036 44.3968 43.83C45.026 43.3058 45.4979 42.7816 45.8911 42.1077C46.2843 41.3588 46.5203 40.6099 46.5989 39.861Z" fill="#8399D1"/>
<path opacity="0.6341" d="M46.5203 39.7112L51.239 12.0029C51.3176 11.6285 51.3176 11.254 51.3176 10.8796C51.3176 10.8047 51.3176 10.655 51.3176 10.5801C51.3176 10.2805 51.239 10.0559 51.1603 9.7563C51.1603 9.68142 51.0817 9.53165 51.0817 9.45676C51.0031 9.15721 50.8458 8.85766 50.6885 8.633C50.6098 8.48322 50.4525 8.25856 50.3739 8.10879L50.1379 7.80923C49.0369 6.31149 47.228 5.41284 45.2619 5.41284L25.6791 5.56261L19.1515 45.4775L39.7567 45.3277C41.4082 45.3277 42.9812 44.7286 44.2395 43.7551C44.8687 43.2309 45.3406 42.7067 45.7338 42.0327C46.127 41.2838 46.4416 40.535 46.5203 39.7112Z" fill="#7E94CF"/>
<path opacity="0.6585" d="M46.3629 39.6364L51.003 11.9281C51.0816 11.5537 51.0817 11.1792 51.0817 10.8048C51.0817 10.7299 51.0817 10.5801 51.0817 10.5052C51.0817 10.2057 51.003 9.98103 50.9244 9.68148C50.9244 9.6066 50.8457 9.45683 50.8457 9.38194C50.7671 9.08239 50.6098 8.78284 50.4525 8.55817C50.3739 8.4084 50.2166 8.18374 50.1379 8.03397C50.0593 7.95908 49.9806 7.8842 49.9806 7.73442C48.8796 6.23668 47.0707 5.33802 45.1045 5.41291L25.6004 5.56268L19.0728 45.4027L39.5994 45.2529C41.2509 45.2529 42.7452 44.6538 44.0035 43.6803C44.6327 43.1561 45.1045 42.6319 45.4978 41.9579C45.9697 41.1341 46.2843 40.3853 46.3629 39.6364Z" fill="#7990CE"/>
<path opacity="0.6829" d="M46.2843 39.5615L50.9244 11.9281C51.0031 11.5537 51.003 11.1792 51.003 10.8048V10.5052C51.003 10.2806 50.9244 9.98102 50.8458 9.75636C50.8458 9.68147 50.7671 9.5317 50.7671 9.45682C50.6885 9.15727 50.5312 8.85772 50.3739 8.63305C50.2952 8.48328 50.138 8.25862 50.0593 8.10885L49.902 7.80929C48.801 6.31155 46.9921 5.48779 45.1046 5.48779L25.7577 5.63757L19.3087 45.3278L39.7567 45.178C41.3296 45.178 42.9025 44.5789 44.1609 43.6054C44.7901 43.0812 45.2619 42.557 45.6551 41.883C45.8911 41.0592 46.2056 40.3103 46.2843 39.5615Z" fill="#748CCC"/>
<path opacity="0.7073" d="M46.1271 39.4866L50.7672 11.9281C50.8458 11.5537 50.8458 11.1792 50.8458 10.8048V10.5052C50.8458 10.2806 50.7672 9.98103 50.6885 9.75636C50.6885 9.68148 50.6098 9.53171 50.6098 9.45682C50.5312 9.15727 50.3739 8.85772 50.2166 8.63306C50.138 8.48328 49.9807 8.25862 49.9021 8.10885L49.7448 7.80929C48.6437 6.31155 46.8349 5.48779 44.9474 5.48779L25.6792 5.63757L19.2302 45.178L39.5208 45.0283C41.0937 45.0283 42.6666 44.504 43.8463 43.4556C44.4755 42.9314 44.9474 42.4072 45.3406 41.7332C45.8125 40.9844 46.0484 40.2355 46.1271 39.4866Z" fill="#6F88CA"/>
<path opacity="0.7317" d="M46.0485 39.3368L50.6886 11.8531C50.7672 11.4787 50.7672 11.1043 50.7672 10.7298V10.4303C50.7672 10.2056 50.6886 9.90607 50.6099 9.68141C50.6099 9.60652 50.5313 9.45675 50.5313 9.38187C50.4526 9.08232 50.2953 8.78276 50.1381 8.5581C50.0594 8.40833 49.9021 8.18367 49.8235 8.03389L49.6662 7.73435C48.5652 6.23661 46.7563 5.41284 44.8688 5.41284L25.6792 5.56261L19.2302 44.9533L39.4422 44.8035C41.0151 44.8035 42.5881 44.2044 43.7678 43.2309C44.3969 42.7816 44.8688 42.1825 45.262 41.5085C45.6552 40.8345 45.8912 40.0856 46.0485 39.3368Z" fill="#6A84C8"/>
<path opacity="0.7561" d="M45.891 39.2619L50.5311 11.7783C50.6098 11.4039 50.6097 11.0294 50.6097 10.655C50.6097 10.5801 50.6097 10.4303 50.6097 10.3555C50.6097 10.1308 50.5311 9.83124 50.4525 9.60658C50.4525 9.53169 50.3738 9.38191 50.3738 9.30703C50.2952 9.00748 50.1379 8.70793 49.9806 8.48327C49.9019 8.3335 49.7447 8.10884 49.666 7.95906L49.5087 7.65951C48.4077 6.23665 46.6775 5.33801 44.79 5.33801L25.7578 5.48778L19.3875 44.8036L39.4421 44.6538C42.6665 44.6538 45.4191 42.4072 45.891 39.2619Z" fill="#6680C6"/>
<path opacity="0.7805" d="M45.8124 39.187L50.3738 11.7783C50.4525 11.4039 50.4525 11.0294 50.4525 10.655C50.4525 10.5801 50.4525 10.4303 50.4525 10.3555C50.4525 10.1308 50.3739 9.83124 50.2952 9.60658C50.2952 9.53169 50.2165 9.38191 50.2165 9.30703C50.1379 9.00748 49.9806 8.70793 49.8233 8.48327C49.7447 8.3335 49.5874 8.10884 49.5088 7.95906C49.4301 7.80929 49.3515 7.80928 49.3515 7.65951C48.2504 6.23665 46.5202 5.33801 44.6327 5.33801L25.679 5.48778L19.3087 44.6538L39.2848 44.504C42.5879 44.504 45.3405 42.2574 45.8124 39.187Z" fill="#617CC4"/>
<path opacity="0.8049" d="M45.7338 39.1121L50.2952 11.7783C50.3739 11.4038 50.3738 11.0294 50.3738 10.6549C50.3738 10.5801 50.3738 10.4303 50.3738 10.3554C50.3738 10.1307 50.2952 9.83119 50.2165 9.60653C50.2165 9.53164 50.1379 9.38186 50.1379 9.30697C50.0593 9.00743 49.902 8.70788 49.7447 8.48322C49.666 8.33345 49.5087 8.18368 49.4301 7.95901C49.3514 7.88413 49.2728 7.80923 49.2728 7.65946C48.1718 6.2366 46.4416 5.41284 44.5541 5.41284L25.679 5.56261L19.3087 44.5789L39.1275 44.4291C40.7004 44.4291 42.1947 43.9049 43.3744 42.9313C43.9249 42.482 44.4754 41.8829 44.79 41.2838C45.3405 40.535 45.5765 39.861 45.7338 39.1121Z" fill="#5C78C3"/>
<path opacity="0.8293" d="M45.5765 38.9624L50.1379 11.7034C50.2166 11.329 50.2166 10.9546 50.2166 10.5801C50.2166 10.5052 50.2166 10.3554 50.2166 10.2806C50.2166 10.0559 50.1379 9.75635 50.0593 9.53169C50.0593 9.4568 49.9806 9.30703 49.9806 9.23215C49.902 8.9326 49.7447 8.70793 49.5874 8.40838C49.5088 8.25861 49.3515 8.10883 49.2728 7.88417L49.1155 7.58463C48.0145 6.16177 46.2843 5.33801 44.4754 5.33801L25.7577 5.48778L19.4661 44.4291L39.2062 44.2794C40.7791 44.2794 42.2733 43.7551 43.453 42.7816C44.5541 41.8081 45.3405 40.535 45.5765 38.9624Z" fill="#5774C1"/>
<path opacity="0.8537" d="M45.4978 38.8875L50.0593 11.6285C50.138 11.2541 50.1379 10.8797 50.1379 10.5801C50.1379 10.5052 50.1379 10.3554 50.1379 10.2806C50.1379 10.0559 50.0593 9.75635 49.9806 9.53169C49.9806 9.4568 49.902 9.30703 49.902 9.23215C49.8234 8.9326 49.6661 8.70793 49.5088 8.40838C49.4301 8.25861 49.2728 8.03395 49.1942 7.88417L49.0369 7.58463C47.9358 6.16177 46.2057 5.33801 44.3968 5.33801L25.7577 5.48778L19.4661 44.2794L39.1275 44.1296C41.4869 44.1296 43.6103 42.9314 44.79 40.9843C45.1046 40.3103 45.3405 39.6363 45.4978 38.8875Z" fill="#5270BF"/>
<path opacity="0.878" d="M45.3405 38.8125L49.8233 11.6285C49.9019 11.254 49.902 10.8796 49.902 10.5801C49.902 10.5052 49.902 10.3554 49.902 10.2805C49.902 10.0558 49.8233 9.7563 49.7447 9.53164C49.7447 9.45675 49.666 9.30698 49.666 9.23209C49.5874 8.93255 49.4301 8.70788 49.2728 8.40833C49.1942 8.25856 49.0369 8.10878 48.9582 7.88412C48.8796 7.73435 48.8796 7.73435 48.8009 7.65946C47.6999 6.2366 46.0483 5.41284 44.1609 5.41284L25.6791 5.56261L19.3875 44.2044L38.8916 44.0546C41.251 44.0546 43.3744 42.8565 44.5541 40.9094C44.9473 40.2354 45.1832 39.5614 45.3405 38.8125Z" fill="#4D6BBD"/>
<path opacity="0.9024" d="M45.2619 38.7377L49.7447 11.6285C49.8233 11.2541 49.8233 10.8797 49.8233 10.5801C49.8233 10.5052 49.8233 10.3554 49.8233 10.2806C49.8233 10.0559 49.7447 9.75635 49.666 9.53169C49.666 9.4568 49.5874 9.30703 49.5874 9.23215C49.5087 8.9326 49.3514 8.70793 49.1941 8.40838C49.1155 8.25861 49.0369 8.10883 48.8796 7.88417L48.7223 7.58463C47.6999 6.16177 45.9697 5.33801 44.1608 5.33801L25.7577 5.48778L19.5447 44.0547L38.9702 43.9049C42.0374 43.83 44.7113 41.6583 45.2619 38.7377Z" fill="#4867BB"/>
<path opacity="0.9268" d="M45.1046 38.5879L49.5874 11.5536C49.666 11.1791 49.6661 10.8047 49.6661 10.5052C49.6661 10.4303 49.6661 10.2805 49.6661 10.2056C49.6661 9.98096 49.5874 9.68141 49.5088 9.45675C49.5088 9.38186 49.4301 9.23208 49.4301 9.15719C49.3515 8.85764 49.1942 8.63299 49.1155 8.33344C49.0369 8.18367 48.8796 8.03388 48.8009 7.80922C48.7223 7.73433 48.7223 7.65945 48.6436 7.50968C47.6212 6.08682 45.891 5.26307 44.0822 5.33795L25.7577 5.48773L19.5447 43.9048L38.8129 43.7551C41.9588 43.6802 44.5541 41.5085 45.1046 38.5879Z" fill="#4363B9"/>
<path opacity="0.9512" d="M45.0259 38.513L49.5087 11.5536C49.5874 11.1792 49.5873 10.8796 49.5873 10.5052V10.2056C49.5873 9.98097 49.5087 9.68142 49.43 9.45676C49.43 9.38187 49.3514 9.23209 49.3514 9.1572C49.2728 8.85765 49.1155 8.633 49.0368 8.33345C48.9582 8.18367 48.8795 8.0339 48.7223 7.88412C48.6436 7.80923 48.6436 7.73435 48.565 7.58458C47.5426 6.16172 45.8124 5.41284 44.0035 5.41284L25.8363 5.56261L19.6233 43.83L38.8129 43.6802C40.3071 43.6802 41.8014 43.156 42.9024 42.1824C43.453 41.7331 43.9248 41.2089 44.3181 40.5349C44.6326 39.9358 44.8686 39.2618 45.0259 38.513Z" fill="#3E5FB8"/>
<path opacity="0.9756" d="M44.8687 38.4381L49.3515 11.4787C49.4301 11.1043 49.4301 10.8047 49.4301 10.4303V10.1307C49.4301 9.90608 49.3515 9.60653 49.2729 9.38187C49.2729 9.30698 49.1942 9.15721 49.1942 9.08232C49.1155 8.78277 48.9583 8.55811 48.8796 8.25856C48.801 8.10878 48.7223 7.95901 48.565 7.80923C48.4864 7.73434 48.4864 7.65947 48.4077 7.58458C47.3853 6.23661 45.6551 5.41284 43.9249 5.41284L25.8364 5.56261L19.702 43.7551L38.7343 43.6053C41.015 43.6053 43.1385 42.4071 44.2395 40.535C44.4755 39.7861 44.79 39.1121 44.8687 38.4381Z" fill="#395BB6"/>
<path d="M44.79 38.3632L49.1942 11.4787C49.2728 11.1043 49.2728 10.8047 49.2728 10.4303V10.1307C49.2728 9.90608 49.1942 9.60653 49.1155 9.38186C49.1155 9.30698 49.0368 9.15721 49.0368 9.08232C48.9582 8.78277 48.8009 8.55811 48.7223 8.25856C48.6436 8.10878 48.565 7.959 48.4077 7.80923C48.329 7.73434 48.329 7.65946 48.2504 7.58458C47.228 6.23661 45.5765 5.41284 43.7676 5.41284L25.7577 5.56261L19.6233 43.6053L38.5769 43.4555C41.6441 43.3058 44.2395 41.2089 44.79 38.3632Z" fill="#3457B4"/>
<path d="M37.1615 44.1296L7.59062 44.4292C3.81562 44.4292 0.6698 41.5835 0.6698 37.9889C0.6698 37.6145 0.669805 37.24 0.74845 36.8656L5.86043 7.5847C6.4896 3.99012 9.79271 1.29417 13.5677 1.29417L43.1385 0.994629C46.9135 0.994629 50.0594 3.84033 50.0594 7.43492C50.0594 7.80936 50.0594 8.1838 49.9807 8.63312L44.8687 37.8391C44.2396 41.4337 41.0151 44.1296 37.1615 44.1296Z" fill="url(#paint0_linear)"/>
<path d="M46.599 1.89331C47.3068 3.16639 47.6214 4.66414 47.3854 6.087L42.2735 35.3679C41.6443 38.9625 38.3412 41.6584 34.5662 41.6584L4.99533 41.8831C3.81564 41.8831 2.63595 41.5835 1.53491 40.9845C2.7146 43.0813 5.07396 44.4293 7.59063 44.3544L37.1615 44.2046C41.0151 44.2046 44.2396 41.5087 44.8688 37.9141L49.9807 8.70805C50.5313 5.93723 49.1157 3.24128 46.599 1.89331Z" fill="#5708D3"/>
<path d="M15.2193 23.3859C16.3203 23.3859 17.4213 22.8617 18.1291 22.1128L19.3088 23.5356C18.2078 24.7338 16.6349 25.4078 14.9833 25.4078C13.6463 25.4827 12.3094 24.9585 11.4443 23.985C10.5792 23.0114 10.2646 21.6635 10.5792 20.3904C10.8151 18.9675 11.6016 17.6945 12.7813 16.7209C13.8823 15.7474 15.2979 15.2232 16.7922 15.2232C18.2865 15.1483 19.7807 15.8223 20.6458 17.0205L18.9943 18.5931C18.5224 17.7693 17.5786 17.32 16.5562 17.32C14.7474 17.32 13.2531 18.5931 13.0172 20.3155C12.7812 21.0644 13.0172 21.8881 13.4891 22.4872C13.8036 23.0863 14.5115 23.3859 15.2193 23.3859Z" fill="white"/>
<path d="M24.4995 17.3949C24.2636 17.5447 24.1063 17.7694 24.0276 18.0689C23.949 18.2936 24.1063 18.5931 24.3422 18.7429C24.8928 19.0425 25.4433 19.1922 26.0724 19.342C26.8589 19.4918 27.5667 19.8662 28.1172 20.3155C28.5891 20.8398 28.7464 21.5886 28.5891 22.3375C28.4318 23.1613 27.9599 23.985 27.1735 24.5092C26.387 25.1083 25.3646 25.333 24.3422 25.333C22.848 25.4079 21.3537 24.7339 20.3313 23.6855L21.9042 22.1128C22.612 22.9366 23.5558 23.3859 24.6568 23.4608C25.0501 23.4608 25.3646 23.3859 25.6792 23.1613C25.9152 23.0115 26.0725 22.7119 26.1511 22.4873C26.2297 22.2626 26.1511 21.9631 25.9152 21.8133C25.5219 21.5886 25.05 21.364 24.4995 21.2891C23.6344 21.1393 22.848 20.7649 22.1401 20.2407C21.6683 19.7164 21.511 18.8927 21.6683 18.2187C21.8256 17.3201 22.2974 16.5712 23.0839 16.047C23.8704 15.5228 24.8141 15.2981 25.7579 15.2981C26.387 15.2981 27.0948 15.373 27.724 15.5977C28.3532 15.8223 28.8251 16.1219 29.2969 16.4963L27.8813 18.0689C27.1735 17.4698 26.3084 17.0954 25.3646 17.0954C25.1287 17.1703 24.8141 17.2452 24.4995 17.3949Z" fill="white"/>
<path d="M33.701 17.32C33.465 17.4698 33.3077 17.7693 33.2291 17.994C33.1505 18.2186 33.3077 18.5182 33.5437 18.668C34.0942 18.9675 34.6447 19.1173 35.2739 19.2671C36.0604 19.4168 36.7682 19.7913 37.3187 20.3155C37.7906 20.8397 37.9479 21.5886 37.7906 22.2625C37.6333 23.0863 37.1614 23.9101 36.375 24.4343C35.5885 25.0334 34.5661 25.258 33.5437 25.258C32.0494 25.3329 30.5551 24.6589 29.5327 23.6105L31.1056 22.0379C31.8135 22.8616 32.7572 23.311 33.8583 23.3859C34.2515 23.3859 34.5661 23.311 34.8807 23.0863C35.1166 22.9365 35.2739 22.637 35.3526 22.4123C35.4312 22.1877 35.3525 21.8881 35.1166 21.7383C34.7234 21.5137 34.2515 21.289 33.701 21.2141C32.8359 21.0644 32.0494 20.6899 31.3416 20.1657C30.8697 19.6415 30.6338 18.8177 30.8697 18.1437C31.027 17.2451 31.4989 16.4962 32.2853 15.972C33.0718 15.4478 34.0156 15.2231 34.9593 15.2231C35.5885 15.2231 36.2963 15.298 36.9255 15.5227C37.5547 15.7474 38.0265 16.0469 38.4984 16.4213L37.0828 17.994C36.3749 17.3949 35.5099 17.0204 34.5661 17.0204C34.2515 17.0953 33.9369 17.1702 33.701 17.32Z" fill="white"/>
<defs>
<linearGradient id="paint0_linear" x1="0.643768" y1="22.7082" x2="50.1221" y2="22.7082" gradientUnits="userSpaceOnUse">
<stop stop-color="#FA2A77"/>
<stop offset="0.03" stop-color="#ED2A7C"/>
<stop offset="0.15" stop-color="#C12C8D"/>
<stop offset="0.27" stop-color="#9C2D9B"/>
<stop offset="0.39" stop-color="#7D2EA7"/>
<stop offset="0.52" stop-color="#652FB0"/>
<stop offset="0.66" stop-color="#5430B7"/>
<stop offset="0.81" stop-color="#4A30BB"/>
<stop offset="1" stop-color="#4730BC"/>
</linearGradient>
</defs>
</svg>
