<svg width="544" height="406" viewBox="0 0 544 406" fill="none" xmlns="http://www.w3.org/2000/svg">
<path d="M46.775 131.693H109.928L159.789 284.313H74.537L46.775 131.693Z" fill="#958BF6"/>
<path d="M81.3005 293.599L64.7849 405.48L70.6047 405.63L101.277 290.079H81.6151L81.3005 293.599Z" fill="#5708D3"/>
<path d="M202.966 293.599L219.481 405.48L213.662 405.63L182.99 290.079H202.651L202.966 293.599Z" fill="#5708D3"/>
<path d="M208.078 277.049H123.14C99.625 277.049 79.1771 261.697 73.7505 239.905L46.775 131.693H34.4276L63.5266 273.454C65.8859 285.137 76.6604 293.524 89.1651 293.524H216.571V284.987C216.571 280.643 212.796 277.049 208.078 277.049Z" fill="#E1DCFD"/>
<path d="M273.118 377.997L255.973 382.939L254.243 377.323C254.243 377.323 256.838 369.085 247.322 355.456C244.805 351.936 264.467 350.513 264.467 350.513C264.467 350.513 263.916 363.618 274.533 368.486C276.735 369.609 273.118 377.997 273.118 377.997Z" fill="white"/>
<path d="M272.646 365.715L246.064 245.147C244.648 239.455 239.536 235.262 233.402 234.887L146.341 226.65L105.681 261.622L217.201 279.969C217.201 279.969 214.527 300.638 228.211 328.197C232.93 337.782 243.232 352.161 251.018 372.305L260.22 369.46L272.646 365.715Z" fill="#120F30"/>
<path d="M197.146 390.952L180.001 385.935L178.585 380.842C178.585 380.842 186.135 377.098 188.809 358.526C189.439 354.332 205.954 363.543 205.954 363.543C205.954 363.543 199.584 371.107 201.55 380.842C202.179 383.538 197.146 390.952 197.146 390.952Z" fill="white"/>
<path d="M176.777 380.842L171.035 394.697V405.63H241.423V402.635C241.423 399.939 239.457 397.542 236.705 396.943L225.38 394.397L201.707 380.917H200.134L199.505 381.741C198.09 383.688 195.809 384.886 193.292 384.886H185.27C182.439 384.886 179.844 383.314 178.585 380.917L176.777 380.842Z" fill="#2BC5F5"/>
<path d="M171.035 399.789V405.63H241.423V402.635C241.423 401.661 241.187 400.688 240.637 399.864L171.035 399.789Z" fill="#5708D3"/>
<path d="M251.883 378.371L252.67 393.199L257.389 403.159L322.822 376.125L321.485 373.354C320.305 370.882 317.474 369.534 314.721 370.059L303.318 372.156L274.455 368.486L273.118 369.085L272.882 371.407C272.724 373.129 271.623 374.552 269.972 375.226L260.298 379.195C258.018 380.094 255.422 379.27 254.164 377.323L251.883 378.371Z" fill="#2BC5F5"/>
<path d="M254.872 397.842L257.389 403.159L322.822 376.125L321.485 373.354C321.092 372.455 320.384 371.706 319.597 371.107L254.872 397.842Z" fill="#5708D3"/>
<path d="M226.481 235.561H145.869L146.419 226.65H75.9526V246.645C75.9526 263.944 90.6594 277.947 108.827 277.947H212.718C202.494 289.555 192.27 303.035 191.483 317.113C189.753 349.315 183.383 368.636 183.383 368.636L205.01 374.702L249.76 268.212C254.95 256.005 248.659 242.076 235.84 237.209C232.851 236.16 229.705 235.561 226.481 235.561Z" fill="#1A1442"/>
<path d="M136.824 110.649L153.419 114.544C160.104 116.116 166.081 119.711 170.564 124.728L190.068 148.318L179.372 171.608L162.62 160.075L158.767 170.484L156.25 188.682C154.598 200.364 154.284 212.196 155.228 223.954V230.319C155.228 230.319 88.5359 248.517 71.2338 230.918L77.8401 147.868L113.388 110.125L136.824 110.649Z" fill="#5708D3"/>
<path d="M103.715 191.902C104.344 183.215 104.422 174.528 100.175 166.44C98.4453 163.07 96.0859 160 95.0635 156.405C94.277 153.784 94.1984 151.014 93.5692 148.318C92.94 145.622 91.6817 142.926 89.165 141.503C86.2551 139.855 83.7385 141.128 81.851 143.15C81.2218 143.824 77.84 146.97 77.7614 147.943C77.6828 148.542 71.1552 230.993 71.1552 230.993C77.84 237.808 92.075 239.231 106.86 238.407C105.287 225.227 102.22 212.122 103.164 198.792C103.321 196.47 103.557 194.224 103.715 191.902Z" fill="#524BD7"/>
<path d="M65.9645 171.533L72.8067 195.796C74.1437 199.915 78.3119 202.686 82.7948 202.311L159.081 196.695L200.685 204.034C201.629 204.183 202.494 203.584 202.651 202.686C202.73 202.236 202.572 201.712 202.258 201.338L200.842 199.765L183.147 188.158C182.203 187.559 181.181 187.184 180.08 187.034L158.845 184.338L91.3671 180.594L90.9739 169.885L65.9645 171.533Z" fill="white"/>
<path d="M113.388 107.654L108.04 107.953C97.2656 108.553 86.8057 111.473 77.5255 116.715C64.077 124.204 57.3135 139.181 60.7739 153.635L65.0995 171.608L91.0526 170.11L111.422 127.274C111.5 127.199 120.152 111.398 113.388 107.654Z" fill="#5708D3"/>
<path d="M103.164 84.5137C103.164 84.5137 104.816 102.562 103.636 117.689C103.164 123.38 107.49 128.472 113.467 129.221C119.68 130.045 125.421 125.851 126.207 119.935C126.207 119.86 126.207 119.786 126.207 119.711C127.151 111.773 128.881 101.962 132.027 99.7907L103.164 84.5137Z" fill="white"/>
<path d="M103.164 84.5137C103.164 84.5137 104.816 102.561 103.636 117.689C103.164 123.38 107.49 128.472 113.467 129.221C114.253 129.296 114.961 129.371 115.747 129.296C115.354 128.547 115.118 127.798 114.882 127.05C113.152 121.283 115.747 114.993 114.174 109.152C113.073 105.033 110.006 101.588 108.748 97.5441C107.726 94.249 107.961 90.8042 108.591 87.3594L103.164 84.5137Z" fill="#E9E6E8"/>
<path d="M140.049 65.9417C139.813 64.2942 139.341 62.6466 138.633 61.1489C138.319 60.4 133.836 52.3122 133.6 52.462L132.813 52.9862C126.994 49.0172 118.972 48.5678 112.366 51.2638C105.759 53.9597 100.726 59.4265 97.8947 65.717C93.9624 74.7784 94.513 85.1128 99.4676 93.7248C104.58 102.262 113.545 108.103 123.769 109.526C127.78 110.05 132.342 109.601 135.173 106.83C136.274 105.632 137.139 104.284 137.768 102.861C141.543 95.597 144.689 87.1348 140.285 79.4214C139.498 78.0734 138.633 76.8003 138.476 75.3026C138.319 73.5053 139.42 71.8578 139.892 70.1354C140.285 68.7125 140.285 67.2896 140.049 65.9417Z" fill="white"/>
<path d="M65.1788 171.608L77.6048 170.859C77.6048 170.784 77.6048 170.634 77.5261 170.559C76.1105 160.524 69.7402 151.538 69.0324 141.503C68.4032 133.041 71.8636 125.103 76.1892 117.539C63.6058 125.327 57.4715 139.706 60.8532 153.635L65.1788 171.608Z" fill="#524BD7"/>
<g opacity="0.4">
<path opacity="0.4" d="M159.238 196.695L200.449 203.959C200.37 203.06 200.056 202.162 199.505 201.413C197.303 198.417 192.82 198.417 189.045 198.417C183.855 198.342 178.743 197.519 173.788 196.171C168.755 194.748 163.8 192.801 158.688 191.752C151.61 190.329 144.374 190.779 137.218 191.228L107.961 193.025C102.692 193.325 97.4229 193.699 92.3109 192.501C87.1989 191.378 82.2442 188.532 79.9635 184.039C77.9187 179.995 78.2333 175.277 77.6041 170.784L66.0432 171.458L72.8854 195.721C74.2224 199.84 78.3906 202.611 82.8734 202.236L159.238 196.695Z" fill="#E9E6E8"/>
</g>
<g opacity="0.4">
<path opacity="0.4" d="M138.555 75.3026C138.397 73.5053 139.498 71.8578 139.97 70.1354C140.285 68.7875 140.364 67.3646 140.128 65.9417C139.892 64.2942 139.42 62.6467 138.712 61.149C138.397 60.4001 133.915 52.3123 133.679 52.462L132.892 52.9863C129.904 50.9643 126.443 49.841 122.747 49.6163L114.41 61.4485C114.804 64.444 117.635 66.3911 120.387 67.5144C123.927 69.0121 127.466 70.3601 130.926 72.1574C131.87 72.5318 132.656 73.1309 133.364 73.8798C133.993 74.7784 134.386 75.8269 134.622 76.8753C135.094 78.2232 135.802 79.4214 136.746 80.4699C137.847 81.7429 139.341 83.2407 138.555 84.7384C138.161 85.3375 137.611 85.8617 136.982 86.3111C135.016 88.1084 135.094 91.029 135.566 93.5002C136.038 95.8966 136.667 99.641 138.397 101.438C142.723 95.5971 143.903 85.712 140.364 79.3466C139.577 78.0735 138.633 76.8004 138.555 75.3026Z" fill="#E9E6E8"/>
</g>
<path d="M149.958 52.6867C146.812 47.7441 139.42 44.3742 134.308 42.8016C132.342 42.2025 130.297 41.7532 128.252 41.3787C124.241 40.7047 120.23 40.3303 116.219 40.2554C110.793 40.1056 104.737 40.4801 101.198 44.3742C99.7036 46.0217 98.5239 44.5989 96.4791 44.7486C94.6703 44.9733 93.0187 45.7971 91.7604 47.0701C89.7942 49.167 88.9291 51.9378 88.2213 54.7086C86.1765 62.9462 85.1541 71.6331 86.5698 80.0205C87.5135 86.0115 89.8729 91.7029 93.412 96.7203C95.2208 99.1916 101.67 107.579 105.681 103.46C107.175 101.962 106.153 99.5661 105.209 97.619C103.164 93.3504 101.512 88.2581 102.771 83.6151C102.928 82.7913 103.243 82.1174 103.793 81.4434C104.58 80.7694 105.681 80.4698 106.703 80.7694C107.725 81.0689 108.669 81.5182 109.377 82.2671C111.343 83.8397 112.602 86.0864 112.995 88.4828C113.939 95.2975 103.793 102.412 112.837 107.504C116.848 109.751 123.455 110.724 128.016 110.649C132.656 110.574 139.577 109.975 143.037 106.531C146.734 102.786 145.79 94.4737 144.453 89.9056C144.374 89.4563 144.138 89.007 143.903 88.6325C143.352 87.8837 142.644 87.3594 141.7 87.1348C134.308 84.6635 131.948 94.4737 125.106 93.5002C121.803 93.0509 119.837 89.007 118.185 86.6106C115.905 83.2407 113.781 79.721 112.523 75.8268C111.5 72.5318 111.343 68.5628 113.86 66.1664C118.736 61.5234 125.893 67.5143 131.162 68.6377C135.094 69.6112 139.184 69.3865 142.959 68.1134C146.655 66.6906 149.88 63.77 150.823 60.1005C151.846 57.4795 151.453 54.8584 149.958 52.6867Z" fill="#1A1442"/>
<path d="M75.4021 211.597L39.3823 405.63H45.5953L96.7151 210.249L75.4021 211.597Z" fill="#958BF6"/>
<path d="M454.239 211.597L490.259 405.63H483.967L432.926 210.249L454.239 211.597Z" fill="#958BF6"/>
<path d="M529.189 222.606H0.688538V231.817H529.189V222.606Z" fill="#E9E6E8"/>
<path d="M0.688538 222.606L40.4047 202.536H543.581L529.424 222.606H0.688538Z" fill="white"/>
<path d="M529.267 231.817L543.581 212.571V202.536L529.424 222.606L529.267 231.817Z" fill="#E9E6E8"/>
<path d="M190.068 148.318L201.786 161.947L254.872 193.325L270.916 196.171L280.904 202.761L258.726 203.285C256.681 203.36 255.108 204.932 255.186 206.879C255.186 206.954 255.186 207.029 255.186 207.029L255.344 208.901L256.681 209.426C258.883 210.324 260.377 212.346 260.377 214.593V216.39L253.22 213.619C251.569 213.02 250.389 211.672 249.917 210.1L247.165 200.739L190.146 181.268L179.451 171.533L190.068 148.318Z" fill="white"/>
<g opacity="0.4">
<path opacity="0.4" d="M249.681 206.505C249.367 205.082 249.209 203.584 249.288 202.087C249.288 200.664 248.973 199.166 248.266 197.893C247.086 195.871 244.019 194.373 242.053 193.175C239.3 191.453 236.311 189.955 233.166 188.832C225.852 186.211 218.931 182.541 211.223 180.894C209.021 180.444 206.741 180.145 204.538 179.621C202.494 179.171 200.528 178.497 198.561 177.823C196.831 177.374 195.18 176.625 193.685 175.726C189.36 172.806 188.416 167.189 185.428 162.996C185.034 162.396 184.562 161.872 184.091 161.273L179.372 171.608L190.068 181.343L247.007 200.814L249.76 210.175C250.232 211.747 251.411 213.095 253.063 213.694L260.22 216.465V214.668C260.22 214.368 260.22 214.144 260.141 213.844C258.411 213.02 256.445 212.346 254.715 211.522C252.512 210.399 250.389 208.752 249.681 206.505Z" fill="#E9E6E8"/>
</g>
<g opacity="0.2">
<g opacity="0.4">
<path opacity="0.4" d="M160.654 157.604C159.081 159.101 158.138 161.048 157.98 163.145C157.823 165.242 158.138 167.264 158.767 169.286C158.845 169.511 158.924 169.66 158.924 169.885L162.62 160.075L179.451 171.607L184.169 161.273C183.147 160.15 182.125 159.176 180.945 158.203C179.451 156.855 177.642 155.806 175.754 155.132C172.766 154.159 169.541 154.533 166.474 155.207C164.351 155.657 162.227 156.256 160.654 157.604Z" fill="#6C98E3"/>
</g>
</g>
<path d="M132.893 219.161C128.961 219.161 128.567 217.738 132.028 215.941L152.476 205.606C156.644 203.659 161.284 202.611 165.924 202.386H219.403C223.336 202.386 223.729 203.809 220.19 205.531L199.585 215.866C195.338 217.813 190.776 218.861 186.136 219.011H132.893V219.161Z" fill="#5708D3"/>
<path d="M220.425 202.536C220.11 202.761 219.796 202.91 219.324 203.135L198.719 213.47C194.472 215.417 189.91 216.465 185.27 216.615H131.948C131.555 216.615 131.241 216.615 130.926 216.54C128.724 218.038 129.353 219.086 132.814 219.086H186.135C190.776 218.936 195.416 217.813 199.584 215.941L220.189 205.606C223.414 204.109 223.335 202.761 220.425 202.536Z" fill="#524BD7"/>
<path d="M145.633 211.298C145.476 211.298 145.318 211.223 145.24 211.073C145.161 210.848 145.24 210.624 145.397 210.474L150.745 207.778C150.981 207.703 151.217 207.778 151.374 207.928C151.453 208.152 151.374 208.377 151.217 208.527L145.869 211.223C145.79 211.223 145.711 211.298 145.633 211.298Z" fill="#5708D3"/>
<path d="M419.949 147.344H363.875V209.051H419.949V147.344Z" fill="#5708D3"/>
<path d="M410.198 147.344H361.909V212.346H410.198V147.344Z" fill="#E1DCFD"/>
<path d="M492.304 172.356H285.544C277.915 172.356 270.837 168.762 266.669 162.696L263.916 158.802L295.611 20.7848C296.79 13.6705 303.239 8.42836 310.868 8.42836L519.201 4.15979L527.38 11.4987C530.132 13.97 531.391 17.5646 530.84 21.0843L507.561 160.075C506.303 167.039 499.854 172.356 492.304 172.356Z" fill="#5708D3"/>
<path d="M483.102 164.568H273.668C267.77 164.568 262.894 160 262.894 154.309C262.894 153.784 262.972 153.26 263.051 152.661L286.488 12.9216C287.667 5.8073 294.116 0.565186 301.745 0.565186H511.179C517.077 0.565186 521.953 5.13331 521.953 10.8247C521.953 11.3489 521.875 11.8732 521.796 12.4723L498.359 152.212C497.18 159.326 490.731 164.568 483.102 164.568Z" fill="#524BD7"/>
<path d="M263.051 152.736C262.107 158.278 266.118 163.595 271.938 164.418C272.489 164.493 273.039 164.568 273.668 164.568H483.102C490.731 164.568 497.18 159.326 498.36 152.212L502.056 130.12H266.905L263.051 152.736Z" fill="white"/>
<path d="M439.139 201.637H316.137V212.271H439.139V201.637Z" fill="#958BF6"/>
<path d="M454.082 201.637H439.139V212.271H454.082V201.637Z" fill="#5708D3"/>
<path d="M309.373 24.8286H301.902L302.61 20.4851H310.081L309.373 24.8286Z" fill="#274187"/>
<path d="M307.486 36.2114H299.936L300.722 31.8679H308.194L307.486 36.2114Z" fill="#274187"/>
<path d="M305.52 47.5943H298.048L298.835 43.1759H306.306L305.52 47.5943Z" fill="#274187"/>
<path d="M303.632 58.9023H296.161L296.869 54.5588H304.34L303.632 58.9023Z" fill="#274187"/>
<path d="M301.745 70.2852H294.273L294.981 65.8668H302.453L301.745 70.2852Z" fill="#274187"/>
<path d="M299.857 81.5931H292.307L293.094 77.2496H300.565L299.857 81.5931Z" fill="#274187"/>
<path d="M297.891 92.976H290.42L291.206 88.5576H298.678L297.891 92.976Z" fill="#274187"/>
<path d="M296.004 104.284H288.532L289.24 99.9404H296.79L296.004 104.284Z" fill="#274187"/>
<path d="M294.116 115.667H286.645L287.353 111.248H294.824L294.116 115.667Z" fill="#274187"/>
<path d="M502.292 24.8286H494.82L495.607 20.4851H503.078L502.292 24.8286Z" fill="#274187"/>
<path d="M500.404 36.2114H492.933L493.641 31.8679H501.191L500.404 36.2114Z" fill="#274187"/>
<path d="M498.517 47.5943H491.045L491.753 43.1759H499.224L498.517 47.5943Z" fill="#274187"/>
<path d="M496.629 58.9023H489.158L489.866 54.5588H497.337L496.629 58.9023Z" fill="#274187"/>
<path d="M494.663 70.2852H487.192L487.978 65.8668H495.449L494.663 70.2852Z" fill="#274187"/>
<path d="M492.776 81.5931H485.304L486.012 77.2496H493.562L492.776 81.5931Z" fill="#274187"/>
<path d="M490.888 92.976H483.417L484.125 88.5576H491.596L490.888 92.976Z" fill="#274187"/>
<path d="M489 104.284H481.529L482.237 99.9404H489.708L489 104.284Z" fill="#274187"/>
<path d="M487.113 115.667H479.563L480.349 111.248H487.821L487.113 115.667Z" fill="#274187"/>
<path d="M492.225 24.8286H470.833L471.541 20.4851H492.933L492.225 24.8286Z" fill="#274187"/>
<path d="M490.337 36.2114H468.946L469.654 31.8679H491.045L490.337 36.2114Z" fill="#274187"/>
<path d="M488.371 47.5943H466.98L467.766 43.1759H489.158L488.371 47.5943Z" fill="#274187"/>
<path d="M486.484 58.9023H465.092L465.879 54.5588H487.192L486.484 58.9023Z" fill="#274187"/>
<path d="M484.596 70.2852H463.205L463.912 65.8668H485.304L484.596 70.2852Z" fill="#274187"/>
<path d="M482.709 81.5931H461.317L462.025 77.2496H483.417L482.709 81.5931Z" fill="#274187"/>
<path d="M480.743 92.976H459.351L460.138 88.5576H481.529L480.743 92.976Z" fill="#274187"/>
<path d="M478.855 104.284H457.464L458.25 99.9404H479.563L478.855 104.284Z" fill="#274187"/>
<path d="M476.968 115.667H455.576L456.284 111.248H477.675L476.968 115.667Z" fill="#274187"/>
<path d="M454.003 24.8286H373.706L374.492 20.4851H454.79L454.003 24.8286Z" fill="#274187"/>
<path d="M447.554 36.2114H349.325L350.033 31.8679H448.262L447.554 36.2114Z" fill="#274187"/>
<path d="M446.06 47.5943H355.539L356.246 43.1759H446.768L446.06 47.5943Z" fill="#274187"/>
<path d="M434.735 58.9023H331.709L332.417 54.5588H435.521L434.735 58.9023Z" fill="#274187"/>
<path d="M445.037 70.2852H358.448L359.235 65.8668H445.745L445.037 70.2852Z" fill="#E1DCFD"/>
<path d="M429.466 81.5931H338.472L339.18 77.2496H430.173L429.466 81.5931Z" fill="#274187"/>
<path d="M421.208 92.976H323.53L324.316 88.5576H421.916L421.208 92.976Z" fill="#274187"/>
<path d="M440.712 104.284H353.494L354.201 99.9404H441.42L440.712 104.284Z" fill="#274187"/>
<path d="M435.993 115.667H332.023L332.81 111.248H436.78L435.993 115.667Z" fill="#274187"/>
<path d="M371.425 24.8286H315.665L316.373 20.4851H372.211L371.425 24.8286Z" fill="#274187"/>
<path d="M346.966 36.2114H313.778L314.485 31.8679H347.753L346.966 36.2114Z" fill="#E1DCFD"/>
<path d="M352.943 47.5943H311.89L312.598 43.1759H353.651L352.943 47.5943Z" fill="#274187"/>
<path d="M328.956 58.9023H309.924L310.71 54.5588H329.664L328.956 58.9023Z" fill="#E1DCFD"/>
<path d="M355.774 70.2852H308.036L308.823 65.8668H356.482L355.774 70.2852Z" fill="#274187"/>
<path d="M336.192 81.5931H306.149L306.857 77.2496H336.899L336.192 81.5931Z" fill="#274187"/>
<path d="M320.856 92.976H304.261L304.969 88.5576H321.564L320.856 92.976Z" fill="#274187"/>
<path d="M351.213 104.284H302.295L303.082 99.9404H351.921L351.213 104.284Z" fill="#E1DCFD"/>
<path d="M329.271 115.667H300.408L301.194 111.248H330.057L329.271 115.667Z" fill="#274187"/>
</svg>
