<svg width="51" height="45" viewBox="0 0 51 45" fill="none" xmlns="http://www.w3.org/2000/svg">
<path d="M37.1114 43.8927L7.54058 44.1923C3.76558 44.1923 0.619751 41.3465 0.619751 37.752C0.619751 37.3775 0.619756 37.0031 0.698402 36.6287L5.81038 7.34776C6.43955 3.75317 9.66402 1.05723 13.5177 1.05723L43.0885 0.75769C46.8635 0.75769 50.0093 3.6034 50.0093 7.19798C50.0093 7.57242 50.0094 7.94686 49.9307 8.32129L44.8187 37.6022C44.1896 41.1968 40.8864 43.8927 37.1114 43.8927Z" fill="url(#paint0_linear)"/>
<path d="M46.5489 1.65637C47.2567 2.92945 47.5713 4.42719 47.3354 5.85005L42.2234 35.131C41.5942 38.7255 38.2911 41.4215 34.5161 41.4215L4.94528 41.721C3.76559 41.721 2.58591 41.4215 1.48486 40.8224C2.66455 42.9192 5.02391 44.2672 7.54058 44.1923L37.1114 43.8928C40.9651 43.8179 44.1896 41.1968 44.8187 37.6022L49.9307 8.32133C50.4026 5.70028 49.0656 3.00434 46.5489 1.65637Z" fill="#5708D3"/>
<path d="M18.5291 18.286L18.8437 16.3562H23.4052L22.4614 22.8474C22.3828 23.8123 21.9109 24.7773 21.2817 25.479C20.6526 26.093 19.8661 26.3562 19.0796 26.3562C18.0572 26.3562 17.1135 25.9176 16.563 25.0404L17.8213 23.4615C18.1359 24.0755 18.6864 24.4264 19.3156 24.4264C19.6302 24.4264 19.8661 24.2509 20.102 24.0755C20.338 23.8123 20.4953 23.3737 20.5739 23.0229L21.2817 18.3737L18.5291 18.286Z" fill="white"/>
<path d="M29.1683 18.0884C28.9323 18.2375 28.775 18.5359 28.6964 18.7596C28.6177 18.9834 28.775 19.2817 29.011 19.4309C29.5615 19.7292 30.112 19.8784 30.7412 20.0276C31.5277 20.1767 32.2355 20.5497 32.786 21.0718C33.2579 21.5939 33.4152 22.3397 33.2579 23.011C33.1006 23.8314 32.6287 24.6518 31.8422 25.1739C31.0558 25.7706 30.0334 25.9944 29.011 25.9944C27.5167 26.0689 26.0224 25.3977 25 24.3535L26.5729 22.7872C27.2807 23.6076 28.2245 24.0552 29.3255 24.1297C29.7188 24.1297 30.0334 24.0552 30.348 23.8314C30.5839 23.6822 30.7412 23.3839 30.8198 23.1601C30.8985 22.9364 30.8198 22.638 30.5839 22.4889C30.1907 22.2651 29.7188 22.0414 29.1683 21.9668C28.3032 21.8176 27.5167 21.4447 26.8089 20.9226C26.337 20.4005 26.1011 19.5801 26.337 18.9088C26.4943 18.0138 26.9662 17.2679 27.7526 16.7458C28.5391 16.2238 29.4829 16 30.4266 16C31.0558 16 31.7636 16.0746 32.3928 16.2983C33.0219 16.5221 33.4938 16.8204 33.9657 17.1933L32.5501 18.7596C31.8422 18.163 30.9771 17.79 30.0334 17.79C29.7188 17.8646 29.4042 17.9392 29.1683 18.0884Z" fill="white"/>
<defs>
<linearGradient id="paint0_linear" x1="0.560924" y1="22.4787" x2="50.0354" y2="22.4787" gradientUnits="userSpaceOnUse">
<stop stop-color="#2BC7F2"/>
<stop offset="0.09" stop-color="#30AAE8"/>
<stop offset="0.21" stop-color="#3785DA"/>
<stop offset="0.35" stop-color="#3D66CF"/>
<stop offset="0.49" stop-color="#414EC7"/>
<stop offset="0.64" stop-color="#453DC1"/>
<stop offset="0.8" stop-color="#4633BD"/>
<stop offset="1" stop-color="#4730BC"/>
</linearGradient>
</defs>
</svg>
