<svg width="101" height="109" viewBox="0 0 101 109" fill="none" xmlns="http://www.w3.org/2000/svg">
<path opacity="0.02439" d="M64.4874 64.5206L57.0947 108.479H80.2166C85.8791 108.33 90.6765 104.361 91.6202 99.0436L99.2489 52.1642H79.6661C72.1161 52.1642 65.6671 57.4063 64.4874 64.5206Z" fill="#FAFBFD"/>
<path opacity="0.04878" d="M64.4884 64.4456L57.1743 108.255H80.1389C85.8014 108.105 90.5201 104.211 91.4639 98.8938L99.0139 52.239H79.5097C72.117 52.239 65.7467 57.4062 64.4884 64.4456Z" fill="#F5F7FB"/>
<path opacity="0.073171" d="M64.566 64.4456L57.252 108.105H80.1379C85.7217 107.955 90.4405 104.061 91.4629 98.8189L99.0129 52.239H79.5874C72.0374 52.239 65.7457 57.4062 64.566 64.4456Z" fill="#F0F3FA"/>
<path opacity="0.097561" d="M64.566 64.3708L57.252 107.88H79.9806C85.5645 107.73 90.2046 103.836 91.2269 98.5942L98.6983 52.1642H79.4301C72.0374 52.2391 65.6671 57.4063 64.566 64.3708Z" fill="#EBEFF8"/>
<path opacity="0.122" d="M64.5661 64.2959L57.3307 107.73H79.9806C85.5645 107.581 90.2046 103.687 91.1483 98.5193L98.6197 52.239H79.4301C72.0374 52.3139 65.7458 57.4062 64.5661 64.2959Z" fill="#E6EBF6"/>
<path opacity="0.1463" d="M64.5661 64.296L57.3307 107.581H79.8234C85.3286 107.431 89.9687 103.612 90.9124 98.4445L98.3838 52.3889H79.3515C71.9588 52.314 65.7458 57.4063 64.5661 64.296Z" fill="#E1E6F4"/>
<path opacity="0.1707" d="M64.5661 64.221L57.3307 107.356H79.7447C85.25 107.206 89.8114 103.387 90.7552 98.2198L98.1479 52.314H79.1942C71.9588 52.314 65.7458 57.3314 64.5661 64.221Z" fill="#DCE2F2"/>
<path opacity="0.1951" d="M64.5661 64.221L57.4093 107.206H79.6661C85.0927 107.056 89.7328 103.237 90.6765 98.1449L98.0692 52.3888H79.1942C71.9588 52.3888 65.7458 57.4062 64.5661 64.221Z" fill="#D7DEF0"/>
<path opacity="0.2195" d="M64.5661 64.1461L57.4093 106.982H79.5874C85.014 106.832 89.5754 103.087 90.5192 97.9952L97.9119 52.314H79.1155C71.8801 52.3889 65.7458 57.4063 64.5661 64.1461Z" fill="#D2DAEF"/>
<path opacity="0.2439" d="M64.6448 64.1461L57.488 106.832H79.5089C84.9354 106.682 89.4182 102.938 90.362 97.8453L97.676 52.3888H78.9583C71.8802 52.3888 65.7458 57.3313 64.6448 64.1461Z" fill="#CDD6ED"/>
<path opacity="0.2683" d="M64.6448 64.0712L57.5667 106.607H79.5089C84.8568 106.457 89.4183 102.713 90.2834 97.6956L97.5974 52.3888H78.9583C71.8016 52.3888 65.7458 57.3314 64.6448 64.0712Z" fill="#C9D2EB"/>
<path opacity="0.2927" d="M64.6448 63.9963L57.5667 106.382H79.3516C84.6995 106.233 89.1037 102.488 90.0474 97.5458L97.3615 52.3888H78.9583C71.8016 52.4637 65.7458 57.3314 64.6448 63.9963Z" fill="#C4CEE9"/>
<path opacity="0.3171" d="M64.6448 63.9964L57.5667 106.308H79.1943C84.4635 106.158 88.9464 102.488 89.8901 97.471L97.1255 52.4637H78.801C71.8015 52.4637 65.7458 57.3314 64.6448 63.9964Z" fill="#BFCAE7"/>
<path opacity="0.3415" d="M64.6448 63.9215L57.5667 106.083H79.1156C84.3849 105.933 88.8677 102.264 89.7328 97.3212L96.9683 52.4637H78.7224C71.7229 52.4637 65.7458 57.3314 64.6448 63.9215Z" fill="#BAC6E5"/>
<path opacity="0.3659" d="M64.6447 63.9215L57.6453 105.933H79.0369C84.3062 105.783 88.7103 102.114 89.5754 97.1714L96.8109 52.4637H78.6437C71.7228 52.4637 65.7458 57.3314 64.6447 63.9215Z" fill="#B5C2E4"/>
<path opacity="0.3902" d="M64.6447 63.8466L57.6453 105.709H78.9583C84.1489 105.559 88.5531 101.964 89.4969 97.0216L96.6536 52.4637H78.6437C71.7229 52.5386 65.7458 57.3314 64.6447 63.8466Z" fill="#B0BDE2"/>
<path opacity="0.4146" d="M64.7233 63.8465L57.8025 105.559H78.9582C84.1488 105.409 88.4743 101.814 89.4181 96.9467L96.5749 52.5386H78.6436C71.6441 52.5386 65.7457 57.3314 64.7233 63.8465Z" fill="#ABB9E0"/>
<path opacity="0.439" d="M64.7233 63.7717L57.8025 105.334H78.8796C84.0702 105.184 88.3957 101.59 89.2608 96.7969L96.3389 52.5386H78.4864C71.6442 52.5386 65.7457 57.3313 64.7233 63.7717Z" fill="#A6B5DE"/>
<path opacity="0.4634" d="M64.7233 63.7717L57.8025 105.184H78.7223C83.8342 105.035 88.1597 101.44 89.0248 96.6472L96.103 52.6135H78.4077C71.6441 52.6135 65.8243 57.3314 64.7233 63.7717Z" fill="#A1B1DC"/>
<path opacity="0.4878" d="M64.7234 63.6968L57.8812 105.035H78.7223C83.8343 104.885 88.0812 101.365 89.0249 96.5723L96.103 52.6884H78.4864C71.5656 52.6135 65.8244 57.3314 64.7234 63.6968Z" fill="#9CADDA"/>
<path opacity="0.5122" d="M64.7234 63.6219L57.8812 104.81H78.5651C83.677 104.66 87.9239 101.14 88.789 96.4225L95.8671 52.6884H78.3291C71.5656 52.6135 65.8244 57.3314 64.7234 63.6219Z" fill="#97A9D9"/>
<path opacity="0.5366" d="M64.7234 63.6219L57.8812 104.66H78.4864C83.5198 104.51 87.7666 100.991 88.6317 96.2727L95.6312 52.6884H78.2505C71.5656 52.6884 65.8244 57.3314 64.7234 63.6219Z" fill="#92A5D7"/>
<path opacity="0.561" d="M64.7234 63.547L57.9598 104.435H78.4077C83.4411 104.286 87.6093 100.766 88.4744 96.1229L95.4739 52.6884H78.1718C71.4869 52.6884 65.8244 57.3314 64.7234 63.547Z" fill="#8DA1D5"/>
<path opacity="0.5854" d="M64.802 63.547L58.0385 104.286H78.3291C83.2838 104.136 87.5307 100.691 88.3958 95.9732L95.3953 52.6884H78.1718C71.4869 52.6884 65.8244 57.2565 64.802 63.547Z" fill="#889DD3"/>
<path opacity="0.6098" d="M64.802 63.4721L58.0385 104.061H78.2504C83.2051 103.911 87.3734 100.466 88.2385 95.8234L95.1593 52.6884H78.0145C71.4082 52.6884 65.8244 57.2565 64.802 63.4721Z" fill="#8399D1"/>
<path opacity="0.6341" d="M64.8021 63.4722L58.1172 103.911H78.1719C83.1265 103.762 87.2161 100.317 88.0812 95.7486L95.0021 52.7633H78.0146C71.4083 52.7633 65.8245 57.3314 64.8021 63.4722Z" fill="#7E94CF"/>
<path opacity="0.6585" d="M64.8021 63.3972L58.1172 103.687H78.0932C82.9693 103.537 87.1375 100.167 87.924 95.5239L94.7661 52.6884H77.8573C71.3297 52.7632 65.8245 57.2565 64.8021 63.3972Z" fill="#7990CE"/>
<path opacity="0.6829" d="M64.8021 63.3224L58.1172 103.537H77.936C82.812 103.387 86.9016 100.017 87.7667 95.449L94.6089 52.7633H77.7787C71.3297 52.7633 65.8245 57.2565 64.8021 63.3224Z" fill="#748CCC"/>
<path opacity="0.7073" d="M64.8021 63.3223L58.1172 103.387H77.8573C82.6546 103.237 86.7442 99.8673 87.6093 95.3741L94.4515 52.8381H77.7786C71.3297 52.8381 65.8245 57.2565 64.8021 63.3223Z" fill="#6F88CA"/>
<path opacity="0.7317" d="M64.802 63.2475L58.1958 103.162H77.7786C82.576 103.013 86.5869 99.7175 87.452 95.2243L94.2942 52.8381H77.7C71.251 52.8381 65.8244 57.2565 64.802 63.2475Z" fill="#6A84C8"/>
<path opacity="0.7561" d="M64.8807 63.2475L58.2744 103.013H77.7786C82.576 102.863 86.5869 99.5678 87.3734 95.0745L94.1369 52.8381H77.6213C71.251 52.8381 65.9031 57.2565 64.8807 63.2475Z" fill="#6680C6"/>
<path opacity="0.7805" d="M64.8807 63.1726L58.353 102.788H77.6999C82.4187 102.638 86.4296 99.3431 87.2161 94.9247L93.9796 52.8381H77.5426C71.251 52.913 65.903 57.2565 64.8807 63.1726Z" fill="#617CC4"/>
<path opacity="0.8049" d="M64.8806 63.1726L58.353 102.638H77.6213C82.34 102.488 86.2723 99.1934 87.1374 94.775L93.8223 52.9131H77.464C71.1723 52.9131 65.903 57.2565 64.8806 63.1726Z" fill="#5C78C3"/>
<path opacity="0.8293" d="M64.8806 63.0977L58.353 102.414H77.464C82.1827 102.264 86.115 99.0436 86.9015 94.6253L93.5864 52.9131H77.3853C71.1723 52.9131 65.8244 57.2565 64.8806 63.0977Z" fill="#5774C1"/>
<path opacity="0.8537" d="M64.8806 63.0228L58.4316 102.264H77.3853C82.0254 102.114 85.9577 98.8938 86.7441 94.5503L93.429 52.9879H77.3066C71.1723 52.913 65.903 57.2565 64.8806 63.0228Z" fill="#5270BF"/>
<path opacity="0.878" d="M64.8806 63.0228L58.4316 102.114H77.3067C81.9468 101.964 85.8004 98.744 86.5869 94.4005L93.2718 52.9879H77.3067C71.0937 52.9879 65.903 57.2565 64.8806 63.0228Z" fill="#4D6BBD"/>
<path opacity="0.9024" d="M64.8806 62.9479L58.4316 101.889H77.1494C81.7108 101.739 85.5645 98.5942 86.4296 94.2508L93.0358 52.9879H77.1494C71.0936 52.9879 65.8244 57.1816 64.8806 62.9479Z" fill="#4867BB"/>
<path opacity="0.9268" d="M64.9593 62.9479L58.5104 101.739H77.1494C81.7109 101.59 85.5645 98.4444 86.351 94.1758L92.9572 53.0628H77.1494C71.0151 52.9879 65.9031 57.1816 64.9593 62.9479Z" fill="#4363B9"/>
<path opacity="0.9512" d="M64.9593 62.873L58.589 101.515H77.0707C81.6322 101.365 85.4072 98.2198 86.1937 93.9512L92.7213 52.9879H77.0707C71.015 52.9879 65.9031 57.1816 64.9593 62.873Z" fill="#3E5FB8"/>
<path opacity="0.9756" d="M64.9593 62.8731L58.589 101.365H76.9921C81.475 101.215 85.25 98.0701 86.0364 93.8764L92.564 53.0629H76.9921C71.015 53.0629 65.9031 57.1817 64.9593 62.8731Z" fill="#395BB6"/>
<path d="M64.9593 62.7982L58.589 101.14H76.8348C81.3176 100.991 85.0926 97.9203 85.8791 93.7266L92.4067 53.0629H76.9135C70.9364 53.0629 65.9031 57.1817 64.9593 62.7982Z" fill="#3457B4"/>
<path d="M75.026 102.189H8.6489C3.14369 102.189 -0.631318 97.9203 0.233786 92.7531L13.6822 9.62829C14.7046 4.3113 19.4234 0.342279 25.1645 0.192505H91.5416C97.0468 0.192505 100.822 4.46107 99.9567 9.62829L86.5082 92.7531C85.5645 98.145 80.7671 102.039 75.026 102.189Z" fill="white"/>
<path d="M96.6536 1.69019C97.9906 3.48748 98.4625 5.7341 98.0692 7.83094L84.6208 90.9557C83.5984 96.2727 78.8796 100.242 73.1385 100.392H6.7614C4.95254 100.392 3.14369 99.8673 1.64941 98.8938C3.30098 100.991 5.89629 102.264 8.64889 102.189H75.026C80.6885 102.039 85.4859 98.07 86.5083 92.753L99.9568 9.62823C100.586 6.63274 99.3276 3.48748 96.6536 1.69019Z" fill="#E9E6E8"/>
<path d="M71.1723 32.0944C69.3634 43.1777 58.4317 52.1642 46.7921 52.1642C35.1525 52.1642 27.2093 43.1777 29.0182 32.0944C30.827 21.0111 41.7588 12.0247 53.3984 12.0247C65.0379 12.0247 72.9812 21.0111 71.1723 32.0944Z" fill="#958BF6"/>
<path d="M59.926 30.6716C58.9036 35.9137 54.2635 39.8079 48.601 39.9576C43.253 39.9576 39.5567 35.764 40.3431 30.6716C41.3655 25.4295 46.0057 21.5354 51.5895 21.3856C57.0161 21.3856 60.7124 25.5793 59.926 30.6716Z" fill="#E1DCFD"/>
<path d="M46.8708 52.1642C53.2412 52.0144 59.2969 49.618 63.7797 45.3495C59.3755 42.5787 53.4771 41.0809 46.7135 41.4553C41.6802 41.8298 36.7255 43.1777 32.2427 45.4244C35.6245 49.7678 41.1297 52.314 46.8708 52.1642Z" fill="#E1DCFD"/>
<path d="M71.0151 65.1947H20.4458L20.9177 62.4238H71.4869L71.0151 65.1947Z" fill="#2BC5F5"/>
<path d="M69.5993 73.5071H19.03L19.5019 70.6614H70.0712L69.5993 73.5071Z" fill="#2BC5F5"/>
<path d="M36.6467 81.7446H17.6931L18.165 78.8989H37.1186L36.6467 81.7446Z" fill="#2BC5F5"/>
</svg>
