<svg width="40" height="38" viewBox="0 0 40 38" fill="none" xmlns="http://www.w3.org/2000/svg">
<path d="M39.414 18.7561C36.8187 28.9408 26.1229 37.2533 15.427 37.2533C4.73121 37.2533 -1.87505 29.0157 0.720267 18.7561C3.31558 8.49657 14.0901 0.333862 24.7859 0.333862C35.4817 0.333862 42.0093 8.57146 39.414 18.7561Z" fill="#FF007E"/>
<path d="M32.3359 2.05627C36.4255 5.4262 38.313 10.893 36.7401 17.1086C34.1448 27.2933 23.4489 35.5309 12.7531 35.5309C10.0792 35.5309 7.48389 35.0066 5.12451 33.8085C8.03441 36.0551 11.6521 37.2533 15.4271 37.1784C26.1229 37.1784 36.8974 28.9408 39.4141 18.6812C41.3016 11.3423 38.313 4.97688 32.3359 2.05627Z" fill="#DC2A71"/>
<path d="M15.5844 26.2448L10.4724 19.8794L15.2698 16.21L17.4719 18.9059L27.3813 11.3423L30.2912 14.9369L15.5844 26.2448Z" fill="white"/>
</svg>
