<svg width="203" height="88" viewBox="0 0 203 88" fill="none" xmlns="http://www.w3.org/2000/svg">
<path opacity="0.02439" d="M77.5714 23.3095C75.448 20.988 72.4594 19.715 69.2349 19.715H9.07085C8.83491 20.6885 8.75629 21.7369 8.75629 22.7853V22.8602L0.970337 71.7616C0.970337 74.9817 2.0714 78.127 4.03754 80.7481C4.43077 81.1974 4.74536 81.6467 5.21723 82.096L5.29586 82.1709C5.68909 82.6202 6.16099 82.9947 6.55422 83.3691L6.63285 83.444C7.5766 84.1929 8.59901 84.8669 9.70005 85.466L9.85731 85.5408C10.3292 85.7655 10.8011 85.9902 11.3516 86.1399L11.8235 86.2897C12.2167 86.4395 12.6099 86.5892 13.0818 86.6641L13.6323 86.8139C14.0256 86.8888 14.4974 86.9637 14.8907 87.0386C15.048 87.0386 15.2839 87.1135 15.4412 87.1135C16.0704 87.1884 16.6995 87.1883 17.3287 87.1883H81.8969L89.6828 40.7583C90.312 37.0888 88.975 33.4193 86.1438 30.8732L77.5714 23.3095Z" fill="#FAFBFD"/>
<path opacity="0.04878" d="M77.65 23.3095C75.5266 21.0629 72.538 19.715 69.3922 19.715H9.54277C9.30683 20.6885 9.22817 21.7369 9.22817 22.7105V22.7853L1.44226 71.462C1.44226 74.6822 2.54327 77.8274 4.50942 80.3736C4.90265 80.8229 5.21723 81.2723 5.68911 81.7216L5.76778 81.7965C6.16101 82.2458 6.63287 82.6202 7.02609 82.9947L7.10472 83.0695C8.04847 83.8184 9.07089 84.4924 10.1719 85.0915L10.3292 85.1664C10.8011 85.391 11.2729 85.6157 11.8235 85.7655L12.2954 85.9153C12.6886 86.065 13.0818 86.2148 13.5537 86.2897C13.711 86.3646 13.9469 86.3646 14.1042 86.4395C14.4974 86.5143 14.9693 86.5892 15.3625 86.6641L15.9131 86.739C16.5422 86.8139 17.1714 86.8139 17.7219 86.8139H81.9755L89.7615 40.6085C90.3907 36.939 89.0537 33.2696 86.2224 30.7983L77.65 23.3095Z" fill="#F5F7FB"/>
<path opacity="0.073171" d="M77.6501 23.3095C75.5267 21.0629 72.5381 19.7899 69.3923 19.715H9.77874C9.5428 20.6885 9.46413 21.7369 9.46413 22.7105V22.7853L1.67822 71.2374C1.67822 74.4575 2.77924 77.6028 4.74538 80.149C5.13861 80.5983 5.45319 81.0476 5.92507 81.4969L6.00374 81.5718C6.39697 82.0211 6.79018 82.3956 7.26206 82.77L7.34073 82.8449C8.28448 83.5938 9.30685 84.2677 10.4079 84.792L10.5652 84.8669C11.0371 85.0915 11.5089 85.3162 11.9808 85.466C12.1381 85.5408 12.2954 85.6157 12.4527 85.6157C12.8459 85.7655 13.2392 85.9153 13.711 85.9902L14.2616 86.1399C14.6548 86.2148 15.1266 86.2897 15.5199 86.3646C15.6772 86.3646 15.9131 86.4395 16.0704 86.4395C16.6996 86.5144 17.3287 86.5144 17.8792 86.5144H81.897L89.6043 40.5336C90.2334 36.939 88.8965 33.2696 86.0652 30.7234L77.6501 23.3095Z" fill="#F0F3FA"/>
<path opacity="0.097561" d="M77.65 23.3095C75.6052 21.0629 72.6167 19.7898 69.3922 19.7898H10.0933C9.85736 20.7633 9.77869 21.8117 9.77869 22.7853V22.8602L2.07141 71.0875C2.07141 74.3077 3.17242 77.3781 5.13857 79.9242C5.45315 80.3736 5.84638 80.8229 6.31826 81.2722L6.39693 81.3471C6.79016 81.7964 7.18337 82.1708 7.65525 82.5453H7.73392C8.67767 83.2942 9.70004 83.9681 10.8011 84.4923L10.9584 84.5672C11.4303 84.7919 11.9021 85.0166 12.374 85.1663C12.5313 85.2412 12.6886 85.2412 12.8459 85.3161C13.2391 85.4659 13.6323 85.6157 14.1042 85.6905L14.6547 85.8403C15.048 85.9152 15.5198 85.9901 15.9131 86.065L16.4636 86.1399C17.0928 86.2148 17.7219 86.2148 18.2724 86.2148H81.9755L89.6828 40.4587C90.312 36.8641 88.975 33.1946 86.1438 30.7233L77.65 23.3095Z" fill="#EBEFF8"/>
<path opacity="0.122" d="M77.6501 23.3843C75.6053 21.1377 72.6168 19.8646 69.4709 19.8646H10.4079C10.1719 20.8382 10.0933 21.8866 10.0933 22.8601V22.935L2.38599 70.9377C2.38599 74.083 3.48705 77.2282 5.45319 79.7744C5.84642 80.2237 6.16103 80.673 6.55426 81.1224L6.63288 81.1973C7.02611 81.5717 7.41932 82.021 7.8912 82.3955L7.96987 82.4703C8.91362 83.2192 9.93601 83.8932 10.9584 84.4174L11.1157 84.4923C11.5876 84.717 12.0594 84.9416 12.5313 85.0914L13.0032 85.2412C13.3964 85.3909 13.7896 85.5407 14.1829 85.6156C14.3402 85.6905 14.5761 85.6905 14.7334 85.7654C15.1266 85.8403 15.5199 85.9152 15.9918 85.99C16.149 85.99 16.3849 86.0649 16.5422 86.0649C17.1714 86.1398 17.722 86.1398 18.3511 86.1398H81.7397L89.3683 40.6084C89.9975 37.0138 88.6605 33.3443 85.9079 30.873L77.6501 23.3843Z" fill="#E6EBF6"/>
<path opacity="0.1463" d="M77.65 23.3843C75.6052 21.1377 72.6167 19.8646 69.5495 19.8646H10.7224C10.4865 20.8382 10.4078 21.8866 10.4078 22.8601V22.935L2.77917 70.713C2.77917 73.8583 3.88024 76.9287 5.84638 79.4749C6.16096 79.9242 6.55421 80.3735 6.94744 80.8228L7.02607 80.8977C7.4193 81.2721 7.81251 81.7215 8.28438 82.0959L8.36306 82.1708C9.30681 82.9197 10.3292 83.5936 11.3516 84.1179L11.5089 84.1927C11.9808 84.4174 12.4526 84.6421 12.9245 84.7918L13.3964 84.9416C13.7896 85.0914 14.1828 85.2412 14.576 85.316C14.7333 85.3909 14.9693 85.3909 15.1266 85.4658C15.5198 85.5407 15.9131 85.6156 16.3849 85.6905L16.9354 85.7654C17.5646 85.8403 18.1151 85.8403 18.7443 85.8403H81.8182L89.4469 40.4586C90.076 36.864 88.7391 33.2694 85.9865 30.7982L77.65 23.3843Z" fill="#E1E6F4"/>
<path opacity="0.1707" d="M77.7286 23.3843C75.6838 21.1377 72.6953 19.8646 69.6281 19.8646H11.1156C10.8797 20.8382 10.801 21.8866 10.801 22.8601V22.935L3.17236 70.4884C3.17236 73.6337 4.27344 76.704 6.16094 79.2502C6.47553 79.6995 6.86873 80.1488 7.26195 80.5982L7.34063 80.673C7.73386 81.0475 8.12707 81.4968 8.59894 81.8712L8.67757 81.9461C9.62132 82.695 10.5651 83.369 11.6661 83.8932L11.8234 83.9681C12.2953 84.1927 12.7672 84.4174 13.2391 84.5672L13.7109 84.717C14.1041 84.8667 14.4974 85.0165 14.8906 85.0914L15.4411 85.2412C15.8344 85.3161 16.2276 85.3909 16.6995 85.4658C16.8567 85.4658 17.014 85.5407 17.25 85.5407C17.8791 85.6156 18.4297 85.6156 19.0588 85.6156H81.8968L89.4468 40.4586C90.076 36.9389 88.739 33.2694 85.9864 30.7982L77.7286 23.3843Z" fill="#DCE2F2"/>
<path opacity="0.1951" d="M77.7286 23.4592C75.6838 21.2126 72.7739 20.0144 69.6281 20.0144H11.4302C11.1943 20.9879 11.1157 21.9615 11.1157 22.935V23.0099L3.56567 70.3386C3.56567 73.4839 4.66675 76.4794 6.55425 79.0255C6.86883 79.4749 7.26203 79.9242 7.65526 80.2986L7.73394 80.3735C8.12716 80.7479 8.52037 81.1224 8.99225 81.4968L9.07088 81.5717C10.0146 82.3206 10.9584 82.9946 12.0595 83.5188L12.2167 83.5937C12.6886 83.8183 13.1605 84.043 13.6324 84.1927L14.1042 84.3425C14.4974 84.4923 14.8907 84.5672 15.2839 84.717L15.8344 84.8667C16.2277 84.9416 16.6209 85.0165 17.0927 85.0914L17.6433 85.1663C18.2724 85.2412 18.823 85.2412 19.4521 85.2412H81.9755L89.5255 40.3088C90.1547 36.7891 88.8177 33.1197 86.0651 30.7233L77.7286 23.4592Z" fill="#D7DEF0"/>
<path opacity="0.2195" d="M77.7287 23.4592C75.6839 21.2875 72.774 20.0144 69.7068 20.0144H11.7448C11.5089 20.9879 11.4302 21.9615 11.4302 22.935V23.0099L3.88025 70.114C3.88025 73.2592 4.98128 76.2547 6.86878 78.8009C7.18336 79.2502 7.57661 79.6995 7.96984 80.074L8.04847 80.1488C8.4417 80.5233 8.83496 80.9726 9.30683 81.2722C9.30683 81.2722 9.30683 81.2722 9.30683 81.347C10.2506 82.0959 11.1943 82.7699 12.2954 83.2941L12.4527 83.369C12.9245 83.5937 13.3964 83.8183 13.8683 83.9681L14.3401 84.1179C14.7334 84.2676 15.1266 84.3425 15.5198 84.4923C15.6771 84.5672 15.9131 84.5672 16.0704 84.6421C16.4636 84.717 16.8568 84.7919 17.3287 84.8667C17.486 84.8667 17.6433 84.9416 17.8792 84.9416C18.5084 85.0165 19.0589 85.0165 19.688 85.0165H81.8969L89.3683 40.3088C89.9974 36.7891 88.6604 33.1946 85.9078 30.7233L77.7287 23.4592Z" fill="#D2DAEF"/>
<path opacity="0.2439" d="M77.7286 23.4592C75.6838 21.2875 72.7739 20.0144 69.7067 20.0144H11.9807C11.7448 20.9879 11.6662 21.9615 11.6662 22.935V23.0099L4.19482 69.8893C4.19482 72.9597 5.29586 76.0301 7.18335 78.5013C7.49794 78.9507 7.89114 79.4 8.28437 79.7744L8.36304 79.8493C8.75627 80.2237 9.14948 80.5982 9.62135 80.9726V81.0475C10.5651 81.7964 11.5088 82.4704 12.6099 82.9946L12.7672 83.0694C13.2391 83.2941 13.7109 83.5188 14.1828 83.6685L14.576 83.8183C14.9693 83.9681 15.3625 84.043 15.7557 84.1927L16.3062 84.3425C16.6995 84.4174 17.0927 84.4923 17.5646 84.5672L18.1151 84.6421C18.7443 84.717 19.2948 84.717 19.924 84.717H81.8968L89.3682 40.234C89.9973 36.7143 88.6604 33.1946 85.9864 30.7233L77.7286 23.4592Z" fill="#CDD6ED"/>
<path opacity="0.2683" d="M77.8073 23.4592C75.7626 21.2875 72.9313 20.0144 69.8641 20.0144H12.4527C12.2168 20.9879 12.1381 21.9615 12.1381 22.935V23.0099L4.66675 69.6646C4.66675 72.735 5.68913 75.7305 7.65528 78.2018C7.96986 78.6511 8.36311 79.1004 8.75634 79.4749L8.83497 79.5497C9.22819 79.9242 9.62145 80.2986 10.0933 80.6731C10.9584 81.4219 11.9808 82.0959 13.0032 82.6201L13.1605 82.695C13.6324 82.9197 14.1042 83.1443 14.5761 83.2941L14.9693 83.4439C15.3626 83.5937 15.7558 83.6685 16.149 83.8183L16.6995 83.9681C17.0928 84.043 17.486 84.1179 17.8792 84.1927C18.0365 84.1927 18.1938 84.2676 18.4298 84.2676C18.9803 84.3425 19.6095 84.3425 20.16 84.3425H81.8183L89.2896 40.0842C89.8401 36.6394 88.5818 33.1197 85.9078 30.6484L77.8073 23.4592Z" fill="#C9D2EB"/>
<path opacity="0.2927" d="M77.8073 23.5342C75.8412 21.3624 72.9313 20.0894 69.8641 20.0894H12.6885C12.4526 21.0629 12.3739 22.0364 12.3739 23.01V23.0848L4.90259 69.5149C4.90259 72.5853 5.92497 75.5808 7.89112 78.0521C8.2057 78.5014 8.59895 78.9507 8.99218 79.3251L9.07081 79.4C9.46404 79.7745 9.85727 80.1489 10.2505 80.5233V80.5982C11.1156 81.3471 12.138 81.9462 13.1604 82.5453L13.3177 82.6202C13.7896 82.8449 14.2614 83.0695 14.7333 83.2193L15.2052 83.3691C15.5985 83.5188 15.9917 83.5937 16.3849 83.7435L16.9354 83.8933C17.3286 83.9682 17.7219 84.043 18.1151 84.1179L18.6656 84.1928C19.2161 84.2677 19.8453 84.2677 20.3958 84.2677H81.7396L89.1323 40.1591C89.7615 36.7143 88.5032 33.1946 85.8292 30.7982L77.8073 23.5342Z" fill="#C4CEE9"/>
<path opacity="0.3171" d="M77.8074 23.5341C75.8412 21.3624 72.9313 20.1642 69.9428 20.1642H13.0032C12.7672 21.1377 12.6886 22.1112 12.6886 23.0099V23.0848L5.2959 69.3651C5.2959 72.4355 6.3183 75.3561 8.2058 77.8274C8.52039 78.2767 8.91364 78.726 9.30686 79.1004L9.38549 79.1753C9.77872 79.5498 10.1719 79.9242 10.5652 80.2986V80.3735C11.4303 81.1224 12.4527 81.7215 13.4751 82.2457L13.6324 82.3206C14.1043 82.5452 14.5761 82.7699 15.048 82.9197L15.4412 83.0695C15.8345 83.2192 16.2277 83.2941 16.6209 83.4439L17.1714 83.5937C17.5647 83.6686 17.9579 83.7434 18.3511 83.8183C18.5084 83.8183 18.6657 83.8932 18.9016 83.8932C19.4521 83.9681 20.0813 83.9681 20.6318 83.9681H81.7397L89.1324 40.0842C89.6829 36.6394 88.4245 33.1197 85.7506 30.7233L77.8074 23.5341Z" fill="#BFCAE7"/>
<path opacity="0.3415" d="M77.8074 23.5341C75.8412 21.3624 72.9313 20.1642 69.9428 20.1642H13.3964C13.1604 21.1377 13.0818 22.0364 13.0818 23.0099V23.0848L5.68909 69.0655C5.68909 72.1359 6.71149 75.0565 8.59899 77.5278C8.91358 77.9771 9.30683 78.4264 9.70006 78.8009L9.77868 78.8758C10.1719 79.2502 10.5651 79.6246 10.9584 79.9991C11.8235 80.748 12.8459 81.3471 13.8683 81.8713L14.0256 81.9461C14.4975 82.1708 14.9693 82.3955 15.4412 82.5452L15.8344 82.695C16.2277 82.8448 16.6209 82.9197 17.0141 83.0695L17.5646 83.2192C17.9579 83.2941 18.3511 83.369 18.7443 83.4439L19.2948 83.5188C19.8453 83.5937 20.4745 83.5937 21.025 83.5937H81.8183L89.1324 39.9344C89.6829 36.4896 88.4245 33.0448 85.7506 30.7233L77.8074 23.5341Z" fill="#BAC6E5"/>
<path opacity="0.3659" d="M77.8859 23.6091C75.9198 21.4373 73.0099 20.2391 70.0213 20.2391H13.7109C13.5536 21.2127 13.3963 22.1113 13.3963 23.0849V23.1597L6.08228 68.9907C6.08228 71.9862 7.10468 74.9817 8.99218 77.3781C9.30676 77.8274 9.70001 78.2018 10.0932 78.6512L10.1719 78.726C10.5651 79.1005 10.9583 79.4749 11.3516 79.8494C12.2167 80.5982 13.2391 81.1973 14.2615 81.7215L14.4188 81.7964C14.8906 82.0211 15.3625 82.2457 15.8344 82.3955L16.2276 82.5453C16.6208 82.6951 17.0141 82.7699 17.4073 82.9197L17.9578 83.0695C18.3511 83.1444 18.7443 83.2193 19.1375 83.2942C19.2948 83.2942 19.4521 83.3691 19.688 83.3691C20.2385 83.4439 20.8677 83.4439 21.4182 83.4439H81.8969L89.2109 40.0094C89.7615 36.5645 88.5031 33.0448 85.8292 30.7233L77.8859 23.6091Z" fill="#B5C2E4"/>
<path opacity="0.3902" d="M77.886 23.6091C75.9199 21.5122 73.0886 20.2391 70.1001 20.2391H14.0256C13.8683 21.1378 13.711 22.1113 13.711 23.0849V23.1597L6.39697 68.766C6.39697 71.7615 7.41938 74.757 9.30688 77.1534C9.62146 77.6027 10.0147 77.9772 10.4079 78.4265L10.4866 78.5014C10.8798 78.8758 11.273 79.2503 11.6663 79.6247V79.6996C12.5314 80.4484 13.4751 81.0475 14.5761 81.5718L14.7334 81.6466C15.2053 81.8713 15.5985 82.096 16.0704 82.2457L16.4636 82.3955C16.8569 82.5453 17.2501 82.6202 17.6433 82.77L18.1938 82.9197C18.5871 82.9946 18.9803 83.0695 19.3735 83.1444L19.8454 83.2193C20.3959 83.2942 21.0251 83.2942 21.5756 83.2942H81.7397L88.9751 40.0094C89.5256 36.5645 88.2673 33.1197 85.672 30.7982L77.886 23.6091Z" fill="#B0BDE2"/>
<path opacity="0.4146" d="M77.886 23.6091C75.9198 21.5122 73.0886 20.2392 70.1787 20.314H14.3401C14.1042 21.2127 14.0256 22.1862 14.0256 23.1598V23.3095L6.79016 68.6912C6.79016 71.6867 7.81257 74.6073 9.70007 77.0037C10.0147 77.453 10.4079 77.8274 10.8011 78.2767L10.8798 78.3516C11.273 78.7261 11.6662 79.1005 12.0594 79.4749C12.9245 80.2238 13.8683 80.8229 14.8907 81.3471L15.048 81.422C15.5198 81.6467 15.9131 81.8713 16.385 82.0211C16.5423 82.096 16.6995 82.096 16.7782 82.1709C17.1714 82.3206 17.5647 82.3955 17.9579 82.5453L18.5084 82.6951C18.9016 82.77 19.2948 82.8449 19.6881 82.9197C19.8453 82.9197 20.0027 82.9946 20.16 82.9946C20.7105 83.0695 21.3397 83.0695 21.8902 83.0695H81.8183L89.0537 40.0094C89.6042 36.6395 88.4245 33.1946 85.7506 30.8731L77.886 23.6091Z" fill="#ABB9E0"/>
<path opacity="0.439" d="M77.8859 23.684C75.9198 21.5871 73.1672 20.3889 70.1787 20.3889H14.6548C14.4975 21.2876 14.3402 22.2611 14.3402 23.2346V23.3095L7.10474 68.4665C7.10474 71.462 8.12716 74.3826 9.93601 76.779C10.2506 77.2283 10.6438 77.6028 10.9584 78.0521L11.037 78.127C11.4303 78.5014 11.8235 78.8758 12.2167 79.2503C13.0818 79.9992 14.0256 80.5983 15.048 81.1225L15.2053 81.1973C15.6772 81.422 16.0704 81.5718 16.5422 81.7964L16.9355 81.9462C17.3287 82.096 17.7219 82.1709 18.1151 82.3207L18.6657 82.4704C19.0589 82.5453 19.4521 82.6202 19.8454 82.6951L20.3173 82.77C20.8678 82.8449 21.4969 82.8449 22.0474 82.8449H81.661L88.8963 40.0094C89.4469 36.6394 88.2672 33.1946 85.5933 30.8731L77.8859 23.684Z" fill="#A6B5DE"/>
<path opacity="0.4634" d="M77.886 23.684C75.9199 21.5871 73.1673 20.3889 70.2574 20.3889H15.048C14.8907 21.2876 14.7334 22.2611 14.7334 23.1597V23.2346L7.57666 68.167C7.57666 71.1625 8.59904 74.0082 10.4079 76.4046C10.7225 76.8539 11.1157 77.2283 11.4303 77.6028L11.509 77.6777C11.9022 78.0521 12.2954 78.4265 12.6886 78.7261V78.801C13.5537 79.5498 14.4975 80.1489 15.5199 80.6731L15.6772 80.748C16.149 80.9727 16.5423 81.1974 17.0142 81.3471L17.4074 81.4969C17.8006 81.6467 18.1939 81.7216 18.5871 81.8713L19.1376 82.0211C19.5308 82.096 19.9241 82.1709 20.3173 82.2458L20.7892 82.3207C21.3397 82.3955 21.8902 82.3955 22.5194 82.3955H81.897L89.0538 39.7847C89.6043 36.4148 88.4246 33.0449 85.7506 30.7234L77.886 23.684Z" fill="#A1B1DC"/>
<path opacity="0.4878" d="M77.9646 23.684C76.0771 21.5871 73.2458 20.3889 70.3359 20.3889H15.3625C15.1265 21.2876 15.0479 22.2611 15.0479 23.1597V23.2346L7.89111 67.9423C7.89111 70.9378 8.91354 73.7835 10.7224 76.1799C11.037 76.6292 11.4302 77.0037 11.7448 77.3781L11.8234 77.453C12.2166 77.8274 12.6099 78.2019 13.0031 78.5014C13.8682 79.1754 14.812 79.8494 15.8344 80.2987L15.9917 80.3736C16.3849 80.5982 16.8567 80.748 17.3286 80.9727L17.7218 81.1225C18.1151 81.2722 18.5083 81.3471 18.9015 81.4969L19.4521 81.6467C19.8453 81.7215 20.2385 81.7964 20.6317 81.8713L21.1037 81.9462C21.6542 82.0211 22.2047 82.0211 22.8338 82.0211H81.8182L88.8963 39.6349C89.4468 36.265 88.2672 32.8951 85.6719 30.5736L77.9646 23.684Z" fill="#9CADDA"/>
<path opacity="0.5122" d="M77.9647 23.7588C76.0772 21.6619 73.3246 20.4637 70.4147 20.4637H15.6772C15.5199 21.3624 15.3626 22.3359 15.3626 23.2346V23.3095L8.28442 67.7925C8.28442 70.7131 9.30685 73.5588 11.1157 75.9552C11.4303 76.4045 11.8235 76.7789 12.1381 77.1534L12.2167 77.2283C12.6099 77.6027 13.0032 77.9771 13.3964 78.2767C14.2615 78.9507 15.2053 79.6246 16.2277 80.074L16.385 80.1489C16.7782 80.3735 17.2501 80.5233 17.7219 80.748L18.1152 80.8977C18.5084 81.0475 18.823 81.1224 19.2162 81.1973L19.7668 81.3471C20.16 81.4219 20.5532 81.4968 20.9464 81.5717C21.1037 81.5717 21.261 81.6466 21.4183 81.6466C21.9688 81.7215 22.5193 81.7215 23.1485 81.7215H81.897L88.9751 39.4851C89.5256 36.1901 88.3459 32.8201 85.7506 30.4986L77.9647 23.7588Z" fill="#97A9D9"/>
<path opacity="0.5366" d="M77.9647 23.7588C76.0772 21.662 73.3246 20.5387 70.4147 20.5387H15.9917C15.8344 21.4373 15.6771 22.336 15.6771 23.3095V23.3844L8.599 67.6428C8.599 70.5634 9.62138 73.4091 11.4302 75.8055C11.7448 76.2548 12.1381 76.6292 12.4527 77.0037L12.5313 77.0785C12.9245 77.453 13.3178 77.8274 13.711 78.127C14.5761 78.8758 15.5198 79.4749 16.5422 79.9991L16.6995 80.074C17.0927 80.2987 17.5646 80.4485 18.0365 80.6731L18.4297 80.8229C18.823 80.9727 19.2162 81.0476 19.5308 81.1225L20.0813 81.2722C20.4745 81.3471 20.8677 81.422 21.261 81.4969L21.7329 81.5718C22.2834 81.6467 22.8339 81.6467 23.3844 81.6467H81.8183L88.8964 39.6349C89.447 36.3399 88.2673 32.97 85.672 30.6485L77.9647 23.7588Z" fill="#92A5D7"/>
<path opacity="0.561" d="M77.9646 23.7588C76.0771 21.662 73.3245 20.5387 70.4933 20.5387H16.3063C16.149 21.4373 15.9917 22.336 15.9917 23.3095V23.3844L8.91357 67.4181C8.91357 70.3387 9.93597 73.1844 11.6662 75.5059C11.9808 75.9552 12.374 76.3297 12.6886 76.7041L12.7672 76.779C13.1604 77.1534 13.475 77.5279 13.9469 77.8274C14.812 78.5014 15.7557 79.1005 16.6995 79.6247L16.8568 79.6996C17.25 79.9243 17.7219 80.074 18.1938 80.2987L18.587 80.4485C18.9802 80.5983 19.2948 80.6731 19.688 80.748L20.2386 80.8978C20.6318 80.9727 21.025 81.0476 21.4182 81.1225C21.5755 81.1225 21.7329 81.1973 21.8901 81.1973C22.4407 81.2722 22.9912 81.2722 23.5417 81.2722H81.8183L88.8178 39.4852C89.3683 36.1901 88.1886 32.8202 85.5933 30.5736L77.9646 23.7588Z" fill="#8DA1D5"/>
<path opacity="0.5854" d="M78.0433 23.7588C76.1558 21.7369 73.4032 20.5387 70.572 20.5387H16.6996C16.5423 21.4373 16.385 22.336 16.385 23.2346V23.3095L9.3855 67.1186C9.3855 70.0392 10.4079 72.81 12.1381 75.1315C12.4527 75.5808 12.7673 75.9552 13.1605 76.3297L13.2392 76.4046C13.6324 76.779 13.947 77.1534 14.4189 77.453C14.4189 77.453 14.4189 77.453 14.4189 77.5279C15.284 78.2019 16.2277 78.801 17.1715 79.3252L17.2501 79.4001C17.6433 79.6247 18.1152 79.7745 18.5871 79.9992L18.9803 80.1489C19.3735 80.2987 19.6881 80.3736 20.0813 80.4485L20.6318 80.5983C21.0251 80.6731 21.4183 80.748 21.8115 80.8229L22.2834 80.8978C22.834 80.9727 23.3845 80.9727 23.935 80.9727H81.8183L88.8178 39.4103C89.3683 36.1152 88.1886 32.8202 85.672 30.5736L78.0433 23.7588Z" fill="#889DD3"/>
<path opacity="0.6098" d="M78.0432 23.8337C76.1557 21.8117 73.4818 20.6135 70.6505 20.6135H17.014C16.8567 21.5122 16.6994 22.4108 16.6994 23.3095V23.3844L9.69995 66.9687C9.69995 69.8144 10.7223 72.6601 12.4526 74.9816C12.7671 75.431 13.0817 75.8054 13.4749 76.1798L13.5536 76.2547C13.9468 76.6292 14.2614 77.0036 14.7333 77.3031C15.5984 77.9771 16.4635 78.5762 17.4859 79.1004L17.6432 79.1753C18.0364 79.4 18.5083 79.5498 18.9802 79.7744L19.3734 79.9242C19.7666 80.074 20.0812 80.1489 20.4744 80.2238L21.0249 80.3735C21.4182 80.4484 21.8114 80.5233 22.126 80.5982C22.2833 80.5982 22.4406 80.6731 22.5978 80.6731C23.1484 80.748 23.6989 80.748 24.2494 80.748H81.8969L88.8177 39.4102C89.3682 36.1901 88.1885 32.8201 85.6718 30.5735L78.0432 23.8337Z" fill="#8399D1"/>
<path opacity="0.6341" d="M78.0432 23.8337C76.1557 21.8117 73.4818 20.6135 70.6505 20.6135H17.3286C17.1713 21.5122 17.0141 22.4108 17.0141 23.3095V23.3843L10.0933 66.7441C10.0933 69.5898 11.037 72.3606 12.8459 74.6821C13.1604 75.1314 13.475 75.5059 13.8683 75.8803L13.9469 75.9552C14.3401 76.3296 14.6547 76.704 15.1266 77.0036C15.9917 77.6776 16.8568 78.2767 17.8792 78.8009L18.0365 78.8758C18.4297 79.1004 18.9016 79.2502 19.3735 79.4749L19.7667 79.6246C20.1599 79.7744 20.4745 79.8493 20.8677 79.9242L21.3396 80.074C21.7328 80.1489 22.126 80.2237 22.4406 80.2986L22.9125 80.3735C23.463 80.4484 24.0135 80.4484 24.5641 80.4484H81.8969L88.8177 39.2604C89.3682 36.0403 88.1885 32.7453 85.6719 30.4986L78.0432 23.8337Z" fill="#7E94CF"/>
<path opacity="0.6585" d="M78.0433 23.8337C76.1558 21.8118 73.4819 20.6885 70.7293 20.6885H17.6433C17.486 21.5871 17.3287 22.4858 17.3287 23.3844V23.4593L10.4078 66.5943C10.4078 69.4401 11.3516 72.2109 13.1604 74.5324C13.475 74.9817 13.7896 75.3562 14.1828 75.7306L14.2615 75.8055C14.6547 76.1799 14.9693 76.5543 15.3625 76.8539C15.3625 76.8539 15.3625 76.8539 15.3625 76.9288C16.2276 77.6028 17.0927 78.2019 18.1151 78.7261L18.2724 78.801C18.6657 79.0256 19.1375 79.1754 19.6094 79.3252C19.7667 79.4001 19.8454 79.4001 20.0026 79.4749C20.3959 79.6247 20.7105 79.6996 21.1037 79.7745L21.5756 79.9243C21.9688 79.9991 22.362 80.074 22.6766 80.1489C22.8339 80.1489 22.9912 80.2238 23.1485 80.2238C23.699 80.2987 24.2495 80.2987 24.8 80.2987H81.8183L88.6605 39.3354C89.211 36.1152 88.0313 32.8202 85.5147 30.5736L78.0433 23.8337Z" fill="#7990CE"/>
<path opacity="0.6829" d="M78.0432 23.9086C76.2343 21.8866 73.5604 20.7633 70.7291 20.7633H17.8791C17.7219 21.662 17.5646 22.5606 17.6432 23.4592V23.5341L10.801 66.4445C10.801 69.2902 11.7448 72.0611 13.5536 74.3077C13.8682 74.757 14.1828 75.1314 14.576 75.5059L14.6547 75.5807C15.0479 75.9552 15.3625 76.3296 15.7557 76.6292C16.6208 77.3032 17.4859 77.9023 18.4297 78.4265L18.5083 78.5014C18.9015 78.726 19.3734 78.8758 19.7667 79.0256L20.1599 79.1753C20.5531 79.3251 20.8677 79.4 21.2609 79.4749L21.7328 79.6247C22.126 79.6996 22.4406 79.7744 22.8338 79.8493L23.3057 79.9242C23.8562 79.9991 24.4067 79.9991 24.9573 79.9991H81.7395L88.5817 39.2604C89.1322 36.0403 87.9526 32.8202 85.4359 30.5735L78.0432 23.9086Z" fill="#748CCC"/>
<path opacity="0.7073" d="M78.1219 23.9086C76.3131 21.8866 73.6391 20.7633 70.8078 20.7633H18.2725C18.1152 21.662 17.9579 22.5606 18.0365 23.4592V23.5341L11.1943 66.2198C11.1943 69.0656 12.1381 71.7615 13.8683 74.083C14.1829 74.4574 14.4975 74.9068 14.8907 75.2812L14.9693 75.3561C15.2839 75.7305 15.6772 76.105 16.0704 76.4045C16.8568 77.0785 17.8006 77.6776 18.7444 78.1269C18.7444 78.1269 18.823 78.1269 18.823 78.2018C19.2162 78.4265 19.6881 78.5762 20.0813 78.726L20.4745 78.8758C20.8678 79.0256 21.1824 79.1004 21.5756 79.1753L22.0474 79.3251C22.4407 79.4 22.7553 79.4749 23.1485 79.5498C23.3058 79.5498 23.4631 79.6247 23.6204 79.6247C24.1709 79.6995 24.7214 79.6995 25.2719 79.6995H81.7396L88.5818 39.1856C89.1323 35.9654 87.9526 32.7453 85.436 30.5735L78.1219 23.9086Z" fill="#6F88CA"/>
<path opacity="0.7317" d="M78.122 23.9086C76.3131 21.8866 73.6391 20.7633 70.8865 20.7633H18.6657C18.5084 21.662 18.3511 22.4857 18.3511 23.3844V23.4592L11.5875 65.9203C11.5875 68.6911 12.5313 71.4619 14.2615 73.7086C14.5761 74.083 14.8907 74.5323 15.2839 74.9068L15.3625 74.9817C15.6771 75.3561 16.0703 75.6556 16.4636 76.0301V76.105C17.25 76.7789 18.1938 77.378 19.1376 77.8274L19.2948 77.9022C19.688 78.1269 20.1599 78.2767 20.5532 78.4265L20.9464 78.5762C21.3396 78.726 21.6542 78.8009 22.0474 78.8758L22.5193 79.0256C22.9125 79.1004 23.2271 79.1753 23.6203 79.2502L24.0922 79.3251C24.6428 79.4 25.1146 79.4 25.6652 79.4H81.897L88.6605 39.1107C89.211 35.9654 88.0313 32.7453 85.5933 30.4986L78.122 23.9086Z" fill="#6A84C8"/>
<path opacity="0.7561" d="M78.122 23.9835C76.3131 22.0365 73.6392 20.8383 70.8866 20.8383H18.823C18.6657 21.7369 18.5871 22.5607 18.5871 23.4593V23.5342L11.8235 65.7706C11.8235 68.5414 12.7673 71.3122 14.4975 73.5589C14.812 73.9333 15.1266 74.3826 15.5199 74.7571L15.5985 74.8319C15.9131 75.2064 16.3063 75.5059 16.6995 75.8804C17.486 76.5543 18.4298 77.1534 19.3735 77.6028L19.5308 77.6777C19.924 77.9023 20.3959 78.0521 20.7891 78.2019L21.1824 78.3516C21.5756 78.5014 21.8902 78.5763 22.2834 78.6512L22.7553 78.801C23.1485 78.8758 23.4631 78.9507 23.8563 79.0256L24.3282 79.1005C24.8787 79.1754 25.3506 79.1754 25.9011 79.1754H81.7397L88.5032 39.0359C89.0537 35.8906 87.8741 32.6704 85.436 30.4987L78.122 23.9835Z" fill="#6680C6"/>
<path opacity="0.7805" d="M78.122 23.9835C76.3131 22.0364 73.7178 20.9131 70.9652 20.9131H19.2162C19.0589 21.8117 18.9017 22.6355 18.9803 23.5341V23.609L12.2954 65.6956C12.2954 68.4665 13.2391 71.1624 14.9693 73.409C15.2839 73.7835 15.5985 74.2328 15.9918 74.6072L16.0704 74.6821C16.385 75.0565 16.7782 75.3561 17.1715 75.7305C17.9579 76.4045 18.9016 77.0036 19.8454 77.4529L19.9241 77.5278C20.3173 77.7525 20.7105 77.9023 21.1824 78.052L21.5756 78.2018C21.9688 78.3516 22.2834 78.4265 22.6767 78.5014L23.1485 78.6511C23.5418 78.726 23.8564 78.8009 24.2496 78.8758L24.7214 78.9507C25.272 79.0256 25.7438 79.0256 26.2944 79.0256H81.897L88.5819 39.1856C89.1324 36.0403 87.9527 32.8201 85.5147 30.6484L78.122 23.9835Z" fill="#617CC4"/>
<path opacity="0.8049" d="M78.2006 23.9835C76.3917 22.0364 73.7964 20.9131 71.0438 20.9131H19.6094C19.4521 21.7368 19.2948 22.6355 19.3735 23.5341V23.609L12.6886 65.471C12.6886 68.2418 13.6323 70.9377 15.3625 73.1844C15.6771 73.5588 15.9917 74.0081 16.385 74.3077L16.4636 74.3826C16.7782 74.757 17.1714 75.0565 17.5646 75.431C18.3511 76.105 19.2162 76.7041 20.16 77.1534L20.2386 77.2283C20.6318 77.4529 21.0251 77.6027 21.4969 77.7525L21.8902 77.9023C22.2834 78.052 22.598 78.1269 22.9126 78.2018L23.3844 78.3516C23.7776 78.4265 24.0922 78.5014 24.4855 78.5762C24.6428 78.5762 24.8 78.6511 24.9573 78.6511C25.5078 78.726 25.9797 78.726 26.5302 78.726H81.8969L88.5818 39.0358C89.1323 35.8905 87.9526 32.7453 85.5146 30.5735L78.2006 23.9835Z" fill="#5C78C3"/>
<path opacity="0.8293" d="M78.2005 23.9835C76.3917 22.0364 73.7964 20.9131 71.1224 20.9131H19.924C19.7667 21.7368 19.6881 22.6355 19.6881 23.5341V23.609L13.0032 65.2463C13.0032 68.0172 13.947 70.6382 15.5985 72.8848C15.9131 73.2593 16.2277 73.6337 16.5422 74.0081L16.6209 74.083C16.9355 74.4574 17.3287 74.757 17.7219 75.1314C18.5084 75.8054 19.3735 76.3296 20.3173 76.8538L20.3959 76.9287C20.7891 77.1534 21.1823 77.3032 21.6542 77.4529L22.0474 77.6027C22.362 77.7525 22.7553 77.8274 23.0699 77.9023L23.5417 78.052C23.935 78.1269 24.2496 78.2018 24.6428 78.2767L25.1146 78.3516C25.6652 78.4265 26.137 78.4265 26.6876 78.4265H81.661L88.2672 38.9609C88.8177 35.8156 87.638 32.6704 85.2787 30.5735L78.2005 23.9835Z" fill="#5774C1"/>
<path opacity="0.8537" d="M78.2006 24.0583C76.3917 22.1112 73.7964 20.9879 71.1225 20.9879H20.2386C20.0813 21.8117 20.0026 22.7103 20.0026 23.5341V23.609L13.3964 65.0216C13.3964 67.7924 14.2615 70.4135 15.9917 72.6601C16.3063 73.0345 16.6208 73.409 16.9354 73.7834L17.0141 73.8583C17.3287 74.2327 17.7219 74.5323 18.1151 74.8318C18.9016 75.5058 19.7667 76.03 20.7105 76.5542L20.7891 76.6291C21.1823 76.8538 21.5755 77.0036 22.0474 77.1533L22.4406 77.3031C22.7552 77.4529 23.1485 77.5278 23.4631 77.6027L23.9349 77.7524C24.3282 77.8273 24.6428 77.9022 25.036 77.9022C25.1933 77.9022 25.3506 77.9771 25.5078 77.9771C26.0584 78.052 26.5302 78.052 27.0808 78.052H81.7397L88.3459 38.8111C88.8965 35.7407 87.7167 32.5954 85.3574 30.4237L78.2006 24.0583Z" fill="#5270BF"/>
<path opacity="0.878" d="M78.2005 24.0584C76.3916 22.1113 73.875 21.0629 71.201 21.0629H20.5531C20.3958 21.8866 20.3172 22.7853 20.3172 23.609V23.6839L13.7109 64.8719C13.7109 67.5678 14.6547 70.2638 16.3062 72.4355C16.6208 72.8099 16.9354 73.1844 17.25 73.5588L17.3286 73.6337C17.6432 74.0081 18.0365 74.3077 18.4297 74.6072C19.2161 75.2812 20.0812 75.8054 21.025 76.2547L21.1037 76.3296C21.4969 76.5543 21.8901 76.7041 22.362 76.8538L22.7552 77.0036C23.0698 77.1534 23.463 77.2283 23.7776 77.3032L24.2495 77.3781C24.6427 77.4529 24.9573 77.5278 25.3505 77.6027L25.8224 77.6776C26.3729 77.7525 26.8448 77.7525 27.3953 77.7525H81.7395L88.2671 38.6614C88.8177 35.591 87.638 32.4457 85.2786 30.3489L78.2005 24.0584Z" fill="#4D6BBD"/>
<path opacity="0.9024" d="M78.2006 24.0584C76.4703 22.1113 73.875 21.0629 71.2011 21.0629H20.8678C20.7105 21.8866 20.6318 22.7853 20.6318 23.609V23.6839L14.1042 64.6472C14.1042 67.3432 15.048 69.9642 16.6995 72.1359C17.0141 72.5104 17.3287 72.8848 17.6433 73.2593L17.7219 73.3341C18.0365 73.7086 18.4298 74.0081 18.823 74.3077C19.6095 74.9817 20.4745 75.5059 21.4183 75.9552L21.497 76.0301C21.8902 76.2547 22.2834 76.4045 22.7553 76.5543L23.1485 76.7041C23.4631 76.7789 23.8563 76.9287 24.1709 77.0036L24.6428 77.1534C25.036 77.2283 25.3506 77.3032 25.7438 77.3032C25.9011 77.3032 26.0584 77.378 26.2157 77.378C26.7662 77.4529 27.2381 77.4529 27.7886 77.4529H81.7396L88.2672 38.5865C88.8177 35.5161 87.638 32.4457 85.2787 30.274L78.2006 24.0584Z" fill="#4867BB"/>
<path opacity="0.9268" d="M78.2792 24.1333C76.549 22.2611 74.0323 21.1378 71.3583 21.1378H21.3396C21.1823 21.9616 21.1037 22.8602 21.1037 23.684V23.7589L14.576 64.4975C14.576 67.1935 15.5198 69.8145 17.1714 71.9862C17.486 72.3607 17.8005 72.7351 18.1151 73.1095L18.1938 73.1844C18.5084 73.5589 18.9016 73.8584 19.2162 74.158C20.0026 74.8319 20.8677 75.3562 21.8115 75.8055L21.8901 75.8804C22.2834 76.105 22.6766 76.2548 23.0698 76.4046L23.4631 76.5543C23.7776 76.6292 24.1709 76.779 24.4855 76.8539L24.9573 77.0037C25.3505 77.0786 25.6651 77.1535 25.9797 77.1535L26.4516 77.2283C27.0021 77.3032 27.474 77.3032 28.0245 77.3032H81.8182L88.2672 38.6614C88.7391 35.5911 87.638 32.5207 85.2787 30.4238L78.2792 24.1333Z" fill="#4363B9"/>
<path opacity="0.9512" d="M78.2791 24.1333C76.5489 22.2611 74.0323 21.1378 71.3583 21.1378H21.5755C21.4182 21.9616 21.3396 22.7853 21.3396 23.684V23.7589L14.8906 64.2729C14.8906 66.9688 15.8344 69.515 17.4859 71.6867C17.8005 72.0611 18.1151 72.4356 18.4297 72.81L18.5083 72.8849C18.8229 73.2593 19.2162 73.5589 19.5307 73.8584C20.3172 74.5324 21.1823 75.0566 22.0474 75.506L22.1261 75.5808C22.5193 75.8055 22.9125 75.9553 23.3057 76.105L23.699 76.2548C24.0136 76.3297 24.4068 76.4795 24.7214 76.5544C24.8786 76.6293 25.0359 76.6293 25.1932 76.6293C25.5078 76.7041 25.9011 76.779 26.2156 76.779L26.6875 76.8539C27.238 76.9288 27.7099 76.9288 28.2604 76.9288H81.7396L88.1885 38.5117C88.6604 35.5162 87.5594 32.4458 85.2786 30.3489L78.2791 24.1333Z" fill="#3E5FB8"/>
<path opacity="0.9756" d="M78.2792 24.1332C76.549 22.261 74.0324 21.1377 71.4371 21.2126H21.8902C21.7329 22.0364 21.6542 22.8601 21.6542 23.6839V23.7588L15.2053 64.0481C15.2053 66.7441 16.149 69.2902 17.722 71.4619C18.0365 71.8364 18.3511 72.2108 18.6657 72.5853L18.7444 72.6601C19.059 73.0346 19.4522 73.3341 19.7668 73.6337C20.5532 74.3077 21.4183 74.8319 22.2834 75.2812L22.3621 75.3561C22.7553 75.5059 23.1485 75.7305 23.5418 75.8803L23.935 76.0301C24.2496 76.105 24.6428 76.2547 24.9574 76.3296L25.4293 76.4045C25.7439 76.4794 26.1371 76.5543 26.4517 76.5543L26.9235 76.6292C27.3954 76.7041 27.9459 76.704 28.4178 76.704H81.7397L88.1886 38.5116C88.6605 35.5161 87.6381 32.4457 85.2787 30.3489L78.2792 24.1332Z" fill="#395BB6"/>
<path d="M78.2791 24.1332C76.5489 22.2611 74.0323 21.2126 71.437 21.2126H22.126C21.9688 22.0364 21.8901 22.8602 21.8901 23.6839V23.7588L15.5198 63.8235C15.5198 66.4445 16.3849 69.0656 18.0365 71.1624C18.351 71.5369 18.6656 71.9113 18.9802 72.2857L19.0588 72.3606C19.3734 72.7351 19.7666 73.0346 20.0812 73.3341V73.409C20.8677 74.0081 21.7328 74.6072 22.5979 75.0566L22.6766 75.1314C23.0698 75.3561 23.463 75.5059 23.8563 75.6557C24.0136 75.7305 24.0922 75.7305 24.2495 75.8054C24.5641 75.8803 24.9573 76.0301 25.2719 76.105L25.7437 76.2548C26.0583 76.3296 26.4515 76.4045 26.7661 76.4045L27.238 76.4794C27.7099 76.5543 28.2604 76.5543 28.7323 76.5543H81.7395L88.1098 38.5116C88.5817 35.5161 87.5594 32.4457 85.2 30.4238L78.2791 24.1332Z" fill="#3457B4"/>
<path d="M27.8671 78.1269C19.2161 78.1269 12.1379 71.462 12.1379 63.2244L19.6879 15.9705V15.8957C19.6879 7.65806 26.766 0.918213 35.4171 0.918213H186.968C195.619 0.918213 202.618 7.58318 202.697 15.8208L195.147 62.9997C193.574 70.2638 188.541 78.1269 179.418 78.1269H27.8671Z" fill="url(#paint0_linear)"/>
<path d="M196.169 3.68909C198.135 6.23525 199.158 9.23074 199.158 12.376L191.608 59.5549C190.035 66.819 185.002 74.6822 175.879 74.6822H24.328C21.0249 74.6822 17.8004 73.7086 15.1265 71.8364C18.115 75.7306 22.8338 78.0521 27.8671 78.0521H179.418C188.619 78.0521 193.574 70.1889 195.147 62.9249L202.697 15.7459C202.618 11.028 200.259 6.5348 196.169 3.68909Z" fill="#5708D3"/>
<path d="M80.7957 32.2211C80.1665 32.2211 79.6947 31.7718 79.6947 31.1727L80.4812 26.305C80.4812 25.7059 80.953 25.2566 81.5822 25.2566H187.518C188.069 25.2566 188.619 25.7059 188.619 26.2301L187.833 31.0978C187.754 31.622 187.361 32.0713 186.732 32.1462L80.7957 32.2211Z" fill="white"/>
<path d="M78.8295 45.4013C78.2004 45.4013 77.7285 44.952 77.7285 44.3529L78.515 39.4852C78.515 38.8861 78.9868 38.4368 79.616 38.4368H185.631C186.26 38.4368 186.732 38.8861 186.732 39.4852L185.945 44.3529C185.867 44.8771 185.473 45.4013 184.844 45.4013H78.8295Z" fill="white"/>
<path d="M77.1781 58.5815C76.5489 58.5815 76.077 58.1321 76.077 57.533L76.8635 52.6654C76.8635 52.0663 77.3353 51.6169 77.8859 51.6169H143.241C143.87 51.6169 144.342 52.0663 144.342 52.6654L143.555 57.533C143.476 58.0573 143.083 58.5066 142.454 58.5815H77.1781Z" fill="white"/>
<path d="M58.6963 42.1811H62.6286C63.415 42.1811 64.1228 41.582 64.2801 40.8332L65.2239 36.1153C65.3811 35.5162 64.9879 34.9171 64.3588 34.7673C64.2801 34.7673 64.1228 34.7673 64.0442 34.7673H60.977C60.5051 34.7673 60.1119 34.4677 60.0333 34.0184C59.9546 33.7189 59.876 33.4942 59.876 33.1947C59.7973 32.7453 59.9546 32.2211 60.3478 31.9216L62.8645 29.8996C63.4937 29.4503 63.6509 28.6265 63.2577 27.9526L60.3478 24.5826C59.7973 24.0584 58.8536 24.0584 58.3031 24.5826L55.7864 26.6046C55.3932 26.9041 54.9213 27.0539 54.4494 26.8293L53.5843 26.4548C53.1911 26.305 52.9551 25.8557 53.0338 25.4064L53.5056 22.4858C53.6629 21.8867 53.2697 21.2876 52.6406 21.1378C52.5619 21.1378 52.4046 21.1378 52.326 21.1378H47.3713C46.5848 21.1378 45.877 21.7369 45.7198 22.4858L45.1692 25.4064C45.0119 25.9306 44.6974 26.305 44.1468 26.4548C43.8323 26.5297 43.5177 26.6795 43.2031 26.8293C42.7312 27.0539 42.2593 26.979 41.8661 26.6046L40.1359 24.5826C39.5854 24.0584 38.6416 24.0584 38.0911 24.5826L33.9229 27.9526C33.2937 28.4019 33.1365 29.2256 33.5297 29.8996L35.3385 31.9965C35.6531 32.3709 35.6531 32.8951 35.3385 33.2695C35.1812 33.5691 34.9453 33.8687 34.788 34.1682C34.5521 34.6175 34.0802 34.8422 33.5297 34.8422H30.4625C29.676 34.8422 28.9682 35.4413 28.8109 36.1902L27.9458 40.908C27.7885 41.5071 28.1818 42.1062 28.8109 42.256C28.8896 42.256 29.0469 42.256 29.1255 42.256H32.1927C32.6646 42.256 33.0578 42.5556 33.1365 43.0049C33.2151 43.3044 33.2937 43.5291 33.3724 43.8286C33.451 44.278 33.2938 44.8022 32.9005 45.1017L30.3839 47.1237C29.7547 47.573 29.5974 48.3968 29.9906 49.0708L32.9005 52.4407C33.451 52.9649 34.3948 52.9649 34.9453 52.4407L37.5406 50.3438C37.9338 50.0443 38.4057 49.8945 38.8776 50.1192L39.7427 50.4936C40.1359 50.6434 40.3718 51.0927 40.2932 51.542L39.7427 54.4626C39.5854 55.0617 39.9786 55.6608 40.6078 55.8106C40.6864 55.8106 40.8437 55.8106 40.9223 55.8106H45.8771C46.6635 55.8106 47.3713 55.2115 47.5286 54.4626L48.0791 51.542C48.2364 51.0178 48.551 50.6434 49.1015 50.4936C49.4161 50.4187 49.7307 50.2689 50.0453 50.1941C50.5171 49.9694 50.989 50.0443 51.3822 50.4187L53.1124 52.4407C53.6629 52.9649 54.6067 52.9649 55.1572 52.4407L59.3254 49.0708C59.9546 48.6214 60.1119 47.7977 59.7187 47.1237L57.9098 45.0268C57.5952 44.6524 57.5952 44.1282 57.9098 43.8286C58.2244 43.0798 58.6963 42.1811 58.6963 42.1811ZM39.8213 37.2386C41.4729 33.0449 46.4276 30.7234 50.2812 32.2211C53.1911 33.3444 54.4494 36.5646 53.2697 39.7098C51.6182 43.9035 46.6635 46.225 42.8099 44.7273C39.9786 43.5291 38.6416 40.3838 39.8213 37.2386Z" fill="white"/>
<defs>
<linearGradient id="paint0_linear" x1="12.1104" y1="39.4851" x2="202.669" y2="39.4851" gradientUnits="userSpaceOnUse">
<stop stop-color="#FA2A77"/>
<stop offset="0.03" stop-color="#ED2A7C"/>
<stop offset="0.15" stop-color="#C12C8D"/>
<stop offset="0.27" stop-color="#9C2D9B"/>
<stop offset="0.39" stop-color="#7D2EA7"/>
<stop offset="0.52" stop-color="#652FB0"/>
<stop offset="0.66" stop-color="#5430B7"/>
<stop offset="0.81" stop-color="#4A30BB"/>
<stop offset="1" stop-color="#4730BC"/>
</linearGradient>
</defs>
</svg>
