<svg width="136" height="104" viewBox="0 0 136 104" fill="none" xmlns="http://www.w3.org/2000/svg">
<path opacity="0.02439" d="M135.442 9.35282C135.442 9.27794 135.442 9.27794 135.442 9.20305C135.442 9.12816 135.442 9.12816 135.442 9.12816C135.442 9.12816 135.442 8.97839 135.442 8.90351C135.442 8.82862 135.442 8.60395 135.363 8.45418C135.284 8.3044 135.284 8.30441 135.284 8.15463L135.127 7.70531C135.127 7.63042 135.048 7.55553 135.048 7.55553C134.97 7.40576 134.97 7.33087 134.891 7.1811C134.813 7.03132 134.734 6.80666 134.655 6.65689C134.577 6.582 134.577 6.50711 134.498 6.43223C133.476 4.93448 131.667 4.11072 129.858 4.11072H24.0793C20.3043 4.18561 17.1584 6.80666 16.4506 10.3264L2.21573 96.6713C2.05844 97.6449 2.13705 98.6184 2.53028 99.5171C2.60893 99.6668 2.68757 99.8915 2.76621 100.041C2.84486 100.191 2.92352 100.341 3.08081 100.491C3.23811 100.64 3.2381 100.715 3.31674 100.865C3.39539 101.015 3.5527 101.09 3.63134 101.239C3.78864 101.389 3.94591 101.539 4.1032 101.614C4.26049 101.689 4.26051 101.764 4.4178 101.839C4.65374 101.988 4.9683 102.213 5.28289 102.288C5.36153 102.363 5.51884 102.363 5.59749 102.438C5.83343 102.513 6.14801 102.587 6.38395 102.662L6.6985 102.737C7.09173 102.812 7.48496 102.812 7.87819 102.812H113.578C114.443 102.812 115.387 102.662 116.173 102.288C117.039 101.988 117.825 101.539 118.454 100.94C119.87 99.8166 120.814 98.244 121.128 96.5216L132.768 26.0527L135.363 10.2515C135.442 10.0268 135.442 9.72726 135.442 9.35282Z" fill="#FAFBFD"/>
<path opacity="0.04878" d="M135.127 9.57743C135.127 9.50255 135.127 9.50255 135.127 9.42766C135.127 9.35277 135.127 9.35277 135.127 9.35277C135.127 9.35277 135.127 9.20299 135.049 9.12811C135.049 8.97833 135.049 8.82856 135.049 8.67879L134.97 8.37923C134.97 8.22946 134.891 8.07969 134.813 7.92992C134.813 7.85503 134.813 7.85503 134.734 7.78014C134.655 7.63037 134.655 7.55548 134.577 7.40571C134.498 7.25593 134.419 7.03126 134.341 6.88149C134.262 6.8066 134.183 6.73172 134.183 6.65684C133.161 5.15909 131.352 4.33533 129.543 4.33533H24.3152C20.5402 4.4851 17.3943 7.03127 16.7652 10.551L2.60892 96.4466C2.45163 97.4202 2.53024 98.3188 2.92347 99.2923C3.00212 99.4421 3.08075 99.6668 3.1594 99.8165C3.23805 99.9663 3.31671 100.116 3.474 100.266C3.63129 100.416 3.63129 100.491 3.70993 100.64C3.78858 100.79 3.94589 100.865 4.02453 101.015C4.18183 101.165 4.3391 101.314 4.49639 101.389C4.57504 101.464 4.6537 101.539 4.81099 101.614C5.04693 101.764 5.36149 101.988 5.67608 102.063L5.99068 102.213C6.22662 102.288 6.46256 102.363 6.77714 102.438L7.09169 102.512C7.48492 102.587 7.87815 102.587 8.27138 102.587H113.578C114.443 102.587 115.387 102.438 116.174 102.138C117.039 101.839 117.825 101.389 118.454 100.79C119.87 99.6668 120.814 98.0941 121.05 96.3717L132.611 26.2024L135.206 10.4761C135.127 10.2514 135.127 9.95187 135.127 9.57743Z" fill="#F5F7FB"/>
<path opacity="0.073171" d="M134.812 9.80216C134.812 9.72728 134.812 9.72728 134.812 9.65239C134.812 9.5775 134.812 9.5775 134.812 9.5775C134.812 9.5775 134.812 9.42772 134.812 9.35284C134.812 9.27795 134.813 9.05329 134.734 8.90352C134.655 8.75375 134.655 8.75374 134.655 8.60396C134.655 8.45419 134.577 8.30442 134.577 8.15465C134.577 8.00487 134.577 8.07975 134.498 8.00486C134.419 7.85509 134.419 7.7802 134.341 7.63043C134.262 7.48065 134.183 7.25599 134.105 7.10622C134.026 7.03133 133.947 6.95644 133.947 6.88156C132.925 5.38381 131.195 4.56006 129.307 4.56006H24.4724C20.776 4.63495 17.6302 7.256 16.9223 10.7757L2.84476 96.2969C2.68747 97.2704 2.76611 98.1691 3.08069 99.0677C3.15934 99.2175 3.23797 99.4422 3.31662 99.5919C3.39526 99.7417 3.47393 99.8915 3.63122 100.041C3.70987 100.191 3.7885 100.266 3.86715 100.416C3.94579 100.565 4.1031 100.64 4.18175 100.79C4.33904 100.94 4.49632 101.09 4.65361 101.165C4.73225 101.239 4.81092 101.314 4.96821 101.389C5.20415 101.539 5.51871 101.764 5.83329 101.839L6.1479 101.988C6.38383 102.063 6.61974 102.138 6.85568 102.213L7.17028 102.288C7.56351 102.363 7.95674 102.363 8.34997 102.363H113.106C113.971 102.363 114.915 102.213 115.702 101.913C118.218 100.94 120.106 98.7682 120.578 96.222L132.06 26.4271L134.655 10.7008C134.812 10.4013 134.812 10.1017 134.812 9.80216Z" fill="#F0F3FA"/>
<path opacity="0.097561" d="M134.498 10.0268C134.498 9.95191 134.498 9.9519 134.498 9.87701V9.80213C134.498 9.80213 134.498 9.65236 134.498 9.57747C134.498 9.50258 134.498 9.27792 134.419 9.12814C134.341 8.97837 134.419 8.97837 134.341 8.8286C134.341 8.67882 134.262 8.52904 134.183 8.37927C134.183 8.30438 134.183 8.30438 134.105 8.2295C134.026 8.07972 134.026 8.00483 133.947 7.85506C133.869 7.70529 133.79 7.48063 133.711 7.33085C133.633 7.25596 133.633 7.18108 133.554 7.10619C132.532 5.68333 130.802 4.78468 128.914 4.85957H24.7084C21.012 5.00935 17.8662 7.55551 17.237 11.0003L3.23807 96.0722C3.08078 96.9709 3.15942 97.9444 3.474 98.8431C3.55265 98.9928 3.63128 99.2175 3.70993 99.3673C3.78857 99.517 3.86721 99.6668 3.94586 99.8166C4.0245 99.9664 4.10319 100.041 4.18183 100.191C4.26048 100.341 4.41774 100.416 4.49639 100.565C4.57503 100.715 4.811 100.865 4.96829 100.94C5.12558 101.015 5.12555 101.09 5.28284 101.165C5.51878 101.314 5.83339 101.539 6.14798 101.614C6.22662 101.689 6.38389 101.689 6.46253 101.764C6.69847 101.839 6.93441 101.913 7.24899 101.988L7.56359 102.063C7.95682 102.138 8.35005 102.138 8.74328 102.138H113.028C113.893 102.138 114.836 101.988 115.623 101.689C116.488 101.389 117.196 100.94 117.904 100.341C119.319 99.2175 120.184 97.7197 120.499 95.9973L131.903 26.502L134.498 10.9254C134.498 10.6259 134.498 10.3263 134.498 10.0268Z" fill="#EBEFF8"/>
<path opacity="0.122" d="M134.183 10.1766C134.183 10.1017 134.183 10.1017 134.183 10.0268V9.95191C134.183 9.87702 134.183 9.80213 134.183 9.72725C134.183 9.65236 134.183 9.42771 134.183 9.27793L134.105 8.97838C134.105 8.8286 134.026 8.67883 133.947 8.52906C133.947 8.45417 133.947 8.45416 133.869 8.37928C133.79 8.2295 133.79 8.15461 133.712 8.00484C133.633 7.85507 133.554 7.63041 133.476 7.48063C133.397 7.40574 133.397 7.33085 133.318 7.25597C132.296 5.83311 130.566 4.93446 128.757 5.00935H24.9443C21.248 5.15913 18.1808 7.7053 17.473 11.1501L3.55263 95.7727C3.39534 96.6713 3.47403 97.6448 3.78861 98.5435C3.86726 98.6932 3.94589 98.9179 4.02454 99.0677C4.10318 99.2175 4.1818 99.3672 4.33909 99.517C4.49639 99.6668 4.49642 99.7417 4.57507 99.8914C4.65372 100.041 4.81098 100.116 4.88962 100.266C5.04692 100.416 5.20424 100.565 5.36153 100.64C5.44017 100.715 5.51879 100.79 5.67608 100.865C5.91202 101.015 6.22663 101.239 6.54122 101.314L6.85577 101.464C7.09171 101.539 7.32766 101.614 7.5636 101.689L7.87816 101.764C8.27139 101.839 8.66461 101.839 9.05784 101.839H112.792C113.657 101.839 114.522 101.689 115.387 101.389C116.252 101.09 116.96 100.64 117.668 100.041C119.005 98.9179 119.949 97.4202 120.263 95.6978L131.667 26.5769L134.183 11.0752C134.183 10.8506 134.183 10.551 134.183 10.1766Z" fill="#E6EBF6"/>
<path opacity="0.1463" d="M133.869 10.4012C133.869 10.3264 133.869 10.3263 133.869 10.2515C133.869 10.1766 133.869 10.1766 133.869 10.1766C133.869 10.1766 133.869 10.0268 133.869 9.95192C133.869 9.87703 133.869 9.65236 133.79 9.50259C133.712 9.35282 133.711 9.35282 133.711 9.20305C133.711 9.05327 133.633 8.9035 133.633 8.82861C133.633 8.75372 133.633 8.75372 133.554 8.67884C133.476 8.60395 133.476 8.45418 133.397 8.3044C133.318 8.15463 133.24 7.92997 133.161 7.78019C133.082 7.70531 133.082 7.63042 133.004 7.55553C131.981 6.13267 130.251 5.23402 128.442 5.30891H25.1802C21.4839 5.45869 18.4167 7.92996 17.7875 11.3748L3.86722 95.6978C3.70993 96.5964 3.78857 97.57 4.10315 98.4686C4.1818 98.6184 4.26043 98.8431 4.33908 98.9928C4.41772 99.1426 4.49639 99.2924 4.65368 99.4422C4.81097 99.5919 4.81096 99.6668 4.88961 99.8166C4.96825 99.9664 5.12557 100.041 5.20421 100.191C5.28286 100.341 5.51879 100.491 5.59744 100.565C5.67609 100.64 5.7547 100.715 5.91199 100.79C6.14793 100.94 6.46252 101.09 6.69845 101.239C6.7771 101.314 6.93441 101.314 7.01306 101.389C7.24899 101.464 7.48495 101.539 7.72089 101.614C7.79953 101.614 7.9568 101.689 8.03544 101.689C8.42867 101.764 8.82192 101.764 9.1365 101.764H112.398C113.264 101.764 114.129 101.614 114.994 101.314C115.78 101.015 116.567 100.565 117.275 100.041C118.612 98.9179 119.555 97.4202 119.87 95.6978L131.195 26.8764L133.711 11.4497C133.869 11.0752 133.869 10.7757 133.869 10.4012Z" fill="#E1E6F4"/>
<path opacity="0.1707" d="M133.554 10.6259C133.554 10.551 133.554 10.551 133.554 10.4761C133.554 10.4012 133.554 10.4012 133.554 10.4012C133.554 10.4012 133.554 10.2515 133.554 10.1766C133.554 10.1017 133.554 9.87702 133.476 9.72725C133.397 9.57747 133.476 9.57748 133.397 9.4277C133.397 9.27793 133.318 9.12815 133.24 9.05327C133.24 8.97838 133.24 8.97838 133.161 8.90349C133.082 8.75372 133.082 8.67883 133.004 8.52906C132.925 8.37928 132.846 8.2295 132.768 8.00484L132.611 7.78019C131.588 6.35733 129.858 5.53357 128.049 5.53357H25.3376C21.7199 5.60846 18.5741 8.15461 17.9449 11.5994L4.18192 95.3982C4.02463 96.2969 4.10326 97.2704 4.41785 98.169C4.49649 98.5435 4.65377 98.843 4.8897 99.1426C4.96835 99.2924 5.04699 99.3672 5.12563 99.517C5.20428 99.6668 5.36159 99.7417 5.44023 99.8915C5.59752 100.041 5.75482 100.191 5.83346 100.266C5.91211 100.341 5.99077 100.416 6.14806 100.491C6.384 100.64 6.61994 100.79 6.93452 100.94L7.24908 101.09C7.48501 101.165 7.72097 101.239 7.95691 101.314L8.27146 101.389C8.66469 101.464 9.05794 101.464 9.37252 101.464H112.163C113.028 101.464 113.893 101.314 114.679 101.015C115.466 100.715 116.252 100.266 116.881 99.7417C118.218 98.6184 119.162 97.1206 119.477 95.4731L130.723 27.0262L133.24 11.6743C133.554 11.2999 133.554 10.9254 133.554 10.6259Z" fill="#DCE2F2"/>
<path opacity="0.1951" d="M133.24 10.8506C133.24 10.7757 133.24 10.7757 133.24 10.7009V10.626C133.24 10.5511 133.24 10.4762 133.24 10.4013C133.24 10.2515 133.24 10.1018 133.161 9.95199C133.161 9.8771 133.161 9.80222 133.082 9.65245C133.004 9.50267 133.004 9.3529 133.004 9.27801C133.004 9.20312 132.925 9.20311 132.925 9.12823C132.846 8.97845 132.846 8.90356 132.768 8.75379C132.689 8.60401 132.61 8.37936 132.532 8.22958C132.453 8.15469 132.453 8.0798 132.374 8.00492C131.352 6.58206 129.701 5.7583 127.892 5.7583H25.5734C21.9557 5.83319 18.8886 8.37936 18.2594 11.8242L4.49637 95.2485C4.33908 96.1472 4.41772 97.1207 4.7323 97.9445C4.81095 98.0942 4.88963 98.3189 4.96828 98.4687C5.04692 98.6185 5.12554 98.7682 5.28283 98.918L5.51876 99.2924C5.5974 99.4422 5.75472 99.5171 5.83336 99.6669C5.99065 99.8166 6.0693 99.9664 6.22659 100.041C6.30524 100.116 6.3839 100.191 6.54119 100.266C6.77713 100.416 7.09171 100.566 7.32765 100.715L7.6422 100.865C7.87814 100.94 8.1141 101.015 8.35004 101.09L8.66459 101.165C9.05782 101.239 9.37242 101.24 9.76565 101.24H112.005C112.87 101.24 113.735 101.09 114.522 100.79C115.308 100.491 116.095 100.041 116.724 99.5171C118.061 98.3938 119.005 96.896 119.241 95.2485L130.408 27.1012L132.925 11.8242C133.161 11.4497 133.24 11.1502 133.24 10.8506Z" fill="#D7DEF0"/>
<path opacity="0.2195" d="M132.925 11.0752C132.925 11.0004 132.925 11.0004 132.925 10.9255V10.8506C132.925 10.7757 132.925 10.7008 132.925 10.6259C132.925 10.4761 132.925 10.3264 132.925 10.1766C132.925 10.1017 132.846 10.0268 132.846 9.87704C132.846 9.72727 132.768 9.57749 132.768 9.50261C132.768 9.42772 132.768 9.42772 132.689 9.35283C132.61 9.20306 132.61 9.12817 132.532 8.9784C132.453 8.82862 132.375 8.60396 132.296 8.45419C132.217 8.3793 132.217 8.30441 132.139 8.22953C131.116 6.80667 129.465 5.98291 127.656 5.98291H25.8095C22.1918 6.0578 19.1246 8.60396 18.4954 11.9739L4.81107 95.0238C4.65378 95.9225 4.73241 96.896 5.047 97.7198C5.12564 97.8695 5.20428 98.0942 5.28293 98.2439C5.36157 98.3937 5.44021 98.5435 5.51885 98.6933C5.5975 98.8431 5.67618 98.9179 5.75483 99.0677C5.83348 99.2175 5.99074 99.2924 6.06938 99.4422C6.22668 99.5919 6.38397 99.7417 6.46261 99.8166C6.54126 99.8915 6.61992 99.9664 6.77722 100.041C7.01315 100.191 7.24909 100.341 7.56367 100.491C7.64232 100.565 7.79958 100.565 7.87823 100.64C8.11416 100.715 8.35012 100.79 8.58606 100.865C8.6647 100.865 8.82202 100.94 8.90066 100.94C9.29389 101.015 9.60844 101.015 10.0017 101.015H111.769C112.634 101.015 113.5 100.865 114.365 100.565C115.151 100.266 115.938 99.8166 116.567 99.2924C117.904 98.1691 118.769 96.6713 119.083 95.0238L130.251 27.2509L132.768 12.0488C132.846 11.6743 132.925 11.3748 132.925 11.0752Z" fill="#D2DAEF"/>
<path opacity="0.2439" d="M132.61 11.2999C132.61 11.225 132.61 11.225 132.61 11.1501C132.61 11.0752 132.61 11.0752 132.61 11.0752C132.61 11.0752 132.61 10.9254 132.61 10.8505C132.61 10.7756 132.61 10.551 132.532 10.4012C132.453 10.2514 132.532 10.2514 132.453 10.1017C132.374 9.95188 132.374 9.8021 132.374 9.72722C132.374 9.65233 132.296 9.65233 132.296 9.57744C132.217 9.42767 132.217 9.35278 132.139 9.20301C132.06 9.05323 131.981 8.90346 131.903 8.6788L131.745 8.45414C130.723 7.03128 129.071 6.20752 127.263 6.20752H25.9667C22.3489 6.35729 19.3604 8.82857 18.7313 12.1985L5.12551 94.7991C4.96822 95.6977 5.0469 96.6713 5.36149 97.495C5.44013 97.6448 5.51877 97.8695 5.59741 98.0193C5.67606 98.169 5.7547 98.3188 5.83334 98.4686C5.91199 98.6184 5.99062 98.6932 6.06927 98.843C6.14792 98.9928 6.30523 99.0677 6.38387 99.2175C6.54116 99.3672 6.61981 99.517 6.7771 99.5919C6.85575 99.6668 6.93438 99.7417 7.01303 99.8165C7.24897 99.9663 7.4849 100.116 7.79949 100.266L8.11409 100.416C8.35003 100.491 8.58594 100.565 8.82187 100.64L9.13648 100.715C9.52971 100.79 9.84426 100.79 10.2375 100.79H111.533C112.398 100.79 113.264 100.64 114.05 100.341C114.836 100.041 115.623 99.5919 116.252 99.0677C117.589 98.0193 118.454 96.5215 118.769 94.7991L129.858 27.4006L132.374 12.1985C132.61 11.8989 132.61 11.5994 132.61 11.2999Z" fill="#CDD6ED"/>
<path opacity="0.2683" d="M132.296 11.4496C132.296 11.3747 132.296 11.3748 132.296 11.2999V11.225C132.296 11.225 132.296 11.0752 132.296 11.0003C132.296 10.8505 132.296 10.7008 132.217 10.551C132.217 10.4761 132.217 10.4012 132.139 10.2514C132.139 10.1017 132.06 9.95189 132.06 9.877C132.06 9.80211 132.06 9.80211 131.981 9.72723C131.903 9.57745 131.903 9.50256 131.824 9.35279C131.745 9.20302 131.667 9.05324 131.588 8.82858C131.51 8.60392 131.431 8.67881 131.431 8.60392C130.408 7.18106 128.757 6.35731 126.948 6.43219H26.2027C22.585 6.50708 19.5965 9.05324 18.9673 12.3483L5.44022 94.5745C5.28293 95.4731 5.36157 96.3718 5.67615 97.2704C5.75479 97.4202 5.83343 97.6448 5.91208 97.7946C5.99072 97.9444 6.06941 98.0942 6.14805 98.2439C6.2267 98.3937 6.30533 98.4686 6.38398 98.6184C6.46263 98.7681 6.61989 98.843 6.69853 98.9928C6.85583 99.1426 7.01312 99.2175 7.09176 99.3672C7.17041 99.4421 7.24908 99.517 7.40637 99.5919C7.6423 99.7417 7.87824 99.8914 8.19283 100.041L8.50743 100.191C8.74337 100.266 8.97927 100.341 9.21521 100.416L9.52981 100.491C9.92304 100.565 10.2376 100.565 10.6308 100.565H111.376C112.241 100.565 113.106 100.416 113.893 100.116C114.679 99.8166 115.466 99.3673 116.095 98.843C117.432 97.7946 118.297 96.2969 118.612 94.6494L129.622 27.5504L132.139 12.4981C132.217 12.1236 132.296 11.7492 132.296 11.4496Z" fill="#C9D2EB"/>
<path opacity="0.2927" d="M131.981 11.6743C131.981 11.5994 131.981 11.5994 131.981 11.5245C131.981 11.4497 131.981 11.4496 131.981 11.4496C131.981 11.4496 131.981 11.2999 131.981 11.225C131.981 11.0752 131.981 10.9254 131.981 10.8505C131.981 10.7757 131.903 10.7008 131.903 10.551C131.903 10.4012 131.824 10.2515 131.745 10.1766L131.667 10.0268C131.588 9.87702 131.588 9.80214 131.509 9.65236C131.431 9.50259 131.352 9.3528 131.273 9.12814C131.195 9.05325 131.195 8.97838 131.116 8.90349C130.094 7.48063 128.442 6.65687 126.712 6.73175H26.4386C22.8996 6.80664 19.911 9.27793 19.2818 12.6479L5.83341 94.4247C5.67612 95.3233 5.75475 96.222 6.06934 97.1206C6.14798 97.2704 6.22662 97.4951 6.30526 97.6448C6.38391 97.7946 6.46259 97.9444 6.54124 98.0942C6.61989 98.2439 6.69852 98.3188 6.77717 98.4686C6.85581 98.6184 6.93443 98.6933 7.09172 98.843C7.24901 98.9928 7.40631 99.1426 7.48495 99.2175C7.5636 99.2924 7.64228 99.3672 7.72093 99.4421C7.95687 99.5919 8.1928 99.7417 8.50739 99.8915C8.58603 99.9663 8.74329 99.9663 8.82194 100.041C9.05788 100.116 9.29383 100.191 9.52977 100.266C9.60842 100.266 9.76568 100.341 9.84433 100.341C10.2376 100.416 10.5522 100.416 10.9454 100.416H111.219C112.084 100.416 112.949 100.266 113.735 99.9663C114.522 99.6668 115.308 99.2175 115.938 98.6933C117.275 97.6448 118.14 96.1471 118.454 94.4996L129.465 27.7751L131.903 12.7976C131.981 12.3483 131.981 12.0487 131.981 11.6743Z" fill="#C4CEE9"/>
<path opacity="0.3171" d="M131.667 11.8989C131.667 11.824 131.667 11.824 131.667 11.7491C131.667 11.6743 131.667 11.6743 131.667 11.6743C131.667 11.6743 131.667 11.5245 131.667 11.4496C131.667 11.3747 131.667 11.1501 131.588 11.0752C131.509 11.0003 131.588 10.9254 131.509 10.7756C131.431 10.6258 131.431 10.4761 131.431 10.4012C131.431 10.3263 131.431 10.3263 131.352 10.2514C131.274 10.1016 131.274 10.0267 131.195 9.95186C131.116 9.80208 131.038 9.65231 130.959 9.50253C130.88 9.42764 130.88 9.35277 130.802 9.27788C129.779 7.85502 128.128 7.03126 126.397 7.10614H26.6745C23.1355 7.18103 20.1469 9.65231 19.5178 13.0222L6.14798 94.3497C5.99069 95.2484 6.06933 96.147 6.38391 96.9708C6.46256 97.1206 6.54119 97.3452 6.61984 97.495C6.69849 97.6448 6.77712 97.7945 6.85577 97.9443C6.93441 98.0941 7.01305 98.169 7.0917 98.3188C7.17034 98.4685 7.32765 98.5434 7.4063 98.6932C7.56359 98.843 7.72088 98.9927 7.79953 99.0676C7.95682 99.2174 7.95681 99.2174 8.03546 99.2923C8.27139 99.4421 8.50733 99.5918 8.82191 99.7416C8.90056 99.8165 9.05787 99.8165 9.13652 99.8914C9.37245 99.9663 9.60836 100.041 9.8443 100.116L10.1589 100.191C10.5521 100.266 10.8667 100.266 11.26 100.266H110.983C111.848 100.266 112.634 100.116 113.5 99.8165C114.286 99.5169 114.994 99.0676 115.702 98.5434C117.039 97.495 117.904 95.9973 118.218 94.3497L129.15 27.9248L131.588 13.0222C131.588 12.5729 131.667 12.1985 131.667 11.8989Z" fill="#BFCAE7"/>
<path opacity="0.3415" d="M131.273 12.1236C131.273 12.0487 131.273 12.0487 131.273 11.9738C131.273 11.8989 131.273 11.8989 131.273 11.8989C131.273 11.8989 131.273 11.7492 131.273 11.6743C131.273 11.5994 131.273 11.3747 131.195 11.2998C131.116 11.2249 131.195 11.1501 131.116 11.0003C131.116 10.8505 131.038 10.7756 131.038 10.6258L130.959 10.4761C130.88 10.3263 130.88 10.2514 130.802 10.1765C130.723 10.0268 130.644 9.87697 130.566 9.7272L130.408 9.50254C129.465 8.15457 127.813 7.33081 126.004 7.33081H26.8318C23.2928 7.4057 20.3042 9.87698 19.7537 13.172L6.46256 94.1251C6.30527 95.0237 6.3839 95.9224 6.69849 96.7461C6.77713 96.8959 6.85582 97.0457 6.93446 97.2704C7.01311 97.4201 7.09174 97.5699 7.17039 97.7197C7.24904 97.8695 7.32767 97.9444 7.40632 98.0941C7.48496 98.2439 7.64228 98.3188 7.72092 98.4686C7.87821 98.6183 7.95686 98.6932 8.11415 98.843C8.1928 98.9179 8.27141 98.9928 8.4287 99.0677C8.66464 99.2174 8.90058 99.3672 9.21516 99.517L9.52976 99.6667C9.7657 99.7416 10.0016 99.8165 10.2375 99.8914C10.3162 99.8914 10.4735 99.9663 10.5522 99.9663C10.9454 100.041 11.26 100.041 11.6532 100.041H110.826C111.691 100.041 112.477 99.8914 113.264 99.5919C114.05 99.2923 114.758 98.843 115.466 98.3188C116.803 97.2704 117.668 95.7726 117.982 94.2L128.835 28.1495L131.273 13.3218C131.273 12.7227 131.352 12.4231 131.273 12.1236Z" fill="#BAC6E5"/>
<path opacity="0.3659" d="M130.959 12.3483C130.959 12.2734 130.959 12.2734 130.959 12.1985V12.1237C130.959 12.1237 130.959 11.9739 130.959 11.899C130.959 11.7492 130.959 11.5995 130.959 11.5246C130.959 11.4497 130.88 11.3748 130.88 11.225C130.88 11.0752 130.802 10.9255 130.802 10.8506C130.802 10.7757 130.802 10.7757 130.723 10.7008C130.644 10.551 130.644 10.4761 130.566 10.4013C130.487 10.2515 130.408 10.1017 130.33 9.95193L130.172 9.72727C129.229 8.3793 127.577 7.55554 125.847 7.55554H27.0678C23.5287 7.63043 20.6188 10.1017 19.9896 13.3967L6.77713 93.9005C6.61984 94.7992 6.69848 95.6978 7.01306 96.5216C7.09171 96.6713 7.17034 96.8211 7.24899 97.0458C7.32764 97.1955 7.40627 97.3453 7.48492 97.4951C7.56356 97.6449 7.64225 97.7198 7.72089 97.8695C7.79954 98.0193 7.9568 98.0942 8.03545 98.244C8.19274 98.3937 8.27139 98.4686 8.42868 98.6184C8.50732 98.6933 8.58596 98.7682 8.66461 98.8431C8.90054 98.9929 9.13648 99.1426 9.45107 99.2924L9.76567 99.4422C10.0016 99.5171 10.2376 99.5919 10.4735 99.6668C10.5521 99.6668 10.7094 99.7417 10.7881 99.7417C11.1813 99.8166 11.4959 99.8166 11.8891 99.8166H110.59C111.455 99.8166 112.241 99.6668 113.028 99.3673C113.814 99.0677 114.522 98.6184 115.151 98.0942C116.488 97.0458 117.353 95.548 117.589 93.9754L128.442 28.2244L130.88 13.4716C130.959 12.9474 130.959 12.6479 130.959 12.3483Z" fill="#B5C2E4"/>
<path opacity="0.3902" d="M130.644 12.5729C130.644 12.4981 130.644 12.4981 130.644 12.4232V12.3483C130.644 12.2734 130.644 12.1985 130.644 12.1236C130.644 12.0487 130.644 11.8241 130.566 11.7492C130.487 11.6743 130.566 11.5994 130.487 11.4496C130.487 11.2999 130.408 11.225 130.408 11.0752L130.33 10.9254C130.251 10.7757 130.251 10.7008 130.172 10.6259C130.094 10.4761 130.015 10.3263 129.937 10.1766C129.858 10.1017 129.858 10.0268 129.779 9.95189C128.757 8.60392 127.105 7.78016 125.375 7.85505H27.3037C23.8433 7.92994 20.8548 10.4012 20.2256 13.6214L7.0131 93.7507C6.8558 94.6493 6.93444 95.548 7.24902 96.3717C7.32767 96.5215 7.40633 96.7462 7.40633 96.896C7.48497 97.0457 7.56361 97.1955 7.64225 97.3453C7.7209 97.4951 7.79954 97.5699 7.87818 97.7197C7.95683 97.8695 8.03549 97.9444 8.19278 98.0942C8.35008 98.2439 8.42872 98.3188 8.58601 98.4686C8.66466 98.5435 8.74332 98.6184 8.90062 98.6932C9.13655 98.843 9.37249 98.9928 9.68707 99.1426L10.0016 99.2923C10.2376 99.3672 10.4735 99.4421 10.7095 99.517L11.024 99.5919C11.4172 99.6668 11.7318 99.6668 12.1251 99.6668H110.275C111.14 99.6668 111.927 99.517 112.713 99.2175C113.5 98.9179 114.207 98.4686 114.837 97.9444C116.173 96.896 117.039 95.4731 117.275 93.8256L128.049 28.449L130.487 13.7711C130.644 13.172 130.644 12.8725 130.644 12.5729Z" fill="#B0BDE2"/>
<path opacity="0.4146" d="M130.33 12.7227C130.33 12.6478 130.33 12.6478 130.33 12.5729C130.33 12.4981 130.33 12.498 130.33 12.498C130.33 12.498 130.33 12.3483 130.33 12.2734C130.33 12.1985 130.33 11.9738 130.251 11.899C130.173 11.8241 130.251 11.7492 130.172 11.5994C130.094 11.4496 130.094 11.3747 130.094 11.225C130.094 11.1501 130.015 11.1501 130.015 11.0752C129.937 10.9254 129.937 10.8505 129.858 10.7756C129.779 10.6259 129.701 10.4761 129.622 10.3263C129.543 10.2514 129.543 10.1765 129.465 10.1017C128.521 8.75369 126.869 7.92993 125.139 7.92993H27.5396C24.0792 8.00482 21.1693 10.4761 20.5402 13.6962L7.40629 93.3763C7.24899 94.2749 7.32763 95.1736 7.64221 95.9973C7.72086 96.1471 7.7995 96.3718 7.87814 96.5215C7.95679 96.6713 8.03547 96.8211 8.11412 96.9709C8.19276 97.1206 8.2714 97.1955 8.35005 97.3453C8.42869 97.4951 8.58595 97.57 8.6646 97.7197C8.82189 97.8695 8.90054 97.9444 9.05783 98.0942C9.13648 98.1691 9.21516 98.2439 9.29381 98.3188C9.52974 98.4686 9.76568 98.6184 10.0803 98.7682L10.3948 98.9179C10.6308 98.9928 10.8667 99.0677 11.1027 99.1426C11.1813 99.1426 11.3386 99.2175 11.4172 99.2175C11.8104 99.2924 12.125 99.2923 12.5183 99.2923H110.196C111.062 99.2923 111.848 99.1426 112.634 98.843C113.421 98.5435 114.129 98.0942 114.758 97.6448C116.016 96.5964 116.881 95.1736 117.196 93.526L127.892 28.449L130.33 13.846C130.33 13.3967 130.33 13.0971 130.33 12.7227Z" fill="#ABB9E0"/>
<path opacity="0.439" d="M130.015 12.9473C130.015 12.8724 130.015 12.8725 130.015 12.7976C130.015 12.7227 130.015 12.7227 130.015 12.7227C130.015 12.7227 130.015 12.5729 130.015 12.498C130.015 12.4231 130.015 12.1985 130.015 12.1236C130.015 12.0487 129.937 11.9738 129.937 11.824C129.937 11.6743 129.858 11.5994 129.858 11.4496C129.858 11.2998 129.858 11.3747 129.779 11.2998C129.701 11.2249 129.701 11.0752 129.622 11.0003C129.543 10.8505 129.465 10.7007 129.386 10.5509L129.229 10.3263C128.285 8.97831 126.633 8.15455 124.903 8.22944H27.6969C24.2365 8.30433 21.3267 10.7007 20.6975 13.9958L7.64225 93.3013C7.48496 94.2 7.56359 95.0986 7.87817 95.9224C7.95682 96.0722 7.95683 96.2219 8.03548 96.3717C8.11412 96.5215 8.19276 96.6713 8.2714 96.821C8.35005 96.9708 8.42873 97.0457 8.50738 97.1955C8.58603 97.3452 8.66464 97.4201 8.82193 97.5699C8.97923 97.7197 9.05787 97.7946 9.21516 97.9443C9.29381 98.0192 9.37245 98.0941 9.45109 98.169C9.68703 98.3188 9.92297 98.4685 10.2376 98.6183L10.5522 98.7681C10.7881 98.843 11.024 98.9179 11.26 98.9928L11.5745 99.0676C11.8891 99.1425 12.2824 99.1425 12.6756 99.1425H109.803C110.668 99.1425 111.455 98.9928 112.241 98.6932C113.028 98.3937 113.735 98.0192 114.365 97.495C115.623 96.4466 116.488 95.0237 116.803 93.4511L127.42 28.7485L129.779 14.2204C130.015 13.5464 130.015 13.2469 130.015 12.9473Z" fill="#A6B5DE"/>
<path opacity="0.4634" d="M129.701 13.172C129.701 13.0971 129.701 13.0971 129.701 13.0222V12.9473C129.701 12.9473 129.701 12.7976 129.701 12.7227C129.701 12.5729 129.701 12.498 129.701 12.3482C129.701 12.2734 129.701 12.1985 129.622 12.1236C129.622 11.9738 129.543 11.8989 129.543 11.7491L129.465 11.5994C129.465 11.5245 129.386 11.3747 129.307 11.2998C129.229 11.2249 129.15 11.0003 129.071 10.8505C128.993 10.7756 128.993 10.7007 128.914 10.6258C127.97 9.27786 126.319 8.45411 124.667 8.529H27.9328C24.4724 8.60389 21.6412 11.0003 21.012 14.2204L8.03544 93.0767C7.87814 93.9753 7.95678 94.7991 8.27136 95.6228C8.35001 95.7726 8.42866 95.9224 8.42866 96.0721C8.50731 96.2219 8.58595 96.3717 8.66459 96.5215C8.74324 96.6712 8.82192 96.7461 8.90057 96.8959C8.97921 97.0457 9.05783 97.1206 9.21512 97.2703C9.37241 97.4201 9.45106 97.495 9.60835 97.6448C9.687 97.7197 9.76563 97.7945 9.84428 97.8694C10.0802 98.0192 10.3162 98.169 10.6307 98.3188C10.7094 98.3936 10.788 98.3937 10.9453 98.3937C11.1813 98.4685 11.4172 98.5434 11.6532 98.6183L11.9677 98.6932C12.2823 98.7681 12.6755 98.7681 12.9901 98.7681H109.646C110.432 98.7681 111.297 98.6183 112.084 98.3188C112.87 98.0192 113.578 97.6448 114.207 97.1206C115.466 96.0721 116.331 94.6493 116.645 93.0767L127.263 28.6737L129.622 14.2204C129.701 13.7711 129.701 13.4716 129.701 13.172Z" fill="#A1B1DC"/>
<path opacity="0.4878" d="M129.386 13.3968C129.386 13.3219 129.386 13.3219 129.386 13.247V13.1721C129.386 13.0972 129.386 13.0224 129.386 12.9475C129.386 12.7977 129.386 12.6479 129.307 12.573C129.307 12.4981 129.307 12.4233 129.229 12.3484C129.229 12.1986 129.15 12.1237 129.15 11.9739C129.15 11.899 129.15 11.8991 129.071 11.8242C129.071 11.7493 128.993 11.5995 128.914 11.5246C128.835 11.3748 128.757 11.2251 128.678 11.0753L128.521 10.8506C127.577 9.50266 126.004 8.75378 124.274 8.75378H28.1689C24.7871 8.82867 21.8772 11.2251 21.248 14.4452L8.35013 92.7024C8.19284 93.5261 8.27148 94.4248 8.58606 95.2485C8.66471 95.3983 8.74336 95.5481 8.74336 95.6978C8.82201 95.8476 8.90064 95.9974 8.97929 96.1472C9.05794 96.2969 9.13657 96.3718 9.21522 96.5216C9.29386 96.5965 9.37253 96.7463 9.52982 96.896C9.68711 97.0458 9.76576 97.1207 9.92305 97.2705C10.0803 97.3454 10.0803 97.4202 10.159 97.4951C10.3949 97.6449 10.6309 97.7947 10.9454 97.9445L11.26 98.0942C11.496 98.1691 11.7319 98.244 11.9678 98.3189L12.2824 98.3938C12.597 98.4687 12.9902 98.4687 13.3048 98.4687H109.41C110.196 98.4687 110.983 98.3189 111.769 98.0193C112.556 97.7198 113.264 97.3454 113.893 96.8211C115.151 95.7727 116.016 94.3499 116.331 92.7772L126.948 28.7487L129.307 14.3703C129.386 13.9959 129.386 13.6963 129.386 13.3968Z" fill="#9CADDA"/>
<path opacity="0.5122" d="M129.071 13.6214C129.071 13.5465 129.071 13.5465 129.071 13.4716C129.071 13.3967 129.071 13.3967 129.071 13.3967C129.071 13.3967 129.071 13.247 129.071 13.1721C129.071 13.0972 129.071 12.8725 129.071 12.7976C129.071 12.7228 128.993 12.6479 128.993 12.573C128.993 12.4232 128.914 12.3483 128.914 12.1985L128.835 12.0488C128.835 11.9739 128.757 11.8241 128.678 11.7492C128.599 11.5994 128.521 11.4497 128.442 11.2999L128.285 11.0752C127.341 9.72727 125.768 8.97839 124.038 8.97839H28.4047C25.0229 9.05328 22.113 11.4497 21.5625 14.5949L8.7432 92.6274C8.58591 93.4512 8.66454 94.3498 8.97913 95.1736C9.05777 95.3234 9.13643 95.4731 9.13643 95.6229C9.21507 95.7727 9.29371 95.9225 9.37236 96.0722C9.451 96.222 9.52964 96.2969 9.60828 96.3718C9.68693 96.5216 9.7656 96.5965 9.92289 96.7462C10.0802 96.896 10.1588 96.9709 10.3161 97.1207C10.4734 97.2704 10.4734 97.2704 10.552 97.3453C10.788 97.4951 11.0239 97.6449 11.3385 97.7946C11.4171 97.8695 11.4958 97.8695 11.6531 97.8695C11.889 97.9444 12.125 98.0193 12.3609 98.0942L12.6755 98.1691C12.9901 98.244 13.3833 98.244 13.6979 98.244H109.331C110.118 98.244 110.904 98.0942 111.691 97.7946C112.477 97.4951 113.185 97.1207 113.814 96.5965C115.072 95.548 115.859 94.1252 116.173 92.6274L126.633 28.8984L128.993 14.5949C128.993 14.2205 129.071 13.9209 129.071 13.6214Z" fill="#97A9D9"/>
<path opacity="0.5366" d="M128.757 13.846C128.757 13.7711 128.757 13.7711 128.757 13.6962C128.757 13.6213 128.757 13.6213 128.757 13.6213C128.757 13.6213 128.757 13.4716 128.757 13.3967C128.757 13.2469 128.757 13.172 128.757 13.0223C128.757 12.9474 128.757 12.8725 128.678 12.7976C128.678 12.6478 128.6 12.5729 128.6 12.4232C128.6 12.3483 128.6 12.3483 128.521 12.2734C128.521 12.1985 128.442 12.0487 128.364 11.9738C128.285 11.8241 128.206 11.6743 128.128 11.5245C128.049 11.4496 128.049 11.3747 127.97 11.2998C127.027 9.95188 125.454 9.203 123.802 9.203H28.6407C25.259 9.27789 22.4277 11.6743 21.7985 14.8195L8.97928 92.3278C8.82199 93.1516 8.90063 94.0502 9.21521 94.874C9.29386 95.0238 9.37251 95.1735 9.37251 95.3233C9.45116 95.4731 9.52979 95.6229 9.60844 95.7726C9.68709 95.8475 9.76572 95.9973 9.84437 96.0722C9.92301 96.222 10.0017 96.2968 10.159 96.3717C10.3163 96.5215 10.3949 96.5964 10.5522 96.7462C10.6308 96.821 10.7095 96.896 10.7881 96.9708C11.0241 97.1206 11.26 97.2704 11.5746 97.4201L11.8892 97.495C12.1251 97.5699 12.361 97.6448 12.597 97.7197C12.6756 97.7197 12.7543 97.7946 12.9116 97.7946C13.2262 97.8695 13.6194 97.8695 13.934 97.8695H109.095C109.882 97.8695 110.668 97.7197 111.455 97.4201C112.241 97.1206 112.87 96.7462 113.5 96.222C114.758 95.1735 115.544 93.8256 115.859 92.2529L126.319 28.8983L128.678 14.6698C128.757 14.4451 128.757 14.1456 128.757 13.846Z" fill="#92A5D7"/>
<path opacity="0.561" d="M128.442 13.9958C128.442 13.9209 128.442 13.9209 128.442 13.846V13.7711C128.442 13.6962 128.442 13.6214 128.442 13.5465C128.442 13.4716 128.442 13.2469 128.364 13.172C128.285 13.0971 128.364 13.0223 128.285 12.9474C128.206 12.8725 128.206 12.7227 128.206 12.5729L128.128 12.4232C128.128 12.3483 128.049 12.1985 127.97 12.1236C127.892 12.0487 127.813 11.8241 127.734 11.6743C127.656 11.5245 127.656 11.5245 127.577 11.4496C126.633 10.1017 125.061 9.35278 123.409 9.35278H28.798C25.4162 9.42767 22.585 11.7492 22.0344 14.8944L9.37247 92.1032C9.21518 92.9269 9.29382 93.8256 9.6084 94.6493C9.68705 94.7991 9.68706 94.9489 9.7657 95.0986C9.84435 95.2484 9.92298 95.3982 10.0016 95.548C10.0803 95.6977 10.1589 95.7726 10.2376 95.9224C10.3162 96.0722 10.3949 96.1471 10.5522 96.222C10.6308 96.3717 10.7881 96.4466 10.9454 96.5964C11.1027 96.7462 11.1027 96.7462 11.1813 96.821C11.4173 96.9708 11.6532 97.1206 11.9678 97.2704C12.0464 97.3453 12.1251 97.3453 12.2824 97.3453C12.5183 97.4202 12.7542 97.495 12.9902 97.5699C13.0688 97.5699 13.2261 97.6448 13.3048 97.6448C13.6193 97.7197 14.0126 97.7197 14.3272 97.7197H108.859C109.646 97.7197 110.432 97.5699 111.219 97.2704C112.005 96.9708 112.634 96.5964 113.264 96.0722C114.522 95.0986 115.387 93.6758 115.623 92.1032L126.004 29.0481L128.364 14.8944C128.442 14.5949 128.442 14.2953 128.442 13.9958Z" fill="#8DA1D5"/>
<path opacity="0.5854" d="M128.128 14.2205C128.128 14.1456 128.128 14.1456 128.128 14.0707V13.9959C128.128 13.921 128.128 13.8461 128.128 13.7712C128.128 13.6963 128.128 13.5465 128.128 13.3968C128.128 13.247 128.049 13.247 128.049 13.1721C128.049 13.0972 127.97 12.9474 127.97 12.7977C127.97 12.6479 127.97 12.7228 127.892 12.6479C127.892 12.573 127.813 12.4232 127.734 12.3483C127.656 12.1986 127.577 12.0488 127.498 11.899C127.42 11.8241 127.42 11.7492 127.341 11.6744C126.397 10.3264 124.824 9.57751 123.094 9.57751H29.0339C25.6522 9.6524 22.8996 11.9739 22.2704 15.1192L9.60843 91.8786C9.45114 92.7023 9.52978 93.601 9.84436 94.4247C9.92301 94.5745 9.92302 94.7243 10.0017 94.8741C10.0803 95.0238 10.1589 95.1736 10.2376 95.2485C10.3162 95.3983 10.3949 95.4732 10.4736 95.548C10.5522 95.6978 10.6308 95.7727 10.7881 95.9225C10.9454 96.0723 11.0241 96.1471 11.1813 96.2969C11.26 96.3718 11.3386 96.4467 11.4173 96.5216C11.6532 96.6714 11.9678 96.8211 12.2037 96.9709C12.2824 97.0458 12.361 97.0458 12.5183 97.0458C12.7543 97.1207 12.9902 97.1956 13.2262 97.2705L13.5407 97.3454C13.8553 97.4202 14.2485 97.4202 14.5631 97.4202H108.623C109.41 97.4202 110.196 97.2705 110.983 96.9709C111.691 96.6714 112.398 96.2969 113.028 95.7727C114.286 94.7992 115.151 93.3763 115.387 91.8786L125.69 29.198L128.049 15.1192C128.128 14.8196 128.128 14.5201 128.128 14.2205Z" fill="#889DD3"/>
<path opacity="0.6098" d="M127.813 14.4452C127.813 14.3703 127.813 14.3703 127.813 14.2954C127.813 14.2205 127.813 14.2205 127.813 14.2205C127.813 14.2205 127.813 14.0707 127.813 13.9958C127.813 13.8461 127.813 13.7712 127.813 13.6214C127.813 13.5465 127.813 13.4716 127.734 13.3967C127.734 13.247 127.656 13.1721 127.656 13.0223L127.577 12.8725C127.577 12.7976 127.499 12.6479 127.42 12.573C127.341 12.4981 127.263 12.2734 127.184 12.1236C127.105 11.9739 127.105 11.9739 127.027 11.899C126.083 10.6259 124.51 9.80214 122.858 9.87703H29.2699C25.9667 9.95192 23.1355 12.2734 22.585 15.4187L10.0016 91.8037C9.84433 92.6274 9.92297 93.5261 10.2375 94.2749C10.3162 94.4247 10.3162 94.5745 10.3949 94.7243C10.4735 94.8741 10.5521 95.0238 10.6308 95.0987C10.7094 95.1736 10.7881 95.3234 10.8668 95.3983L11.1813 95.7727L11.5745 96.1471C11.6532 96.222 11.7318 96.2969 11.8105 96.3718C12.0464 96.5216 12.361 96.6713 12.5969 96.8211L12.9115 96.896C13.1475 96.9709 13.3834 97.0458 13.5407 97.1207C13.6193 97.1207 13.698 97.1955 13.8553 97.1955C14.1699 97.2704 14.5631 97.2704 14.8777 97.2704H108.466C109.253 97.2704 110.039 97.1207 110.826 96.8211C111.533 96.5216 112.241 96.1471 112.87 95.6229C114.129 94.6494 114.915 93.2265 115.23 91.7288L125.454 29.3477L127.734 15.3438C127.813 15.0442 127.813 14.7447 127.813 14.4452Z" fill="#8399D1"/>
<path opacity="0.6341" d="M127.499 14.6698C127.499 14.5949 127.499 14.5949 127.499 14.52V14.4451C127.499 14.3702 127.499 14.2953 127.499 14.2204C127.499 14.0707 127.499 13.9958 127.499 13.846C127.499 13.7711 127.499 13.6962 127.42 13.6213C127.42 13.4716 127.341 13.3967 127.341 13.2469C127.341 13.172 127.341 13.172 127.263 13.0971C127.263 13.0222 127.184 12.8725 127.105 12.7976C127.027 12.6478 126.948 12.498 126.869 12.3483C126.791 12.2734 126.791 12.1985 126.712 12.1236C125.768 10.8505 124.274 10.0268 122.622 10.1016H29.4272C26.124 10.1765 23.2928 12.498 22.7423 15.5684L10.2376 91.5041C10.0803 92.3278 10.159 93.1516 10.4735 93.9753C10.5522 94.1251 10.5522 94.2749 10.6308 94.4247C10.7094 94.5744 10.7881 94.7242 10.8668 94.7991C10.9454 94.874 11.0241 95.0238 11.1027 95.0987C11.1814 95.2484 11.26 95.3233 11.4173 95.4731C11.5746 95.6229 11.6532 95.6978 11.8105 95.8475C11.9678 95.9973 11.9678 95.9973 12.0465 96.0722C12.2824 96.222 12.5183 96.3717 12.8329 96.5215L13.1475 96.5964C13.3834 96.6713 13.6193 96.7462 13.7766 96.8211L14.0912 96.896C14.4058 96.9708 14.799 96.9708 15.1136 96.9708H108.152C108.938 96.9708 109.725 96.8211 110.511 96.5215C111.219 96.222 111.927 95.8475 112.556 95.3233C113.814 94.3498 114.601 92.9269 114.915 91.4292L125.139 29.4225L127.42 15.4935C127.499 15.2689 127.499 14.9693 127.499 14.6698Z" fill="#7E94CF"/>
<path opacity="0.6585" d="M127.184 14.8944C127.184 14.8195 127.184 14.8195 127.184 14.7446V14.6698C127.184 14.5949 127.184 14.52 127.184 14.4451C127.184 14.3702 127.184 14.2204 127.184 14.0707C127.184 13.9209 127.184 13.9209 127.105 13.846C127.027 13.7711 127.027 13.6213 127.027 13.4716L126.948 13.3218C126.948 13.2469 126.869 13.0971 126.791 13.0222C126.712 12.8725 126.633 12.7227 126.555 12.5729C126.476 12.498 126.476 12.4231 126.397 12.3482C125.454 11.0752 123.959 10.3263 122.308 10.3263H29.6631C26.36 10.4012 23.6074 12.7227 22.9782 15.7931L10.5522 91.3543C10.3949 92.178 10.4735 93.0018 10.7881 93.8255C10.8667 93.9753 10.8667 94.1251 10.9454 94.2749C11.024 94.4246 11.1027 94.5744 11.1813 94.6493C11.26 94.7242 11.3386 94.874 11.4172 94.9488C11.4959 95.0237 11.5746 95.1735 11.7318 95.2484C11.8891 95.3982 11.9678 95.473 12.1251 95.6228C12.2037 95.6977 12.2824 95.7726 12.361 95.8475C12.5969 95.9973 12.8329 96.147 13.1475 96.2968L13.4621 96.3717C13.698 96.4466 13.9339 96.5215 14.0912 96.5964L14.4058 96.6712C14.7204 96.7461 15.1136 96.7461 15.4282 96.7461H107.994C108.781 96.7461 109.567 96.5964 110.275 96.2968C110.983 95.9973 111.691 95.6228 112.32 95.0986C113.578 94.1251 114.365 92.7771 114.679 91.2045L124.825 29.4974L127.105 15.6433C127.184 15.4935 127.184 15.194 127.184 14.8944Z" fill="#7990CE"/>
<path opacity="0.6829" d="M126.791 15.1191C126.791 15.0443 126.791 15.0443 126.791 14.9694C126.791 14.8945 126.791 14.8945 126.791 14.8945C126.791 14.8945 126.791 14.7447 126.791 14.6698C126.791 14.5949 126.791 14.4452 126.791 14.2954C126.791 14.1456 126.791 14.1456 126.712 14.0707C126.712 13.9209 126.633 13.8461 126.633 13.6963L126.555 13.5465C126.555 13.4716 126.476 13.3218 126.397 13.247C126.319 13.0972 126.24 12.9474 126.161 12.7976L126.004 12.573C125.06 11.2999 123.566 10.551 121.915 10.551H29.899C26.5958 10.6259 23.8433 12.9474 23.2928 16.0178L10.9453 91.1297C10.7881 91.9534 10.8667 92.7772 11.1813 93.601C11.2599 93.7507 11.3386 93.9005 11.3386 94.0503C11.4172 94.2 11.4959 94.3498 11.5745 94.4247C11.6532 94.4996 11.7318 94.6494 11.8104 94.7243C11.8891 94.874 11.9677 94.9489 12.125 95.0238C12.2823 95.1736 12.361 95.2485 12.5183 95.3982C12.5969 95.4731 12.6755 95.548 12.7542 95.6229C12.9901 95.7727 13.2261 95.9225 13.5407 96.0722C13.6193 96.1471 13.698 96.1471 13.8553 96.1471C14.0912 96.222 14.2485 96.2969 14.4844 96.3718C14.5631 96.3718 14.6417 96.4467 14.799 96.4467C15.1136 96.5216 15.5068 96.5216 15.8214 96.5216H107.916C108.702 96.5216 109.489 96.3718 110.196 96.0722C110.904 95.7727 111.612 95.3982 112.163 94.874C113.342 93.9005 114.207 92.5525 114.443 91.0548L124.51 29.7221L126.791 15.9429C126.791 15.6434 126.791 15.4187 126.791 15.1191Z" fill="#748CCC"/>
<path opacity="0.7073" d="M126.476 15.2689C126.476 15.194 126.476 15.194 126.476 15.1191C126.476 15.0443 126.476 15.0443 126.476 15.0443C126.476 15.0443 126.476 14.8945 126.476 14.8196C126.476 14.6698 126.476 14.5949 126.476 14.4452C126.476 14.3703 126.476 14.2954 126.398 14.2205C126.319 14.1456 126.319 13.9958 126.319 13.8461L126.24 13.6963C126.24 13.6214 126.162 13.4716 126.083 13.3967C126.004 13.247 125.926 13.0972 125.847 12.9474C125.768 12.8725 125.768 12.7976 125.69 12.7228C124.825 11.4497 123.252 10.7008 121.679 10.7008H30.0564C26.8319 10.7757 24.0793 13.0223 23.5288 16.0927L11.26 90.7552C11.1028 91.579 11.1814 92.4028 11.496 93.2265C11.5746 93.3763 11.5746 93.5261 11.6533 93.6758C11.7319 93.8256 11.8106 93.9754 11.8892 94.0503C11.9678 94.2 12.0465 94.2749 12.1251 94.3498C12.2038 94.4996 12.2824 94.5745 12.4397 94.6494C12.597 94.7991 12.6757 94.874 12.833 95.0238C12.9116 95.0987 12.9902 95.1736 13.0689 95.2485C13.3048 95.3982 13.5407 95.548 13.7767 95.6978C13.8553 95.7727 13.934 95.7727 14.0913 95.7727C14.3272 95.8476 14.4845 95.9224 14.7204 95.9973L15.035 96.0722C15.3496 96.1471 15.6642 96.1471 16.0574 96.1471H107.601C108.388 96.1471 109.174 95.9973 109.882 95.6978C110.59 95.3982 111.298 95.0238 111.848 94.4996C113.028 93.5261 113.893 92.1781 114.129 90.6803L124.195 29.7222L126.476 16.0178C126.476 15.868 126.476 15.5685 126.476 15.2689Z" fill="#6F88CA"/>
<path opacity="0.7317" d="M126.161 15.4936C126.161 15.4187 126.161 15.4187 126.161 15.3438V15.269C126.161 15.269 126.161 15.1192 126.161 15.0443C126.161 14.9694 126.161 14.8196 126.161 14.6699C126.161 14.5201 126.162 14.5201 126.083 14.4452C126.004 14.3703 126.004 14.2205 126.004 14.0708L125.926 13.921C125.926 13.8461 125.847 13.6963 125.768 13.6214C125.69 13.4717 125.611 13.3219 125.532 13.1721C125.454 13.0972 125.454 13.0223 125.375 12.9474C124.51 11.6744 122.937 10.9255 121.364 11.0004H30.2922C27.0677 11.0753 24.3151 13.3219 23.7646 16.3923L11.5745 90.6804C11.4172 91.5041 11.4958 92.3279 11.8104 93.0768C11.8891 93.2265 11.8891 93.3763 11.9677 93.5261C12.0464 93.6759 12.125 93.8257 12.2037 93.9005C12.2823 94.0503 12.361 94.1252 12.4396 94.2001C12.5183 94.3499 12.5969 94.4247 12.7542 94.4996C12.8328 94.6494 12.9901 94.7243 13.1474 94.8741C13.2261 94.949 13.3047 95.0238 13.3833 95.0987C13.6193 95.2485 13.8552 95.3983 14.0912 95.548L14.3271 95.6229C14.563 95.6978 14.7203 95.7727 14.9563 95.8476L15.2709 95.9225C15.5854 95.9974 15.9787 95.9974 16.2932 95.9974H107.365C108.152 95.9974 108.938 95.8476 109.646 95.548C110.354 95.2485 111.061 94.8741 111.612 94.4247C112.792 93.4512 113.657 92.1032 113.893 90.6055L123.881 29.9468L126.083 16.3174C126.162 16.0927 126.161 15.7932 126.161 15.4936Z" fill="#6A84C8"/>
<path opacity="0.7561" d="M125.847 15.7182C125.847 15.6433 125.847 15.6433 125.847 15.5684V15.4936C125.847 15.4187 125.847 15.3438 125.847 15.2689C125.847 15.1191 125.847 15.0442 125.847 14.8945C125.847 14.7447 125.847 14.7447 125.768 14.6698C125.768 14.52 125.69 14.4451 125.69 14.2954L125.611 14.1456C125.611 14.0707 125.532 13.9209 125.454 13.846C125.375 13.6963 125.296 13.5465 125.218 13.3967L125.06 13.1721C124.195 11.899 122.622 11.1501 121.05 11.225H30.5283C27.3038 11.2999 24.6298 13.5465 24.0793 16.542L11.8892 90.4557C11.7319 91.2794 11.8105 92.1032 12.1251 92.8521C12.2038 93.0018 12.2038 93.1516 12.2824 93.3014C12.3611 93.4511 12.4397 93.6009 12.5184 93.6758C12.597 93.8256 12.6756 93.9005 12.7543 93.9754C12.8329 94.1251 12.9116 94.2 12.9902 94.2749L13.3834 94.6494C13.4621 94.7242 13.5408 94.7991 13.6194 94.874C13.8553 95.0238 14.0913 95.1736 14.3272 95.2484L14.6418 95.3233C14.8777 95.3982 15.035 95.4731 15.271 95.548L15.5856 95.6229C15.9001 95.6978 16.2147 95.6978 16.6079 95.6978H107.129C107.916 95.6978 108.702 95.548 109.41 95.2484C110.118 94.9489 110.826 94.5745 111.376 94.1251C112.556 93.1516 113.421 91.8036 113.657 90.3059L123.566 30.0217L125.768 16.4671C125.847 16.3173 125.847 16.0178 125.847 15.7182Z" fill="#6680C6"/>
<path opacity="0.7805" d="M125.532 15.9429C125.532 15.868 125.532 15.868 125.532 15.7931C125.532 15.7182 125.532 15.7182 125.532 15.7182C125.532 15.7182 125.532 15.5684 125.532 15.4936C125.532 15.3438 125.532 15.2689 125.532 15.1191C125.532 15.0442 125.532 14.9694 125.454 14.8945C125.375 14.8196 125.375 14.6698 125.375 14.52L125.296 14.3702C125.296 14.2954 125.218 14.1456 125.139 14.0707C125.06 13.9209 124.982 13.7711 124.903 13.6214C124.824 13.5465 124.824 13.4716 124.746 13.3967C123.881 12.1236 122.308 11.3748 120.656 11.3748H30.7641C27.5396 11.4496 24.8656 13.6963 24.3151 16.6918L12.2036 90.1561C12.0463 90.9799 12.125 91.8036 12.4396 92.5525C12.5183 92.7023 12.5182 92.852 12.5969 93.0018C12.6755 93.1516 12.7542 93.3014 12.8328 93.3763C12.9115 93.4511 12.9901 93.6009 13.0688 93.6758C13.1474 93.7507 13.226 93.9005 13.3833 93.9754C13.5406 94.0503 13.6193 94.2 13.7766 94.3498C13.9338 94.4247 13.9339 94.4996 14.0125 94.5745C14.2485 94.7242 14.4844 94.874 14.7203 95.0238L15.0349 95.0987C15.2709 95.1736 15.4281 95.2484 15.6641 95.3233L15.9787 95.3982C16.2933 95.4731 16.6078 95.4731 17.0011 95.4731H107.051C107.837 95.4731 108.545 95.3233 109.253 95.0238C109.96 94.7242 110.59 94.3498 111.219 93.9005C112.398 92.9269 113.185 91.6539 113.499 90.1561L123.33 30.1715L125.532 16.6918C125.532 16.542 125.532 16.2424 125.532 15.9429Z" fill="#617CC4"/>
<path opacity="0.8049" d="M125.218 16.1675C125.218 16.0927 125.218 16.0927 125.218 16.0178C125.218 15.9429 125.218 15.9429 125.218 15.9429C125.218 15.9429 125.218 15.7931 125.218 15.7182C125.218 15.5684 125.218 15.4936 125.218 15.3438C125.218 15.2689 125.218 15.194 125.139 15.1191C125.139 14.9693 125.06 14.8945 125.06 14.7447C125.06 14.6698 125.06 14.6698 124.982 14.5949C124.982 14.52 124.903 14.3703 124.825 14.2954C124.746 14.1456 124.667 13.9958 124.589 13.846C124.51 13.7712 124.51 13.6963 124.431 13.6214C123.566 12.3483 122.072 11.6743 120.499 11.6743H30.9215C27.7757 11.7492 25.0231 13.9958 24.4725 16.9913L12.4397 90.0812C12.2824 90.905 12.3611 91.7288 12.6757 92.4776C12.7543 92.6274 12.7543 92.7772 12.833 92.9269C12.9116 93.0767 12.9902 93.2265 13.0689 93.3014L13.3048 93.6009C13.3835 93.6758 13.4621 93.8256 13.6194 93.9005C13.7767 94.0502 13.8554 94.1251 14.0126 94.2749C14.0913 94.3498 14.1699 94.4247 14.2486 94.4996C14.4845 94.6493 14.7204 94.7991 14.9564 94.874L15.1923 94.9489C15.4283 95.0238 15.5856 95.0987 15.8215 95.1735C15.9001 95.1735 15.9788 95.2484 16.136 95.2484C16.4506 95.3233 16.7652 95.3233 17.0798 95.3233H106.579C107.365 95.3233 108.073 95.1735 108.781 94.874C109.489 94.5744 110.118 94.2 110.747 93.7507C111.927 92.7772 112.713 91.4292 112.949 90.0063L122.78 30.3961L124.982 16.9913C125.218 16.7666 125.218 16.4671 125.218 16.1675Z" fill="#5C78C3"/>
<path opacity="0.8293" d="M124.903 16.3923V16.2425V16.1676C124.903 16.0927 124.903 16.0178 124.903 15.943C124.903 15.7932 124.903 15.7183 124.903 15.5685C124.903 15.4187 124.903 15.4187 124.825 15.3439C124.746 15.269 124.746 15.1192 124.746 14.9694L124.667 14.8196C124.667 14.7448 124.589 14.595 124.51 14.5201C124.431 14.3703 124.353 14.2205 124.274 14.0708C124.274 13.9959 124.195 13.921 124.117 13.8461C123.252 12.573 121.757 11.899 120.184 11.899H31.1574C28.0116 11.9739 25.3376 14.1457 24.787 17.1412L12.8329 89.7818C12.6756 90.6055 12.7543 91.4293 13.0688 92.1781C13.1475 92.3279 13.1475 92.4777 13.2261 92.6275C13.3048 92.7772 13.3834 92.927 13.4621 93.0019C13.5407 93.1517 13.6194 93.2266 13.698 93.3014C13.7767 93.3763 13.8553 93.5261 13.9339 93.601C14.0126 93.6759 14.1699 93.8257 14.3272 93.9754C14.4058 94.0503 14.4844 94.1252 14.5631 94.2001C14.799 94.3499 15.035 94.4996 15.2709 94.5745C15.3496 94.6494 15.4282 94.6494 15.5855 94.6494C15.8215 94.7243 15.9787 94.7992 16.2147 94.8741L16.5292 94.949C16.8438 95.0239 17.1584 95.0239 17.473 95.0239H106.5C107.287 95.0239 107.994 94.8741 108.702 94.5745C109.41 94.275 110.039 93.9006 110.668 93.4512C111.848 92.4777 112.634 91.1297 112.87 89.7069L122.622 30.3962L124.825 17.0663C124.903 16.9165 124.903 16.6169 124.903 16.3923Z" fill="#5774C1"/>
<path opacity="0.8537" d="M124.589 16.6169C124.589 16.542 124.589 16.542 124.589 16.4671V16.3922C124.589 16.3174 124.589 16.2425 124.589 16.1676C124.589 16.0178 124.589 15.9429 124.589 15.7931C124.589 15.7183 124.589 15.6434 124.51 15.5685C124.431 15.4936 124.431 15.3438 124.431 15.194C124.431 15.1192 124.431 15.1192 124.353 15.0443C124.353 14.9694 124.274 14.8196 124.195 14.7447C124.117 14.5949 124.038 14.4452 123.959 14.2954L123.802 14.0707C122.937 12.7976 121.443 12.1237 119.87 12.1237H31.3933C28.2475 12.1985 25.5736 14.4452 25.023 17.3658L13.1475 89.557C12.9902 90.3808 13.0688 91.1297 13.3834 91.8785C13.4621 92.0283 13.4621 92.1781 13.5407 92.3279C13.6194 92.4777 13.698 92.6274 13.7767 92.7023C13.8553 92.7772 13.934 92.927 14.0126 93.0019C14.0913 93.0767 14.1699 93.2265 14.3272 93.3014C14.4058 93.4512 14.5631 93.5261 14.7204 93.601C14.8777 93.6759 14.8777 93.7507 14.9563 93.8256C15.1923 93.9754 15.4282 94.1252 15.6642 94.2001L15.9001 94.2749C16.136 94.3498 16.2933 94.4247 16.5293 94.4996L16.8439 94.5745C17.1584 94.6494 17.473 94.6494 17.7876 94.6494H106.264C107.051 94.6494 107.758 94.4996 108.466 94.2001C109.174 93.9005 109.803 93.5261 110.432 93.0768C111.612 92.1032 112.398 90.8301 112.634 89.4073L122.308 30.471L124.51 17.216C124.589 17.1411 124.589 16.8416 124.589 16.6169Z" fill="#5270BF"/>
<path opacity="0.878" d="M124.274 16.7667C124.274 16.6918 124.274 16.6918 124.274 16.6169C124.274 16.542 124.274 16.542 124.274 16.542C124.274 16.542 124.274 16.3922 124.274 16.3173C124.274 16.1676 124.274 16.0927 124.274 15.9429C124.274 15.868 124.274 15.7931 124.195 15.7182C124.195 15.5685 124.117 15.4936 124.117 15.3438L124.038 15.194C124.038 15.1191 123.959 14.9694 123.881 14.8945C123.802 14.7447 123.723 14.5949 123.645 14.4452L123.488 14.2205C122.622 13.0223 121.128 12.2734 119.634 12.2734H31.6292C28.4834 12.3483 25.8881 14.52 25.3376 17.4407L13.5407 89.2575C13.3834 90.0812 13.462 90.8301 13.7766 91.579C13.8553 91.7288 13.8553 91.8785 13.9339 92.0283C14.0126 92.1781 14.0912 92.3279 14.1698 92.4028C14.2485 92.4776 14.3272 92.6274 14.4058 92.7023C14.4845 92.7772 14.5631 92.927 14.6417 93.0018C14.799 93.2265 15.035 93.3763 15.2709 93.5261C15.5068 93.6758 15.7428 93.8256 15.9787 93.9005L16.2147 93.9754C16.4506 94.0503 16.6079 94.1252 16.8438 94.2L17.0797 94.2749C17.3943 94.3498 17.7089 94.3498 18.0235 94.3498H105.95C106.736 94.3498 107.444 94.2 108.152 93.9005C108.859 93.6009 109.489 93.2265 110.039 92.7772C111.219 91.8037 112.005 90.5306 112.241 89.1077L121.915 30.471L124.117 17.2909C124.274 17.3658 124.274 17.0662 124.274 16.7667Z" fill="#4D6BBD"/>
<path opacity="0.9024" d="M123.959 16.9913C123.959 16.9164 123.959 16.9164 123.959 16.8415C123.959 16.7666 123.959 16.7666 123.959 16.7666C123.959 16.7666 123.959 16.6169 123.959 16.542C123.959 16.4671 123.959 16.3173 123.959 16.1675C123.959 16.0178 123.959 16.0178 123.881 15.9429C123.802 15.868 123.802 15.7182 123.802 15.5684C123.802 15.4935 123.802 15.4935 123.724 15.4187C123.724 15.3438 123.645 15.194 123.566 15.1191C123.488 15.0442 123.409 14.8196 123.33 14.6698L123.173 14.4451C122.308 13.2469 120.892 12.498 119.319 12.498H31.7865C28.6407 12.5729 26.0454 14.7447 25.4949 17.6653L13.7766 89.0328C13.6193 89.7817 13.698 90.6054 14.0126 91.3543C14.0913 91.5041 14.0912 91.6538 14.1699 91.8036C14.2485 91.9534 14.3272 92.0283 14.4058 92.178C14.4845 92.2529 14.5631 92.4027 14.6418 92.4776C14.7204 92.5525 14.799 92.7023 14.9563 92.7772C15.035 92.9269 15.1923 93.0018 15.3496 93.0767C15.4282 93.1516 15.5069 93.2265 15.5855 93.3014C15.8215 93.4511 16.0574 93.6009 16.2933 93.6758L16.5292 93.7507C16.7652 93.8256 16.9225 93.9005 17.1584 93.9754L17.3944 94.0502C17.709 94.1251 18.0235 94.1251 18.3381 94.1251H105.871C106.579 94.1251 107.365 93.9753 108.073 93.7507C108.781 93.4511 109.41 93.0767 109.961 92.6274C111.14 91.7287 111.927 90.3808 112.163 88.9579L121.757 30.6956L123.959 17.5904C123.959 17.5904 123.959 17.2908 123.959 16.9913Z" fill="#4867BB"/>
<path opacity="0.9268" d="M123.645 17.216C123.645 17.1411 123.645 17.1411 123.645 17.0662V16.9913C123.645 16.9164 123.645 16.8415 123.645 16.7666C123.645 16.6169 123.645 16.542 123.645 16.3922C123.645 16.2424 123.645 16.2424 123.566 16.1675L123.488 15.7931L123.409 15.6433C123.409 15.5685 123.33 15.4187 123.252 15.3438C123.173 15.194 123.094 15.0442 123.016 14.8945C123.016 14.8196 122.937 14.7447 122.858 14.6698C121.993 13.4716 120.578 12.7227 119.005 12.7976H32.0224C28.9552 12.8725 26.36 15.0442 25.8094 17.9648L14.1698 88.9579C14.0125 89.7068 14.0912 90.5305 14.4058 91.2794C14.4844 91.4292 14.4844 91.579 14.5631 91.7287C14.6417 91.8785 14.7204 91.9534 14.799 92.1032L15.035 92.4027C15.1136 92.4776 15.1922 92.6274 15.2709 92.7023C15.3495 92.7772 15.5068 92.9269 15.6641 93.0018C15.7428 93.0767 15.8214 93.1516 15.9 93.2265C16.136 93.3763 16.3719 93.526 16.6079 93.6009L16.8438 93.6758C17.0797 93.7507 17.237 93.8256 17.473 93.8256L17.7089 93.9005C18.0235 93.9754 18.3381 93.9754 18.6526 93.9754H105.635C106.343 93.9754 107.129 93.8256 107.837 93.6009C108.545 93.3014 109.174 93.0018 109.725 92.4776C110.904 91.579 111.612 90.231 111.927 88.8081L121.443 30.8454L123.566 17.8151C123.566 17.7402 123.645 17.5155 123.645 17.216Z" fill="#4363B9"/>
<path opacity="0.9512" d="M123.33 17.4406C123.33 17.4406 123.33 17.3658 123.33 17.2909C123.33 17.216 123.33 17.216 123.33 17.216C123.33 17.216 123.33 17.0662 123.33 16.9913C123.33 16.8415 123.33 16.7667 123.33 16.6169C123.33 16.542 123.33 16.4671 123.252 16.3922C123.252 16.2425 123.173 16.1676 123.173 16.0927L123.094 15.9429C123.094 15.868 123.016 15.7182 122.937 15.6434C122.859 15.5685 122.78 15.3438 122.701 15.194L122.544 14.9694C121.679 13.7712 120.263 13.0223 118.69 13.0972H32.1798C29.1126 13.1721 26.5173 15.3438 25.9668 18.1895L14.3272 88.7333C14.1699 89.4822 14.2485 90.3059 14.5631 91.0548C14.6418 91.2046 14.6418 91.3543 14.7204 91.5041C14.7991 91.6539 14.8777 91.7288 14.9563 91.8785C15.035 91.9534 15.1137 92.1032 15.1923 92.1781C15.271 92.253 15.3496 92.4028 15.4282 92.4777C15.5069 92.5525 15.6642 92.7023 15.8215 92.7772C15.9001 92.8521 15.9788 92.927 16.0574 93.0019C16.2933 93.1516 16.5293 93.3014 16.7652 93.3763C16.8439 93.4512 16.9225 93.4512 17.0012 93.4512C17.2371 93.5261 17.3944 93.6009 17.6303 93.6758L17.9449 93.7507C18.2595 93.8256 18.5741 93.8256 18.8886 93.8256H105.399C106.107 93.8256 106.893 93.6758 107.523 93.4512C108.23 93.1516 108.86 92.8521 109.41 92.3279C110.511 91.4292 111.298 90.1562 111.612 88.7333L121.05 31.145L123.173 18.1895C123.33 17.9649 123.33 17.7402 123.33 17.4406Z" fill="#3E5FB8"/>
<path opacity="0.9756" d="M123.016 17.6653C123.016 17.5904 123.016 17.5904 123.016 17.5155C123.016 17.4406 123.016 17.4406 123.016 17.4406C123.016 17.3657 123.016 17.2908 123.016 17.2159C123.016 17.141 123.016 16.9913 123.016 16.8415C123.016 16.6917 123.016 16.6917 122.937 16.6168L122.858 16.3173L122.78 16.1675C122.78 16.0926 122.701 15.9428 122.623 15.868C122.544 15.7182 122.465 15.5684 122.387 15.4186L122.229 15.194C121.364 13.9958 119.949 13.2469 118.454 13.3218H32.4944C29.4272 13.3967 26.8319 15.4935 26.36 18.4141L14.7991 88.5086C14.6418 89.2574 14.7205 90.0812 15.035 90.8301C15.1137 90.9798 15.1137 91.1296 15.1923 91.2794C15.271 91.4292 15.3496 91.5041 15.4283 91.6538C15.5069 91.7287 15.5855 91.8785 15.6642 91.9534C15.7428 92.0283 15.8215 92.178 15.9001 92.2529C15.9788 92.4027 16.1361 92.4776 16.2933 92.5525C16.372 92.6273 16.4506 92.7022 16.5293 92.7771C16.7652 92.9269 17.0012 93.0767 17.2371 93.1516L17.473 93.2265C17.709 93.3013 17.8663 93.3762 18.1022 93.3762L18.3382 93.4511C18.6528 93.526 18.9673 93.526 19.2819 93.526H105.242C105.95 93.526 106.736 93.3762 107.365 93.1516C109.489 92.3278 110.983 90.6054 111.376 88.5086L120.814 31.2198L122.937 18.3392C122.937 18.1895 123.016 17.8899 123.016 17.6653Z" fill="#395BB6"/>
<path d="M122.622 17.89C122.622 17.8151 122.622 17.8151 122.622 17.7402V17.6653C122.622 17.5904 122.622 17.5155 122.622 17.4406C122.622 17.2909 122.622 17.216 122.622 17.0662C122.622 16.9164 122.622 16.9164 122.544 16.8415C122.544 16.6918 122.465 16.6169 122.465 16.542C122.465 16.4671 122.465 16.4671 122.387 16.3922C122.308 16.3173 122.308 16.1676 122.229 16.0927C122.151 15.9429 122.072 15.7931 121.993 15.6434C121.915 15.5685 121.915 15.4936 121.836 15.4187C120.971 14.2205 119.555 13.5465 118.061 13.5465H32.6516C29.5844 13.6214 27.0677 15.7182 26.5172 18.5639L15.0349 88.2839C14.8777 89.0328 14.9563 89.8566 15.2709 90.5305C15.3495 90.6803 15.3495 90.8301 15.4282 90.9799C15.5068 91.1297 15.5855 91.2045 15.6641 91.3543C15.7428 91.5041 15.8214 91.579 15.9 91.6539C15.9787 91.7287 16.0573 91.8785 16.136 91.9534C16.2146 92.1032 16.3719 92.1781 16.5292 92.2529C16.6078 92.3278 16.6865 92.4027 16.7652 92.4776C17.0011 92.6274 17.237 92.7772 17.4729 92.8521L17.7089 92.9269C17.8662 93.0018 18.1021 93.0767 18.3381 93.1516L18.574 93.2265C18.8886 93.3014 19.2032 93.3014 19.5178 93.3014H105.006C105.714 93.3014 106.421 93.1516 107.129 92.9269C107.837 92.7023 108.466 92.3278 109.017 91.8785C110.118 90.9799 110.904 89.7068 111.14 88.2839L120.499 31.3697L122.622 18.5639C122.622 18.4142 122.701 18.1146 122.622 17.89Z" fill="#3457B4"/>
<path d="M104.298 93.3014H5.44006C2.60881 93.3763 0.249422 91.2794 0.170776 88.5835C0.170776 88.2091 0.170805 87.8346 0.249451 87.4602L13.5406 6.80665C14.1697 3.51161 17.0796 1.04033 20.6187 0.965446H119.555C122.386 0.890559 124.746 2.9874 124.824 5.68334C124.824 6.05778 124.824 6.43221 124.746 6.80665L111.376 87.4602C110.826 90.7552 107.837 93.1516 104.298 93.3014Z" fill="white"/>
<path d="M121.207 1.19006C121.443 1.93894 121.521 2.76269 121.364 3.58645L108.073 84.24C107.444 87.535 104.534 89.9314 100.995 90.0812H2.05833C1.50781 90.0812 0.957259 90.0063 0.406738 89.7817C1.0359 91.8785 3.08072 93.3014 5.44009 93.2265H104.377C107.916 93.1516 110.825 90.6803 111.455 87.3853L124.746 6.73171C125.218 4.33532 123.723 1.93894 121.207 1.19006Z" fill="#E9E6E8"/>
<path d="M122.544 19.7621L124.667 6.73171C125.218 4.11066 123.488 1.56449 120.735 0.965395C120.342 0.890507 119.948 0.890503 119.555 0.890503H20.6188C17.0797 0.96539 14.1699 3.43667 13.5407 6.73171L11.4172 19.7621H122.544Z" fill="#FF007E"/>
<path d="M121.679 1.33984L121.443 3.06225C121.443 3.21203 121.443 3.43669 121.443 3.58646L118.847 19.3877L122.386 21.5594L124.746 6.73172C125.139 4.48511 123.881 2.23849 121.679 1.33984Z" fill="#DC2A71"/>
<path d="M27.1463 10.3264C26.989 11.225 26.1239 11.899 25.1801 11.899C24.3937 11.899 23.7645 11.3748 23.7645 10.6259C23.7645 10.551 23.7645 10.4012 23.7645 10.3264C23.9218 9.4277 24.7869 8.75372 25.7307 8.67883C26.5171 8.67883 27.1463 9.20304 27.225 9.95191C27.1463 10.1766 27.1463 10.2515 27.1463 10.3264Z" fill="white"/>
<path d="M34.5391 10.3264C34.3818 11.225 33.5167 11.899 32.5729 11.899C31.7864 11.899 31.1573 11.3748 31.0786 10.6259C31.0786 10.551 31.0786 10.4012 31.0786 10.3264C31.2359 9.4277 32.101 8.75372 33.0448 8.67883C33.8312 8.67883 34.4604 9.20304 34.5391 9.95191C34.5391 10.1017 34.5391 10.2515 34.5391 10.3264Z" fill="white"/>
<path d="M34.5391 10.3264C34.3818 11.225 33.5167 11.899 32.5729 11.899C31.7864 11.899 31.1573 11.3748 31.0786 10.6259C31.0786 10.551 31.0786 10.4012 31.0786 10.3264C31.2359 9.4277 32.101 8.75372 33.0448 8.67883C33.8312 8.67883 34.4604 9.20304 34.5391 9.95191C34.5391 10.1017 34.5391 10.2515 34.5391 10.3264Z" fill="white"/>
<path d="M41.8531 10.3264C41.6958 11.225 40.8307 11.899 39.8869 11.899C39.1005 11.899 38.4713 11.3748 38.4713 10.6259C38.4713 10.551 38.4713 10.4012 38.4713 10.3264C38.6286 9.4277 39.4937 8.75372 40.4375 8.67883C41.2239 8.67883 41.8531 9.20304 41.9318 9.95191C41.9318 10.1766 41.9317 10.2515 41.8531 10.3264Z" fill="white"/>
<path d="M42.1676 44.4749C40.9879 51.4394 34.1457 57.1309 26.8317 57.1309C19.5176 57.1309 14.4843 51.5143 15.664 44.4749C16.8436 37.5104 23.6858 31.819 30.9999 31.819C38.314 31.819 43.2686 37.5104 42.1676 44.4749Z" fill="#1A1442"/>
<path d="M110.59 41.105H49.875L50.4255 37.6602H111.14L110.59 41.105Z" fill="#2BC5F5"/>
<path d="M108.938 50.9901H48.2234L48.7739 47.5453H109.488L108.938 50.9901Z" fill="#2BC5F5"/>
<path d="M69.3791 60.8752H46.5718L47.1223 57.5052H69.9296L69.3791 60.8752Z" fill="#2BC5F5"/>
</svg>
