<svg width="58" height="53" viewBox="0 0 58 53" fill="none" xmlns="http://www.w3.org/2000/svg">
<path opacity="0.02439" d="M44.9422 7.52722L14.2703 7.82678C10.2594 7.82678 6.87759 10.5976 6.24842 14.342L0.900517 44.6713C0.66458 46.169 0.900517 47.6668 1.68697 49.0148C1.92291 49.3892 2.15882 49.6887 2.39476 50.0632L2.63069 50.2878C2.94527 50.5874 3.25986 50.8869 3.57444 51.1116L3.81037 51.2614C4.12496 51.486 4.43958 51.7107 4.83281 51.8605L5.06873 51.9354C5.46196 52.0851 5.93382 52.2349 6.32705 52.3098L6.64165 52.3847C7.11352 52.4596 7.58539 52.5345 8.05726 52.5345L38.7291 52.2349C39.5156 52.2349 40.2234 52.0851 40.9312 51.8605L48.2452 8.20121C47.2228 7.75189 46.0432 7.52722 44.9422 7.52722Z" fill="#FAFBFD"/>
<path opacity="0.04878" d="M44.9422 7.52722L14.4276 7.82678C10.4953 7.82678 7.11357 10.5976 6.40576 14.342L1.13648 44.5215C0.900541 46.0193 1.13648 47.517 1.92294 48.865C2.15887 49.2394 2.39478 49.539 2.63072 49.8385L2.8667 50.0632C3.18128 50.3627 3.41718 50.6623 3.81041 50.8869L4.04638 51.0367C4.36097 51.2613 4.67554 51.4111 5.06877 51.5609L5.3047 51.6358C5.69793 51.7856 6.16978 51.9353 6.56301 52.0102L6.87761 52.0851C7.34949 52.16 7.82136 52.2349 8.29323 52.2349L38.8078 51.9353C39.5156 51.9353 40.3021 51.7856 41.0099 51.5609L48.324 8.12632C47.2229 7.75189 46.0433 7.52722 44.9422 7.52722Z" fill="#F5F7FB"/>
<path opacity="0.073171" d="M44.9423 7.52722L14.5849 7.82678C10.6526 7.82678 7.27089 10.5976 6.64172 14.2671L1.37244 44.2968C1.1365 45.7946 1.37244 47.2923 2.1589 48.6403C2.39484 49.0147 2.63079 49.3143 2.86673 49.6138C2.94538 49.6887 3.02401 49.7636 3.10266 49.8385C3.41724 50.138 3.65319 50.4376 4.04642 50.6622C4.12507 50.7371 4.20367 50.7371 4.20367 50.812C4.51826 51.0367 4.83288 51.1864 5.22611 51.4111C5.30475 51.4111 5.38339 51.486 5.46204 51.486C5.85527 51.6358 6.24848 51.7855 6.72035 51.8604L7.03495 51.9353C7.50683 52.0102 7.97869 52.0851 8.45057 52.0851L38.8079 51.7855C39.5157 51.7855 40.3022 51.6358 41.01 51.4111L48.2454 8.20121C47.223 7.75189 46.122 7.52722 44.9423 7.52722Z" fill="#F0F3FA"/>
<path opacity="0.097561" d="M44.9422 7.52722L14.7421 7.82678C10.8099 7.90166 7.50673 10.5976 6.87756 14.2671L1.60828 44.0722C1.37234 45.5699 1.60828 47.0677 2.39474 48.3408C2.63068 48.7152 2.86663 49.0147 3.10257 49.3143C3.18122 49.3892 3.25985 49.4641 3.3385 49.5389C3.65308 49.8385 3.88903 50.138 4.28226 50.3627C4.3609 50.4376 4.43956 50.4376 4.43956 50.5125C4.75414 50.7371 5.06872 50.8869 5.46194 51.1116L5.69787 51.1865C6.0911 51.3362 6.48431 51.486 6.95619 51.5609L7.27079 51.6358C7.74266 51.7107 8.21453 51.7856 8.6864 51.7856L38.8864 51.486C39.5942 51.486 40.3807 51.3362 41.0885 51.1865L48.3239 8.20121C47.2229 7.75189 46.1218 7.52722 44.9422 7.52722Z" fill="#EBEFF8"/>
<path opacity="0.122" d="M45.0209 7.52722L14.9782 7.82678C11.0459 7.82678 7.74275 10.5227 7.11359 14.1922L1.92298 43.8475C1.68704 45.3453 1.92298 46.843 2.70944 48.1161C2.94537 48.4905 3.18128 48.7901 3.41722 49.0896C3.49587 49.1645 3.57455 49.2394 3.6532 49.3143C3.88913 49.6138 4.20368 49.9134 4.59691 50.138C4.67555 50.2129 4.75421 50.2129 4.75421 50.2878C5.06879 50.5125 5.38339 50.6623 5.69797 50.8869L5.9339 50.9618C6.32713 51.1116 6.72039 51.2614 7.19226 51.3362L7.50681 51.4111C7.97869 51.486 8.45056 51.5609 8.92243 51.5609L38.9652 51.2614C39.673 51.2614 40.4594 51.1116 41.1672 50.8869L48.324 8.12632C47.223 7.75189 46.1219 7.52722 45.0209 7.52722Z" fill="#E6EBF6"/>
<path opacity="0.1463" d="M45.0208 7.52722L15.1354 7.82678C11.2817 7.82678 7.97859 10.5227 7.34942 14.1922L2.15882 43.6977C1.92288 45.1206 2.15882 46.6184 2.94528 47.9663C3.18121 48.3408 3.41717 48.6403 3.65311 48.9398L3.88903 49.1645C4.20362 49.4641 4.43957 49.7636 4.83279 49.9883C4.91144 50.0632 4.99005 50.0632 4.99005 50.138C5.30463 50.3627 5.61922 50.5125 5.93381 50.7371L6.16973 50.812C6.56296 50.9618 6.95622 51.1116 7.4281 51.1865L7.74265 51.2614C8.21453 51.3362 8.68644 51.4111 9.15831 51.4111L39.0437 51.1116C39.7515 51.1116 40.5379 50.9618 41.1671 50.812L48.3239 8.27609C47.2229 7.75188 46.1218 7.52722 45.0208 7.52722Z" fill="#E1E6F4"/>
<path opacity="0.1707" d="M45.0208 7.52722L15.2927 7.82678C11.4391 7.82678 8.13592 10.5227 7.50675 14.1173L2.39478 43.4731C2.15884 44.8959 2.39478 46.3937 3.18124 47.6668C3.41717 48.0412 3.65313 48.3408 3.88907 48.6403L4.125 48.865C4.43958 49.1645 4.6755 49.4641 4.99008 49.6887L5.14738 49.8385C5.46196 50.0632 5.77656 50.2129 6.09114 50.4376L6.32707 50.5125C6.7203 50.6623 7.11355 50.812 7.58543 50.8869L7.89998 50.9618C8.37186 51.0367 8.84372 51.1116 9.3156 51.1116L39.0437 50.812C39.7515 50.812 40.4593 50.6623 41.1671 50.5125L48.2452 8.20121C47.2228 7.75189 46.1218 7.52722 45.0208 7.52722Z" fill="#DCE2F2"/>
<path opacity="0.1951" d="M45.0208 7.52722L15.45 7.82678C11.5964 7.82678 8.37188 10.5227 7.74272 14.1173L2.63074 43.3233C2.3948 44.7462 2.63074 46.2439 3.4172 47.517C3.65314 47.8915 3.88909 48.191 4.12503 48.4905C4.20368 48.5654 4.28231 48.6403 4.36096 48.7152C4.5969 49.0148 4.91151 49.2394 5.22609 49.539L5.38334 49.6887C5.69793 49.9134 6.01252 50.0632 6.3271 50.2878L6.56303 50.3627C6.95626 50.5125 7.34949 50.6623 7.74272 50.7372L8.05732 50.8121C8.52919 50.8869 9.00106 50.9618 9.47294 50.9618L39.0438 50.6623C39.7516 50.6623 40.4594 50.5125 41.1672 50.3627L48.2453 8.27609C47.2229 7.75188 46.1219 7.52722 45.0208 7.52722Z" fill="#D7DEF0"/>
<path opacity="0.2195" d="M45.0208 7.52722L15.6072 7.82678C11.7536 7.82678 8.52912 10.5227 7.89995 14.1173L2.78797 43.1735C2.55203 44.5964 2.78797 46.0942 3.57443 47.3672C3.81036 47.7417 4.04632 48.0412 4.28226 48.3408C4.3609 48.4157 4.43954 48.4906 4.51819 48.5654C4.75412 48.865 5.06869 49.0897 5.38327 49.3892L5.54057 49.539C5.85516 49.7636 6.16975 49.9134 6.48433 50.0632L6.72026 50.1381C7.11349 50.2879 7.50672 50.4376 7.89995 50.5125L8.13588 50.5874C8.60775 50.6623 9.07967 50.7372 9.55154 50.7372L38.9651 50.4376C39.6729 50.4376 40.3807 50.2879 41.0885 50.1381L48.088 8.27609C47.2229 7.75188 46.1218 7.52722 45.0208 7.52722Z" fill="#D2DAEF"/>
<path opacity="0.2439" d="M45.0994 7.52722L15.8433 7.82678C12.0683 7.90166 8.84378 10.5227 8.21461 14.0424L3.10264 42.9489C2.8667 44.3718 3.10261 45.8695 3.81042 47.0677C4.04636 47.3672 4.28232 47.7417 4.51825 48.0412L4.75418 48.2659C4.99012 48.5654 5.30473 48.7901 5.61931 49.0897L5.77657 49.2394C6.09115 49.4641 6.40574 49.6139 6.72032 49.7636L6.95625 49.8385C7.34948 49.9883 7.74271 50.1381 8.13594 50.213L8.45054 50.2878C8.92241 50.3627 9.31565 50.4376 9.78753 50.4376L39.0437 50.1381C39.7516 50.1381 40.4593 49.9883 41.1671 49.8385L48.1666 8.20121C47.3015 7.75189 46.2005 7.52722 45.0994 7.52722Z" fill="#CDD6ED"/>
<path opacity="0.2683" d="M45.0994 7.52722L16.0004 7.82678C12.2254 7.82678 9.001 10.4478 8.37183 14.0424L3.33847 42.7991C3.10254 44.222 3.33849 45.6448 4.04631 46.9179C4.2036 47.2923 4.43951 47.5919 4.75409 47.8915L4.99002 48.1161C5.22596 48.4157 5.54057 48.6403 5.85515 48.865C5.9338 48.9399 6.01245 48.9399 6.01245 49.0148C6.32704 49.2394 6.64158 49.3892 6.95617 49.539L7.19214 49.6139C7.58537 49.7636 7.9786 49.9134 8.37183 49.9883L8.68638 50.0632C9.15826 50.1381 9.5515 50.213 10.0234 50.213L39.1223 49.9134C39.8302 49.9134 40.538 49.7636 41.2458 49.6139L48.1666 8.20121C47.2229 7.75189 46.2005 7.52722 45.0994 7.52722Z" fill="#C9D2EB"/>
<path opacity="0.2927" d="M45.0995 7.52722L16.1579 7.82678C12.3829 7.82678 9.23707 10.4478 8.6079 13.9675L3.57456 42.5745C3.33862 43.9973 3.57458 45.4202 4.28239 46.6933C4.51833 46.9928 4.67559 47.3672 4.99017 47.6668L5.22615 47.8915C5.46208 48.191 5.77665 48.4157 6.09123 48.6403L6.24853 48.7901C6.56311 49.0148 6.87771 49.1645 7.19229 49.3143L7.42822 49.3892C7.82145 49.539 8.21467 49.6888 8.6079 49.7636L8.84383 49.8385C9.3157 49.9134 9.70894 49.9883 10.1808 49.9883L39.1224 49.6888C39.8302 49.6888 40.5381 49.539 41.2459 49.3892L48.1667 8.20121C47.2229 7.75189 46.2005 7.52722 45.0995 7.52722Z" fill="#C4CEE9"/>
<path opacity="0.3171" d="M45.0994 7.52722L16.3151 7.82678C12.5401 7.82678 9.39429 10.4478 8.76512 13.9675L3.8104 42.4246C3.57446 43.8475 3.81042 45.2704 4.51823 46.5434C4.75417 46.843 4.91148 47.2174 5.22606 47.517C5.30471 47.5919 5.38334 47.6668 5.46199 47.7416C5.69792 48.0412 6.01249 48.2659 6.32707 48.4905L6.48437 48.6403C6.79896 48.865 7.11355 49.0147 7.42813 49.1645C7.50678 49.2394 7.58541 49.2394 7.66406 49.2394C8.05729 49.3892 8.45052 49.5389 8.84375 49.6138L9.07967 49.6887C9.55155 49.7636 9.94479 49.8385 10.4167 49.8385L39.201 49.6138C39.9088 49.6138 40.6167 49.4641 41.2458 49.3143L48.088 8.35099C47.2229 7.75189 46.2005 7.52722 45.0994 7.52722Z" fill="#BFCAE7"/>
<path opacity="0.3415" d="M45.0994 7.52722L16.4724 7.75189C12.776 7.75189 9.63021 10.3729 9.00104 13.8178L4.04637 42.1251C3.81043 43.548 4.04634 44.9708 4.75415 46.169C4.91144 46.4686 5.1474 46.843 5.46198 47.0677C5.54063 47.1426 5.61926 47.2174 5.69791 47.2923C5.93385 47.5919 6.24841 47.8165 6.56299 48.0412L6.72029 48.191C7.03488 48.4156 7.34947 48.5654 7.66405 48.7152L7.89998 48.7901C8.29321 48.9398 8.68644 49.0896 9.07967 49.1645L9.3156 49.2394C9.78747 49.3143 10.1807 49.3892 10.6526 49.3892L39.2797 49.1645C39.9875 49.1645 40.6953 49.0147 41.3244 48.865L48.1666 8.12632C47.2229 7.75189 46.2005 7.52722 45.0994 7.52722Z" fill="#BAC6E5"/>
<path opacity="0.3659" d="M45.1781 7.52722L16.7084 7.75189C13.012 7.82677 9.86617 10.3729 9.237 13.8178L4.28233 41.9754C4.04639 43.3982 4.2823 44.8211 4.99011 46.0193C5.1474 46.3188 5.38336 46.6932 5.69794 46.9179C5.77659 46.9928 5.85523 47.0677 5.93387 47.1426C6.16981 47.4421 6.48442 47.6668 6.799 47.8914L6.95626 48.0412C7.27084 48.2659 7.58543 48.4157 7.90002 48.5654L8.13594 48.6403C8.52917 48.7901 8.9224 48.9399 9.31563 49.0148L9.55161 49.0897C10.0235 49.1645 10.4167 49.2394 10.8885 49.2394L39.3583 49.0148C40.0661 49.0148 40.774 48.865 41.4032 48.7152L48.2453 8.20121C47.2229 7.75189 46.2005 7.52722 45.1781 7.52722Z" fill="#B5C2E4"/>
<path opacity="0.3902" d="M45.1782 7.52722L16.8657 7.75189C13.1693 7.75189 10.1021 10.2981 9.47296 13.8178L4.51828 41.8256C4.28235 43.1735 4.5183 44.5964 5.22611 45.8695C5.46205 46.169 5.61933 46.4686 5.85527 46.7681L6.0912 46.9928C6.32714 47.2923 6.6417 47.517 6.95628 47.7416L7.11358 47.8914C7.42817 48.1161 7.74276 48.2659 8.05734 48.4156L8.29327 48.4905C8.6865 48.6403 9.07973 48.7901 9.47296 48.865L9.70888 48.9398C10.1808 49.0147 10.574 49.0896 11.0459 49.0896L39.3583 48.865C40.0662 48.865 40.6954 48.7152 41.4032 48.5654L48.1667 8.27609C47.2229 7.75188 46.2006 7.52722 45.1782 7.52722Z" fill="#B0BDE2"/>
<path opacity="0.4146" d="M45.1781 7.52722L17.0229 7.75189C13.4052 7.75189 10.2593 10.2981 9.63017 13.7429L4.75412 41.526C4.51819 42.874 4.75414 44.2968 5.46195 45.495C5.61925 45.7946 5.85517 46.0941 6.09111 46.3937L6.32704 46.6183C6.56298 46.9179 6.87759 47.1426 7.19217 47.3672L7.34943 47.517C7.66401 47.7417 7.9786 47.8914 8.29319 48.0412L8.52911 48.1161C8.92234 48.2659 9.31557 48.4156 9.7088 48.4905L9.94478 48.5654C10.4167 48.6403 10.8098 48.7152 11.2817 48.7152L39.437 48.4905C40.1448 48.4905 40.7739 48.3408 41.4817 48.191L48.1666 8.12632C47.3015 7.75189 46.2005 7.52722 45.1781 7.52722Z" fill="#ABB9E0"/>
<path opacity="0.439" d="M45.1781 7.52722L17.1802 7.75189C13.5625 7.75189 10.4953 10.298 9.86614 13.668L4.99008 41.3013C4.75415 42.6493 4.9901 44.0722 5.69792 45.2704C5.85521 45.5699 6.09114 45.8695 6.32707 46.169L6.563 46.3937C6.79894 46.6932 7.11355 46.9179 7.42813 47.1426L7.58544 47.2923C7.90002 47.517 8.21456 47.6668 8.52915 47.8165L8.76512 47.8914C9.15835 48.0412 9.55158 48.191 9.94481 48.2659L10.1807 48.3408C10.574 48.4156 11.0459 48.4905 11.5177 48.4905L39.5156 48.2659C40.2234 48.2659 40.8526 48.1161 41.5604 47.9663L48.2453 8.12632C47.3016 7.75189 46.2792 7.52722 45.1781 7.52722Z" fill="#A6B5DE"/>
<path opacity="0.4634" d="M45.2568 7.52722L17.4161 7.75189C13.7984 7.75189 10.7312 10.298 10.1807 13.668L5.38327 41.1516C5.14734 42.4996 5.38329 43.9224 6.09111 45.1206C6.2484 45.4202 6.48433 45.7197 6.72026 46.0193L6.95619 46.2439C7.19213 46.5435 7.50674 46.7681 7.82133 46.9928L7.97863 47.1426C8.29321 47.3672 8.60776 47.517 8.92234 47.6668L9.15831 47.7417C9.55154 47.8915 9.94477 48.0412 10.338 48.1161L10.5739 48.191C10.9672 48.2659 11.439 48.3408 11.9109 48.3408L39.7515 48.1161C40.4594 48.1161 41.0885 47.9663 41.7964 47.8166L48.4813 8.20121C47.3016 7.75189 46.2791 7.52722 45.2568 7.52722Z" fill="#A1B1DC"/>
<path opacity="0.4878" d="M45.2568 7.52722L17.5734 7.75189C13.9557 7.82677 10.9672 10.298 10.338 13.668L5.54062 41.0767C5.30468 42.4247 5.54064 43.8475 6.24845 44.9708C6.40575 45.2704 6.64167 45.5699 6.87761 45.8695L7.11354 46.0941C7.34948 46.3937 7.66409 46.6184 7.97867 46.843C8.05732 46.9179 8.13593 46.9179 8.13593 46.9928C8.45051 47.2174 8.68646 47.3672 9.07968 47.517L9.31561 47.5919C9.70884 47.7417 10.1021 47.8914 10.4953 47.9663L10.7313 48.0412C11.1245 48.1161 11.5963 48.191 12.0682 48.191L39.7516 47.9663C40.4594 47.9663 41.0885 47.8165 41.7177 47.6668L48.324 8.27609C47.3016 7.75188 46.2792 7.52722 45.2568 7.52722Z" fill="#9CADDA"/>
<path opacity="0.5122" d="M45.2567 7.52722L17.7306 7.75189C14.1916 7.75189 11.1244 10.2232 10.4952 13.5931L5.77646 40.7772C5.54052 42.1251 5.77648 43.4731 6.48429 44.6713C6.64158 44.9708 6.87751 45.2704 7.11345 45.57L7.27075 45.7946C7.50669 46.0942 7.82125 46.3188 8.13584 46.5435C8.21448 46.6184 8.21449 46.6184 8.29314 46.6933C8.60772 46.9179 8.84369 47.0677 9.15827 47.2175L9.3942 47.2924C9.78743 47.4421 10.1807 47.5919 10.5739 47.6668L10.8098 47.7417C11.203 47.8166 11.6749 47.8915 12.0681 47.8915L39.5942 47.6668C40.302 47.6668 40.9311 47.517 41.5603 47.3672L48.1666 8.20121C47.3015 7.75189 46.2791 7.52722 45.2567 7.52722Z" fill="#97A9D9"/>
<path opacity="0.5366" d="M45.2568 7.52722L17.8881 7.75189C14.349 7.75189 11.2818 10.2232 10.7313 13.5931L6.01255 40.6274C5.77662 41.9753 6.01252 43.3233 6.72034 44.5215C6.87763 44.8211 7.11356 45.1206 7.34949 45.4201L7.5068 45.6448C7.74273 45.9444 7.97867 46.169 8.29325 46.3937C8.3719 46.4686 8.37191 46.4686 8.45056 46.5435C8.76514 46.7681 9.00106 46.9179 9.31564 47.0677L9.47294 47.1426C9.86617 47.2923 10.1808 47.4421 10.574 47.517L10.8099 47.5919C11.2032 47.6668 11.675 47.7417 12.0682 47.7417L39.437 47.517C40.1449 47.517 40.774 47.3672 41.4032 47.2175L47.9308 8.27609C47.3016 7.75188 46.2792 7.52722 45.2568 7.52722Z" fill="#92A5D7"/>
<path opacity="0.561" d="M45.2567 7.52722L18.0453 7.75189C14.5062 7.82677 11.5177 10.2232 10.9671 13.5182L6.24839 40.4027C6.01246 41.7507 6.24836 43.0987 6.95618 44.2969C7.11347 44.5964 7.34944 44.896 7.58538 45.1955C7.66403 45.2704 7.74263 45.3453 7.74263 45.4202C7.97857 45.7197 8.21451 45.9444 8.52909 46.169C8.60774 46.2439 8.68639 46.2439 8.68639 46.3188C9.00098 46.5435 9.23694 46.6933 9.55153 46.843L9.78745 46.9179C10.1807 47.0677 10.4952 47.2175 10.8885 47.2924L11.1244 47.3672C11.5177 47.4421 11.9895 47.517 12.3828 47.517L39.5942 47.2924C40.2233 47.2924 40.9311 47.2175 41.5603 46.9928L48.088 8.27609C47.3015 7.75188 46.2791 7.52722 45.2567 7.52722Z" fill="#8DA1D5"/>
<path opacity="0.5854" d="M45.3355 7.52722L18.2813 7.75189C14.7422 7.75189 11.7537 10.2232 11.2032 13.5182L6.48442 40.2529C6.16983 41.9004 6.64172 43.6977 7.82141 44.9708L8.05733 45.1955C8.29327 45.495 8.52921 45.7197 8.84379 45.9444L9.00109 46.0941C9.31568 46.3188 9.55159 46.4686 9.86618 46.6183L10.0235 46.6932C10.4167 46.843 10.7313 46.9928 11.1245 47.0677L11.3605 47.1426C11.7537 47.2174 12.2256 47.2923 12.6188 47.2923L39.673 47.0677C40.3021 47.0677 41.0099 46.9179 41.6391 46.7681L48.0881 8.27609C47.3016 7.75188 46.2792 7.52722 45.3355 7.52722Z" fill="#889DD3"/>
<path opacity="0.6098" d="M45.3353 7.52722L18.4385 7.75189C14.9781 7.75189 11.9895 10.2232 11.439 13.4433L6.79893 40.0283C6.56299 41.3763 6.7989 42.7242 7.50671 43.8475C7.664 44.1471 7.89993 44.4466 8.13587 44.7462L8.29317 44.9709C8.52911 45.2704 8.76504 45.4951 9.07963 45.7197L9.23693 45.8695C9.55151 46.0941 9.78743 46.2439 10.102 46.3937L10.2593 46.4686C10.6525 46.6184 10.9671 46.7681 11.3604 46.843L11.5963 46.9179C11.9895 46.9928 12.4614 47.0677 12.8546 47.0677L39.7515 46.843C40.3806 46.843 41.0884 46.6932 41.7176 46.5435L48.1666 8.27609C47.3015 7.75188 46.3577 7.52722 45.3353 7.52722Z" fill="#8399D1"/>
<path opacity="0.6341" d="M45.3355 7.52722L18.5959 7.75189C15.1355 7.75189 12.147 10.1483 11.5965 13.4433L6.95634 39.8785C6.64176 41.526 7.11364 43.2484 8.29333 44.5215L8.45063 44.7462C8.68657 45.0457 8.9225 45.2704 9.23708 45.495C9.31573 45.495 9.39439 45.5699 9.39439 45.6448C9.70897 45.8695 9.94489 46.0193 10.2595 46.169L10.4168 46.2439C10.81 46.3937 11.1246 46.5435 11.5178 46.6184L11.7538 46.6932C12.147 46.7681 12.6188 46.843 13.0121 46.843L39.7516 46.6184C40.3808 46.6184 41.0886 46.5435 41.7177 46.3188L48.0881 8.27609C47.3016 7.75188 46.3579 7.52722 45.3355 7.52722Z" fill="#7E94CF"/>
<path opacity="0.6585" d="M45.3354 7.52722L18.7531 7.75189C15.2927 7.75189 12.3829 10.1483 11.8323 13.4433L7.2709 39.7287C7.03496 41.0018 7.27089 42.3498 7.90005 43.4731C8.05735 43.7727 8.29327 44.0722 8.52921 44.3717C8.60786 44.4466 8.68651 44.5215 8.68651 44.5964C8.92245 44.896 9.15839 45.1206 9.47297 45.3453L9.63027 45.4951C9.94485 45.7197 10.1808 45.8695 10.4954 46.0193L10.6527 46.0942C11.0459 46.2439 11.3605 46.3937 11.7537 46.4686L11.9896 46.5435C12.3829 46.6184 12.8547 46.6933 13.2479 46.6933L39.8302 46.4686C40.4594 46.4686 41.0885 46.3188 41.7177 46.169L48.088 8.35099C47.3016 7.75189 46.3578 7.52722 45.3354 7.52722Z" fill="#7990CE"/>
<path opacity="0.6829" d="M45.3355 7.52722L18.9105 7.75189C15.4501 7.75189 12.5402 10.1483 11.9896 13.3684L7.42819 39.5041C7.11361 41.1516 7.58547 42.7991 8.68651 44.1471L8.84381 44.3717C9.07975 44.6713 9.31569 44.8959 9.63027 45.1206L9.78757 45.2704C10.0235 45.495 10.3381 45.6448 10.6527 45.7946L10.81 45.8695C11.1245 46.0192 11.5178 46.169 11.911 46.2439L12.1469 46.3188C12.5402 46.3937 12.9334 46.4686 13.4053 46.4686L39.8303 46.2439C40.4595 46.2439 41.0886 46.169 41.7178 45.9444L48.0095 8.35099C47.3016 7.75189 46.3579 7.52722 45.3355 7.52722Z" fill="#748CCC"/>
<path opacity="0.7073" d="M45.4139 7.52722L19.1462 7.75189C15.7644 7.75189 12.8546 10.1483 12.3041 13.3684L7.74257 39.3543C7.50663 40.6274 7.74261 41.9754 8.37178 43.0987C8.52907 43.3982 8.76499 43.6978 9.00093 43.9224L9.15823 44.1471C9.39417 44.3718 9.63011 44.6713 9.94469 44.8211L10.1019 44.9709C10.3379 45.1955 10.6525 45.3453 10.9671 45.4951L11.1244 45.5699C11.439 45.7197 11.8322 45.7946 12.2254 45.9444L12.4613 46.0193C12.8545 46.0942 13.2478 46.169 13.7197 46.169L39.9873 45.9444C40.6165 45.9444 41.3243 45.8695 41.9535 45.6448L48.2451 8.27609C47.38 7.75188 46.3576 7.52722 45.4139 7.52722Z" fill="#6F88CA"/>
<path opacity="0.7317" d="M45.4141 7.52722L19.3037 7.75189C15.9219 7.75189 13.012 10.1483 12.4615 13.3684L7.90005 39.2045C7.66411 40.4776 7.90004 41.7507 8.52921 42.874C8.6865 43.1735 8.92247 43.4731 9.15841 43.6978L9.31566 43.9224C9.5516 44.1471 9.78754 44.4466 10.1021 44.5964L10.2594 44.7462C10.4954 44.896 10.81 45.1206 11.1246 45.2704L11.2818 45.3453C11.5964 45.4951 11.9896 45.6448 12.3829 45.7197L12.6188 45.7946C13.012 45.8695 13.4053 45.9444 13.7985 45.9444L39.9089 45.7197C40.5381 45.7197 41.1672 45.6448 41.7964 45.4202L48.0094 8.27609C47.3802 7.75188 46.3578 7.52722 45.4141 7.52722Z" fill="#6A84C8"/>
<path opacity="0.7561" d="M45.4139 7.52722L19.4608 7.75189C16.0791 7.75189 13.2478 10.1483 12.6973 13.2935L8.2145 38.905C7.97857 40.1781 8.21449 41.4511 8.84366 42.5744C9.00095 42.874 9.23688 43.1735 9.47281 43.3982C9.55146 43.4731 9.63012 43.548 9.63012 43.6229C9.86605 43.8475 10.102 44.1471 10.4166 44.2968L10.5739 44.4466C10.8098 44.5964 11.1244 44.8211 11.439 44.896L11.5963 44.9708C11.9108 45.1206 12.3041 45.1955 12.6973 45.3453L12.9332 45.4201C13.3265 45.495 13.7197 45.5699 14.1129 45.5699L40.066 45.3453C40.6952 45.3453 41.3243 45.2704 41.9535 45.0457L48.1665 8.12632C47.38 7.75189 46.3577 7.52722 45.4139 7.52722Z" fill="#6680C6"/>
<path opacity="0.7805" d="M45.414 7.52722L19.6182 7.75189C16.2364 7.75189 13.4051 10.0734 12.8546 13.2187L8.37185 38.6803C8.13591 39.9534 8.37184 41.2265 9.00101 42.3498C9.1583 42.6494 9.39423 42.9489 9.63016 43.1735L9.78747 43.3982C10.0234 43.6229 10.2593 43.9224 10.5739 44.0722L10.7312 44.222C10.9672 44.3718 11.2817 44.5964 11.5963 44.6713C11.675 44.6713 11.7536 44.7462 11.7536 44.7462C12.0682 44.896 12.4614 45.0457 12.8546 45.1206L13.0906 45.1955C13.4838 45.2704 13.8771 45.3453 14.2703 45.2704L40.0661 45.0457C40.6952 45.0457 41.3244 44.9708 41.9535 44.7462L48.088 8.05143C47.3801 7.75188 46.4364 7.52722 45.414 7.52722Z" fill="#617CC4"/>
<path opacity="0.8049" d="M45.4925 7.52722L19.8541 7.75189C16.5509 7.75189 13.7197 10.0734 13.1692 13.2187L8.76504 38.5305C8.5291 39.8036 8.76503 41.0767 9.3942 42.2C9.55149 42.4996 9.78741 42.7991 10.0234 43.0238L10.1807 43.2484C10.4166 43.4731 10.6525 43.6977 10.9671 43.9224L11.1244 44.0722C11.3603 44.222 11.6749 44.4466 11.9895 44.5215L12.1468 44.5964C12.4614 44.7462 12.8546 44.8211 13.1692 44.9708L13.4051 45.0457C13.7983 45.1206 14.1916 45.1955 14.5848 45.1955L40.2233 44.9708C40.8525 44.9708 41.4816 44.8959 42.0322 44.6713L48.1665 8.20121C47.38 7.75189 46.4363 7.52722 45.4925 7.52722Z" fill="#5C78C3"/>
<path opacity="0.8293" d="M45.4926 7.52722L20.0114 7.75189C16.7083 7.75189 13.8771 10.0734 13.3266 13.1438L8.92238 38.3059C8.68644 39.5789 8.92242 40.852 9.55158 41.9005C9.70888 42.2 9.9448 42.4996 10.1807 42.7242L10.338 42.9489C10.574 43.1735 10.8099 43.3982 11.1245 43.6229L11.2817 43.7726C11.5177 43.9224 11.8323 44.1471 12.1469 44.222L12.3042 44.2968C12.6188 44.4466 13.012 44.5964 13.3266 44.6713L13.5625 44.7462C13.9557 44.8211 14.3489 44.896 14.7422 44.896L40.2234 44.6713C40.8526 44.6713 41.4817 44.5964 42.0322 44.3717L48.088 8.12632C47.3801 7.75189 46.4364 7.52722 45.4926 7.52722Z" fill="#5774C1"/>
<path opacity="0.8537" d="M45.4926 7.52722L20.1687 7.75189C16.8656 7.75189 14.113 10.0734 13.5625 13.1438L9.15835 38.1561C8.92241 39.3543 9.15834 40.6274 9.78751 41.7507C9.9448 42.0502 10.1807 42.3498 10.4167 42.5744C10.4953 42.6493 10.574 42.7242 10.574 42.7991C10.8099 43.0237 11.0458 43.2484 11.3604 43.4731L11.5177 43.6228C11.7537 43.7726 12.0682 43.9973 12.3042 44.0722L12.4614 44.1471C12.776 44.2968 13.1693 44.3717 13.4839 44.4466C13.5625 44.4466 13.6411 44.4466 13.7198 44.5215C14.113 44.5964 14.5062 44.6713 14.8995 44.6713L40.2234 44.4466C40.8526 44.4466 41.4817 44.3717 42.0322 44.1471L48.088 8.12632C47.3801 7.75189 46.4364 7.52722 45.4926 7.52722Z" fill="#5270BF"/>
<path opacity="0.878" d="M45.4925 7.52722L20.3259 7.75189C17.0228 7.75189 14.2702 10.0734 13.7197 13.0689L9.39419 37.9314C9.15825 39.1296 9.39418 40.4027 10.0233 41.526C10.1806 41.8256 10.4166 42.1251 10.6525 42.3498L10.8098 42.5744C11.0457 42.7991 11.2817 43.0238 11.5963 43.2484L11.7536 43.3982C11.9895 43.548 12.2254 43.6978 12.54 43.8475L12.6973 43.9224C13.0119 44.0722 13.4051 44.1471 13.7197 44.222L13.9556 44.2968C14.3489 44.3717 14.7421 44.4466 15.1353 44.3717L40.3019 44.1471C40.9311 44.1471 41.5603 44.0722 42.1108 43.8475L48.0879 8.05143C47.3801 7.75188 46.4363 7.52722 45.4925 7.52722Z" fill="#4D6BBD"/>
<path opacity="0.9024" d="M45.4927 7.52722L20.4834 7.75189C17.2589 7.75189 14.5063 9.99851 13.9558 13.0689L9.63027 37.7817C9.39434 38.9799 9.63026 40.2529 10.2594 41.3762C10.4167 41.6758 10.6526 41.9753 10.8886 42.2L11.0459 42.4247C11.2818 42.6493 11.5178 42.874 11.8323 43.0987L11.9896 43.1735C12.2256 43.3233 12.4615 43.4731 12.7761 43.6229C12.8547 43.6229 12.9334 43.6978 12.9334 43.6978C13.248 43.8475 13.6412 43.9224 13.9558 44.0722L14.1917 44.1471C14.5849 44.222 14.9782 44.2969 15.3714 44.222L40.3807 43.9973C41.0099 43.9973 41.6391 43.9224 42.1896 43.6978L48.1666 8.12632C47.3802 7.75189 46.4364 7.52722 45.4927 7.52722Z" fill="#4867BB"/>
<path opacity="0.9268" d="M45.5713 7.52722L20.7192 7.75189C17.4947 7.75189 14.7422 9.99851 14.1916 13.0689L9.86611 37.6319C9.63018 38.8301 9.8661 40.1032 10.4953 41.1516C10.6526 41.4511 10.8885 41.7507 11.1245 41.9753L11.2817 42.2C11.5177 42.4247 11.7536 42.6493 12.0682 42.874L12.2255 42.9489C12.4614 43.0986 12.776 43.2484 13.0119 43.3982L13.1692 43.4731C13.4838 43.6229 13.877 43.6977 14.1916 43.7726L14.4276 43.8475C14.8208 43.9224 15.214 43.9973 15.6072 43.9973L40.4593 43.7726C41.0885 43.7726 41.639 43.6978 42.2682 43.4731L48.1666 8.12632C47.3802 7.75189 46.4364 7.52722 45.5713 7.52722Z" fill="#4363B9"/>
<path opacity="0.9512" d="M45.5714 7.52722L20.8766 7.75189C17.6522 7.75189 14.9782 9.9985 14.4277 12.994L10.1808 37.4072C9.86624 38.9799 10.3381 40.5525 11.3605 41.7507L11.5178 41.9754C11.7538 42.2 11.9897 42.4247 12.3043 42.6494L12.4615 42.7242C12.6975 42.874 12.9334 43.0238 13.248 43.1735L13.4053 43.2484C13.7199 43.3982 14.0344 43.4731 14.4277 43.548L14.6636 43.6229C15.0569 43.6978 15.4501 43.6978 15.8433 43.6978L40.5381 43.4731C41.1672 43.4731 41.7178 43.3982 42.3469 43.1735L48.2454 8.05143C47.3803 7.75188 46.5152 7.52722 45.5714 7.52722Z" fill="#3E5FB8"/>
<path opacity="0.9756" d="M45.5713 7.52722L21.0338 7.75189C17.8094 7.75189 15.1354 9.9985 14.5849 12.994L10.338 37.2574C10.1021 38.4556 10.338 39.6538 10.9672 40.7023C11.1245 41.0018 11.3604 41.2265 11.5177 41.526L11.675 41.7507C11.9109 41.9753 12.1469 42.2 12.3828 42.4246L12.5401 42.4995C12.776 42.6493 13.012 42.7991 13.3266 42.9489L13.4839 43.0238C13.7984 43.1735 14.113 43.2484 14.5062 43.3233L14.7422 43.3982C15.1354 43.4731 15.5286 43.4731 15.9219 43.548L40.4593 43.3233C41.0885 43.3233 41.639 43.2484 42.1895 43.0238L48.088 8.12632C47.3801 7.75189 46.515 7.52722 45.5713 7.52722Z" fill="#395BB6"/>
<path d="M45.5712 7.52722L21.191 7.75189C18.0452 7.75189 15.3712 9.9985 14.8207 12.9191L10.5739 37.0328C10.3379 38.231 10.5739 39.4292 11.203 40.4776C11.3603 40.7772 11.5963 41.0018 11.7536 41.3014L11.9109 41.526C12.1468 41.7507 12.3827 41.9754 12.6186 42.2L12.7759 42.2749C13.0119 42.4247 13.2478 42.5745 13.5624 42.7242L13.7197 42.7991C14.0343 42.9489 14.3489 43.0238 14.7421 43.0987L14.978 43.1736C15.3712 43.2484 15.7645 43.2484 16.1577 43.2484L40.5379 43.0238C41.167 43.0238 41.7176 42.9489 42.2681 42.7242L48.0879 8.05143C47.3801 7.75188 46.515 7.52722 45.5712 7.52722Z" fill="#3457B4"/>
<path d="M45.0208 44.6159L15.45 44.9224C11.675 44.9224 8.52917 42.0112 8.52917 38.3338C8.52917 37.9508 8.5292 37.5677 8.60785 37.1847L13.7198 7.2296C14.349 3.55225 17.5735 0.794234 21.4271 0.794234L50.9979 0.487793C54.7729 0.487793 57.9188 3.39902 57.9188 7.07636C57.9188 7.45942 57.9187 7.84248 57.8401 8.22553L52.7281 38.1806C52.0989 41.8579 48.8745 44.5393 45.0208 44.6159Z" fill="#E1DCFD"/>
<path d="M54.4584 1.33044C55.2448 2.63284 55.4808 4.16507 55.2448 5.62069L50.1329 35.4991C49.5037 39.2531 46.2005 41.9345 42.3469 42.0111L12.7761 42.3175C11.5964 42.3175 10.4167 42.0111 9.31567 41.3982C10.4954 43.5433 12.8547 44.9223 15.3714 44.8457L44.9422 44.5393C48.7959 44.5393 52.0204 41.7813 52.6495 38.1039L57.7615 8.14886C58.312 5.46747 56.975 2.70945 54.4584 1.33044Z" fill="#958BF6"/>
<path d="M21.9776 16.9592H23.8651L22.3709 25.4631H20.4834L21.0339 22.0922H17.6521L17.1016 25.4631H15.2141L16.6298 16.9592H18.5172L17.8881 20.4833H21.2698L21.9776 16.9592Z" fill="#5708D3"/>
<path d="M29.3704 18.4914L28.1908 25.3864H26.3033L27.483 18.4914H25.0449L25.3595 16.8825L32.123 16.8059L31.8871 18.4147L29.3704 18.4914Z" fill="#5708D3"/>
<path d="M40.6167 19.8704L37.4709 24.5437H36.2912L34.7969 19.947L33.8532 25.3098H31.9657L33.3813 16.806H35.9766L37.3922 21.4793L40.4594 16.7294H43.0547L41.6391 25.2332H39.7516L40.6167 19.8704Z" fill="#5708D3"/>
<path d="M43.6838 25.2332L45.0995 16.7294H46.987L45.8073 23.5478H49.425L49.1104 25.2332H43.6838Z" fill="#5708D3"/>
</svg>
