<svg width="97" height="59" viewBox="0 0 97 59" fill="none" xmlns="http://www.w3.org/2000/svg">
<path d="M81.9234 58.8115H5.7942C2.96295 58.8864 0.524935 56.7146 0.446289 54.0187C0.446289 53.6443 0.44627 53.3447 0.524916 52.9703L7.60304 6.09089C8.15357 2.79585 11.1421 0.32457 14.6025 0.249683H90.7317C93.563 0.174796 96.001 2.34652 96.0797 5.04246C96.0797 5.4169 96.0797 5.71645 96.001 6.09089L89.0015 52.9703C88.3724 56.2653 85.4625 58.7366 81.9234 58.8115Z" fill="white"/>
<path d="M93.5628 0.998535C94.192 2.04696 94.428 3.24516 94.192 4.44335L87.1139 51.3227C86.5634 54.6178 83.5748 57.089 80.1144 57.1639H3.98533C2.96293 57.1639 2.01916 56.9393 1.15405 56.4151C2.0978 57.9877 3.90669 58.8863 5.71555 58.8115H81.8447C85.3837 58.7366 88.2936 56.2653 88.8441 52.9702L95.8436 6.09087C96.3941 4.1438 95.3717 2.12184 93.5628 0.998535Z" fill="#E9E6E8"/>
<path d="M76.8902 50.5738H11.6141C9.25472 50.6487 7.36722 48.8514 7.28857 46.6797C7.28857 46.3802 7.28856 46.0806 7.3672 45.8559L12.6365 10.659C13.1084 7.96302 15.4677 6.01596 18.299 5.94107H83.5751C85.9344 5.86619 87.8219 7.58859 87.9006 9.8352C87.9006 10.1348 87.9005 10.4343 87.8219 10.659L82.5526 45.8559C82.0807 48.5519 79.7214 50.499 76.8902 50.5738Z" fill="#2BC5F5"/>
<path d="M8.54682 38.2924L7.36713 46.0807C7.05255 48.2524 8.62545 50.2744 10.9848 50.5739C11.2208 50.5739 11.4567 50.6488 11.6927 50.5739H36.5447L22.6245 22.3414L8.54682 38.2924Z" fill="#5708D3"/>
<path d="M23.0963 30.6539L23.8828 32.3014L26.0848 29.7553L22.4672 22.3414L16.0182 29.6804L17.2765 32.3014L18.8494 30.579L20.3437 33.7243L23.0963 30.6539Z" fill="white"/>
<path d="M33.3203 44.4332L43.9375 31.927L53.2964 50.5739H36.3875L33.3203 44.4332Z" fill="#5708D3"/>
<path d="M72.3286 21.1432C71.5422 25.5615 67.6099 28.8565 62.8911 29.0063C59.0375 29.0812 55.813 26.2355 55.7344 22.566C55.7344 22.1167 55.7344 21.6674 55.813 21.1432C56.5995 16.7248 60.5318 13.4298 65.2505 13.28C69.1042 13.2051 72.3287 16.0508 72.4073 19.7203C72.486 20.1696 72.4073 20.6938 72.3286 21.1432Z" fill="white"/>
<path d="M44.6453 40.2395L45.4317 41.887L47.6338 39.3408L43.9374 31.927L37.6458 39.266L38.9041 41.887L40.3984 40.1646L41.9713 43.3099L44.6453 40.2395Z" fill="white"/>
</svg>
