<svg width="139" height="43" viewBox="0 0 139 43" fill="none" xmlns="http://www.w3.org/2000/svg">
<path d="M128.453 42.7329H5.37182C2.54057 42.8078 0.181185 40.6361 0.102539 37.9401C0.102539 37.6406 0.10252 37.341 0.181166 37.1164L3.95616 6.56239C4.42803 3.41713 7.18066 1.02074 10.5624 0.94585H133.643C136.474 0.870963 138.834 3.04269 138.912 5.73863C138.912 6.03818 138.912 6.33773 138.834 6.56239L135.059 37.1913C134.587 40.3365 131.756 42.7329 128.453 42.7329Z" fill="white"/>
<path d="M136.081 1.47009C136.553 2.36874 136.789 3.41716 136.632 4.46558L132.857 35.0196C132.385 38.1648 129.632 40.5612 126.25 40.711H3.16971C2.3046 40.711 1.43953 40.4863 0.653076 40.1119C1.51818 41.7594 3.40568 42.8078 5.37183 42.8078H128.374C131.756 42.7329 134.508 40.3366 134.98 37.1913L138.755 6.63731C139.148 4.46558 138.047 2.44363 136.081 1.47009Z" fill="#E9E6E8"/>
<path d="M133.171 0.870972H10.9557C7.33803 0.945859 4.34949 3.49202 3.87762 6.86195L3.40576 10.7561H138.283L138.755 6.86195C139.227 4.01624 137.104 1.32029 134.115 0.945858C133.801 0.870971 133.486 0.870972 133.171 0.870972Z" fill="#524BD7"/>
<path d="M136.16 1.69482C136.553 2.59347 136.71 3.49212 136.632 4.46565L135.845 10.8311L138.205 11.7297L138.441 9.93242L138.755 6.93693C139.07 4.84009 138.047 2.74325 136.16 1.69482Z" fill="#5708D3"/>
<path d="M31.6396 27.3061C30.8531 32.8478 25.977 36.9666 20.0786 37.1164C15.1239 37.1913 11.0344 33.4469 10.8771 28.729C10.8771 28.2048 10.8771 27.7555 10.9557 27.3061C11.7422 21.7645 16.6182 17.6457 22.438 17.4959C27.3927 17.3461 31.5609 21.0905 31.6396 25.8084C31.7182 26.3326 31.7182 26.7819 31.6396 27.3061Z" fill="#1A1442"/>
<path d="M125.7 20.9408H37.9312L38.2458 18.3197H126.014L125.7 20.9408Z" fill="#2BC5F5"/>
<path d="M124.756 28.6542H36.9875L37.3022 25.9583H125.071L124.756 28.6542Z" fill="#2BC5F5"/>
<path d="M68.9963 36.2927H36.0437L36.3583 33.6716H69.3109L68.9963 36.2927Z" fill="#2BC5F5"/>
<path d="M16.3036 5.81361C16.2249 6.48759 15.5958 7.08669 14.8093 7.08669C14.1802 7.08669 13.6296 6.63737 13.6296 6.03827C13.6296 5.96338 13.6296 5.8885 13.6296 5.81361C13.7083 5.13963 14.3374 4.61541 15.1239 4.54053C15.7531 4.54053 16.3036 4.98985 16.3036 5.58895C16.3036 5.66384 16.3036 5.73872 16.3036 5.81361Z" fill="white"/>
<path d="M22.0447 5.81355C21.9661 6.48753 21.337 7.08663 20.5505 7.08663C19.9214 7.08663 19.3708 6.63731 19.3708 6.03821C19.3708 5.96332 19.3708 5.88844 19.3708 5.81355C19.4495 5.13957 20.0786 4.61536 20.8651 4.61536C21.4942 4.61536 22.0447 5.13957 22.0447 5.73866C22.0447 5.73866 22.0447 5.73866 22.0447 5.81355Z" fill="white"/>
<path d="M27.7072 5.81361C27.6286 6.48759 26.9995 7.08669 26.213 7.08669C25.5838 7.08669 25.0333 6.63737 25.0333 6.03827C25.0333 5.96338 25.0333 5.8885 25.0333 5.81361C25.112 5.13963 25.7411 4.54053 26.5276 4.54053C27.1567 4.54053 27.7072 4.98985 27.7072 5.58895C27.7859 5.66384 27.7072 5.73872 27.7072 5.81361Z" fill="white"/>
</svg>
